<svg width="16" height="16" viewBox="0 0 16 16" fill="none" xmlns="http://www.w3.org/2000/svg">
<rect width="16" height="16" fill="white"/>
<path fill-rule="evenodd" clip-rule="evenodd" d="M3.77535 3.77583C4.00966 3.54152 4.38956 3.54152 4.62387 3.77583L7.99961 7.15157L11.3753 3.77583C11.6097 3.54152 11.9896 3.54152 12.2239 3.77583C12.4582 4.01015 12.4582 4.39005 12.2239 4.62436L8.84814 8.0001L12.2239 11.3758C12.4582 11.6101 12.4582 11.99 12.2239 12.2244C11.9896 12.4587 11.6097 12.4587 11.3753 12.2244L7.99961 8.84863L4.62387 12.2244C4.38956 12.4587 4.00966 12.4587 3.77535 12.2244C3.54103 11.99 3.54103 11.6101 3.77535 11.3758L7.15108 8.0001L3.77535 4.62436C3.54103 4.39005 3.54103 4.01015 3.77535 3.77583Z" fill="#454546"/>
</svg>
