<?xml version="1.0" encoding="UTF-8" standalone="no"?>
<svg
   width="20"
   height="20"
   viewBox="0 0 20 20"
   fill="none"
   version="1.1"
   id="svg10"
   sodipodi:docname="hide.svg"
   inkscape:export-filename="hide.svg"
   inkscape:export-xdpi="149"
   inkscape:export-ydpi="149"
   inkscape:version="1.2.2 (b0a8486541, 2022-12-01)"
   xmlns:inkscape="http://www.inkscape.org/namespaces/inkscape"
   xmlns:sodipodi="http://sodipodi.sourceforge.net/DTD/sodipodi-0.dtd"
   xmlns="http://www.w3.org/2000/svg"
   xmlns:svg="http://www.w3.org/2000/svg">
  <defs
     id="defs14" />
  <sodipodi:namedview
     id="namedview12"
     pagecolor="#ffffff"
     bordercolor="#666666"
     borderopacity="1.0"
     inkscape:showpageshadow="2"
     inkscape:pageopacity="0.0"
     inkscape:pagecheckerboard="0"
     inkscape:deskcolor="#d1d1d1"
     showgrid="false"
     inkscape:zoom="24.85"
     inkscape:cx="0.42253521"
     inkscape:cy="9.9798793"
     inkscape:window-width="1920"
     inkscape:window-height="959"
     inkscape:window-x="0"
     inkscape:window-y="0"
     inkscape:window-maximized="1"
     inkscape:current-layer="svg10" />
  <path
     fill-rule="evenodd"
     clip-rule="evenodd"
     d="M2.71068 9.10986C4.0768 6.36163 6.83588 4.5 10.0003 4.5C13.1647 4.5 15.9237 6.36163 17.2899 9.10986C17.5682 9.66971 17.5682 10.3303 17.2899 10.8901C15.9237 13.6384 13.1647 15.5 10.0003 15.5C6.83588 15.5 4.0768 13.6384 2.71068 10.8901C2.43238 10.3303 2.43238 9.66971 2.71068 9.10986ZM10.0003 3C6.22558 3 2.96834 5.22171 1.36748 8.44216C0.880112 9.4226 0.880112 10.5774 1.36748 11.5578C2.96834 14.7783 6.22558 17 10.0003 17C13.775 17 17.0322 14.7783 18.6331 11.5578C19.1204 10.5774 19.1204 9.4226 18.6331 8.44216C17.0322 5.22171 13.775 3 10.0003 3ZM14.0003 10C14.0003 12.2091 12.2094 14 10.0003 14C7.79116 14 6.00029 12.2091 6.00029 10C6.00029 7.79086 7.79116 6 10.0003 6C10.5586 6 11.0902 6.11438 11.5729 6.32098C11.2242 6.59564 11.0003 7.02168 11.0003 7.5C11.0003 8.32843 11.6719 9 12.5003 9C12.9786 9 13.4047 8.77611 13.6793 8.42741C13.8859 8.91013 14.0003 9.44171 14.0003 10Z"
     fill="#454546"
     id="path4" />
  <path
     fill-rule="evenodd"
     clip-rule="evenodd"
     d="M8.53033 11.4297C8.23744 11.1369 8.23744 10.662 8.53033 10.3691L17.3692 1.53025C17.6621 1.23736 18.1369 1.23736 18.4298 1.53025C18.7227 1.82314 18.7227 2.29802 18.4298 2.59091L9.59099 11.4297C9.2981 11.7226 8.82322 11.7226 8.53033 11.4297Z"
     fill="#454546"
     id="path6" />
  <path
     fill-rule="evenodd"
     clip-rule="evenodd"
     d="M0.53033 19.4297C0.237437 19.1369 0.237437 18.662 0.53033 18.3691L9.36916 9.53025C9.66206 9.23736 10.1369 9.23736 10.4298 9.53025C10.7227 9.82314 10.7227 10.298 10.4298 10.5909L1.59099 19.4297C1.2981 19.7226 0.823223 19.7226 0.53033 19.4297Z"
     fill="#454546"
     id="path8" />
</svg>
