<?xml version="1.0" encoding="UTF-8"?>
<svg id="Capa_1" data-name="Capa 1" xmlns="http://www.w3.org/2000/svg" viewBox="0 0 24 24">
  <defs>
    <style>
      .cls-1 {
        stroke: #000;
        stroke-miterlimit: 10;
        stroke-width: .25px;
      }

      .cls-1, .cls-2 {
        fill-rule: evenodd;
      }

      .cls-3 {
        fill: none;
      }
    </style>
  </defs>
  <g>
    <rect id="Rectangle" class="cls-3" x="11" y="4.56" width="13" height="13"/>
    <path class="cls-1" d="m17.5,7.27c.22,0,.41.18.41.41v2.98h2.98c.22,0,.41.18.41.41s-.18.41-.41.41h-2.98v2.98c0,.22-.18.41-.41.41s-.41-.18-.41-.41v-2.98h-2.98c-.22,0-.41-.18-.41-.41s.18-.41.41-.41h2.98v-2.98c0-.22.18-.41.41-.41Z"/>
  </g>
  <path class="cls-2" d="m2.31,9.81c0-1.3,1.05-2.35,2.35-2.35h8.99c1.3,0,2.35,1.05,2.35,2.35v7.27c0,1.3-1.05,2.35-2.35,2.35H4.66c-1.3,0-2.35-1.05-2.35-2.35v-7.27Zm2.35-1.07c-.59,0-1.07.48-1.07,1.07v4.34l2.37-2.37c.25-.25.66-.25.91,0l3.5,3.5,2.29-2.29c.12-.12.28-.19.45-.19s.33.07.45.19l1.16,1.16v-4.34c0-.59-.48-1.07-1.07-1.07H4.66Zm10.05,7.23l-1.61-1.61-2.27,2.27c-.13.13-.3.19-.47.19-.17,0-.34-.06-.47-.19l-3.48-3.48-2.82,2.82v1.12c0,.59.48,1.07,1.07,1.07h8.99c.59,0,1.07-.48,1.07-1.07v-1.12Zm-3.85-5.51c-.24,0-.43.19-.43.43s.19.43.43.43.43-.19.43-.43-.19-.43-.43-.43Zm-1.71.43c0-.95.77-1.71,1.71-1.71s1.71.77,1.71,1.71-.77,1.71-1.71,1.71-1.71-.77-1.71-1.71Z"/>
</svg>
