<svg width="39" height="39" viewBox="0 0 39 39" fill="none" xmlns="http://www.w3.org/2000/svg">
<path id="Vector (Stroke)" fill-rule="evenodd" clip-rule="evenodd" d="M19.5 3.25C10.5254 3.25 3.25 10.5254 3.25 19.5C3.25 28.4746 10.5254 35.75 19.5 35.75C28.4746 35.75 35.75 28.4746 35.75 19.5C35.75 10.5254 28.4746 3.25 19.5 3.25ZM0 19.5C0 8.73045 8.73045 0 19.5 0C30.2696 0 39 8.73045 39 19.5C39 30.2696 30.2696 39 19.5 39C8.73045 39 0 30.2696 0 19.5ZM27.4662 11.1219C28.2042 11.6325 28.3886 12.6448 27.8781 13.3828L18.1354 27.4662C17.8378 27.8963 17.3515 28.1569 16.8286 28.1664C16.3057 28.1759 15.8102 27.9332 15.4972 27.5142L11.1565 21.7043C10.6194 20.9853 10.7668 19.967 11.4857 19.4299C12.2047 18.8927 13.223 19.0401 13.7601 19.7591L16.7483 23.7587L25.2053 11.5338C25.7159 10.7958 26.7281 10.6114 27.4662 11.1219Z" fill="#6F448C"/>
</svg>
