<svg width="20" height="20" viewBox="0 0 20 20" fill="none" xmlns="http://www.w3.org/2000/svg">
<g id="Preview-on">
<rect width="20" height="20" fill="white"/>
<path id="Union" fill-rule="evenodd" clip-rule="evenodd" d="M2.71068 9.10986C4.0768 6.36163 6.83588 4.5 10.0003 4.5C13.1647 4.5 15.9237 6.36163 17.2899 9.10986C17.5682 9.66971 17.5682 10.3303 17.2899 10.8901C15.9237 13.6384 13.1647 15.5 10.0003 15.5C6.83588 15.5 4.0768 13.6384 2.71068 10.8901C2.43238 10.3303 2.43238 9.66971 2.71068 9.10986ZM10.0003 3C6.22558 3 2.96834 5.22171 1.36748 8.44216C0.880112 9.4226 0.880112 10.5774 1.36748 11.5578C2.96834 14.7783 6.22558 17 10.0003 17C13.775 17 17.0322 14.7783 18.6331 11.5578C19.1204 10.5774 19.1204 9.4226 18.6331 8.44216C17.0322 5.22171 13.775 3 10.0003 3ZM14.0003 10C14.0003 12.2091 12.2094 14 10.0003 14C7.79116 14 6.00029 12.2091 6.00029 10C6.00029 7.79086 7.79116 6 10.0003 6C10.5586 6 11.0902 6.11438 11.5729 6.32098C11.2242 6.59564 11.0003 7.02168 11.0003 7.5C11.0003 8.32843 11.6719 9 12.5003 9C12.9786 9 13.4047 8.77611 13.6793 8.42741C13.8859 8.91013 14.0003 9.44171 14.0003 10Z" fill="#454546"/>
</g>
</svg>
