<svg width="22" height="22" viewBox="0 0 22 22" fill="none" xmlns="http://www.w3.org/2000/svg">
<g id="Add-large">
<path id="Vector 173 (Stroke)" fill-rule="evenodd" clip-rule="evenodd" d="M10.9998 3.30005C11.4554 3.30005 11.8248 3.66941 11.8248 4.12505V10.175H17.8748C18.3304 10.175 18.6998 10.5444 18.6998 11C18.6998 11.4557 18.3304 11.825 17.8748 11.825H11.8248V17.875C11.8248 18.3307 11.4554 18.7 10.9998 18.7C10.5442 18.7 10.1748 18.3307 10.1748 17.875V11.825H4.1248C3.66917 11.825 3.2998 11.4557 3.2998 11C3.2998 10.5444 3.66917 10.175 4.1248 10.175H10.1748V4.12505C10.1748 3.66941 10.5442 3.30005 10.9998 3.30005Z" fill="white"/>
</g>
</svg>
