<svg width="19" height="19" viewBox="0 0 19 19" fill="none" xmlns="http://www.w3.org/2000/svg">
<g id="Cross-large" clip-path="url(#clip0_1982_1394)">
<g id="Vector 174 (Stroke)" filter="url(#filter0_dd_1982_1394)">
<path fill-rule="evenodd" clip-rule="evenodd" d="M4.48408 4.48371C4.76233 4.20546 5.21346 4.20546 5.4917 4.48371L9.50039 8.4924L13.5091 4.48371C13.7873 4.20546 14.2385 4.20546 14.5167 4.48371C14.795 4.76196 14.795 5.21309 14.5167 5.49134L10.508 9.50002L14.5167 13.5087C14.795 13.787 14.795 14.2381 14.5167 14.5163C14.2385 14.7946 13.7873 14.7946 13.5091 14.5163L9.50039 10.5077L5.4917 14.5163C5.21346 14.7946 4.76233 14.7946 4.48408 14.5163C4.20583 14.2381 4.20583 13.787 4.48408 13.5087L8.49276 9.50002L4.48408 5.49134C4.20583 5.21309 4.20583 4.76196 4.48408 4.48371Z" fill="white"/>
</g>
</g>
<defs>
<filter id="filter0_dd_1982_1394" x="-2.72461" y="-0.724976" width="19.4502" height="18.45" filterUnits="userSpaceOnUse" color-interpolation-filters="sRGB">
<feFlood flood-opacity="0" result="BackgroundImageFix"/>
<feColorMatrix in="SourceAlpha" type="matrix" values="0 0 0 0 0 0 0 0 0 0 0 0 0 0 0 0 0 0 127 0" result="hardAlpha"/>
<feOffset dy="-1"/>
<feGaussianBlur stdDeviation="1"/>
<feComposite in2="hardAlpha" operator="out"/>
<feColorMatrix type="matrix" values="0 0 0 0 0 0 0 0 0 0 0 0 0 0 0 0 0 0 0.25 0"/>
<feBlend mode="normal" in2="BackgroundImageFix" result="effect1_dropShadow_1982_1394"/>
<feColorMatrix in="SourceAlpha" type="matrix" values="0 0 0 0 0 0 0 0 0 0 0 0 0 0 0 0 0 0 127 0" result="hardAlpha"/>
<feOffset dx="-3" dy="-1"/>
<feGaussianBlur stdDeviation="2"/>
<feComposite in2="hardAlpha" operator="out"/>
<feColorMatrix type="matrix" values="0 0 0 0 0 0 0 0 0 0 0 0 0 0 0 0 0 0 0.25 0"/>
<feBlend mode="normal" in2="effect1_dropShadow_1982_1394" result="effect2_dropShadow_1982_1394"/>
<feBlend mode="normal" in="SourceGraphic" in2="effect2_dropShadow_1982_1394" result="shape"/>
</filter>
<clipPath id="clip0_1982_1394">
<rect width="19" height="19" fill="white"/>
</clipPath>
</defs>
</svg>
