<svg width="20" height="20" viewBox="0 0 20 20" fill="none" xmlns="http://www.w3.org/2000/svg">
<path fill-rule="evenodd" clip-rule="evenodd" d="M6.5 2.75049C6.5 1.78399 7.2835 1.00049 8.25 1.00049H11.75C12.7165 1.00049 13.5 1.78399 13.5 2.75049V3.49927H15.25C16.2165 3.49927 17 4.28278 17 5.24927V6.74927C17 7.16349 16.6642 7.49927 16.25 7.49927H16V17.2493C16 18.2158 15.2165 18.9993 14.25 18.9993H5.75C4.7835 18.9993 4 18.2158 4 17.2493V7.49927H3.75C3.33579 7.49927 3 7.16349 3 6.74927V5.24927C3 4.28278 3.7835 3.49927 4.75 3.49927H6.5V2.75049ZM12 3.49927H8V2.75049C8 2.61242 8.11193 2.50049 8.25 2.50049H11.75C11.8881 2.50049 12 2.61242 12 2.75049V3.49927ZM7.20696 4.99927H4.75C4.61193 4.99927 4.5 5.1112 4.5 5.24927V5.99927H4.74915C4.74943 5.99927 4.74971 5.99927 4.75 5.99927H15.25C15.2503 5.99927 15.2506 5.99927 15.2509 5.99927H15.5V5.24927C15.5 5.1112 15.3881 4.99927 15.25 4.99927H12.793C12.7788 5.00008 12.7644 5.00049 12.75 5.00049H7.25C7.23556 5.00049 7.22121 5.00008 7.20696 4.99927ZM5.5 7.49927V17.2493C5.5 17.3873 5.61193 17.4993 5.75 17.4993H14.25C14.3881 17.4993 14.5 17.3873 14.5 17.2493V7.49927H5.5ZM7.5 8.99928C7.91421 8.99928 8.25 9.33506 8.25 9.74928V15.2493C8.25 15.6635 7.91421 15.9993 7.5 15.9993C7.08579 15.9993 6.75 15.6635 6.75 15.2493V9.74928C6.75 9.33506 7.08579 8.99928 7.5 8.99928ZM10 8.99928C10.4142 8.99928 10.75 9.33506 10.75 9.74928V15.2493C10.75 15.6635 10.4142 15.9993 10 15.9993C9.58579 15.9993 9.25 15.6635 9.25 15.2493V9.74928C9.25 9.33506 9.58579 8.99928 10 8.99928ZM12.5 8.99928C12.9142 8.99928 13.25 9.33506 13.25 9.74928V15.2493C13.25 15.6635 12.9142 15.9993 12.5 15.9993C12.0858 15.9993 11.75 15.6635 11.75 15.2493V9.74928C11.75 9.33506 12.0858 8.99928 12.5 8.99928Z" fill="white"/>
</svg>
