<svg width="20" height="20" viewBox="0 0 20 20" fill="none" xmlns="http://www.w3.org/2000/svg">
<path fill-rule="evenodd" clip-rule="evenodd" d="M10 3C10.4142 3 10.75 3.33579 10.75 3.75L10.75 12.4393L12.7197 10.4697C13.0126 10.1768 13.4874 10.1768 13.7803 10.4697C14.0732 10.7626 14.0732 11.2374 13.7803 11.5303L10.5303 14.7803C10.2374 15.0732 9.76256 15.0732 9.46967 14.7803L6.21967 11.5303C5.92678 11.2374 5.92678 10.7626 6.21967 10.4697C6.51256 10.1768 6.98744 10.1768 7.28033 10.4697L9.25 12.4393L9.25 3.75C9.25 3.33579 9.58578 3 10 3ZM4 16.25C4 15.8358 4.33579 15.5 4.75 15.5H15.25C15.6642 15.5 16 15.8358 16 16.25C16 16.6642 15.6642 17 15.25 17H4.75C4.33579 17 4 16.6642 4 16.25Z" fill="white"/>
</svg>
