<svg width="20" height="20" viewBox="0 0 20 20" fill="none" xmlns="http://www.w3.org/2000/svg">
<path fill-rule="evenodd" clip-rule="evenodd" d="M2 4.75C2 3.23122 3.23122 2 4.75 2H7.35901C8.13275 2 8.87069 2.32596 9.3918 2.8979L9.95942 3.52091C10.1963 3.78088 10.5317 3.92905 10.8834 3.92905H15.25C16.7688 3.92905 18 5.16026 18 6.67905V15.25C18 16.7688 16.7688 18 15.25 18H4.75C3.23122 18 2 16.7688 2 15.25V4.75ZM3.5 9.75V15.25C3.5 15.9404 4.05964 16.5 4.75 16.5H15.25C15.9404 16.5 16.5 15.9404 16.5 15.25V9.75C16.5 9.05964 15.9404 8.5 15.25 8.5H4.75C4.05964 8.5 3.5 9.05964 3.5 9.75ZM16.5 7.29985C16.125 7.10814 15.7001 7 15.25 7H4.75C4.29989 7 3.87503 7.10814 3.5 7.29985V4.75C3.5 4.05964 4.05964 3.5 4.75 3.5H7.35901C7.71071 3.5 8.04613 3.64816 8.283 3.90814L8.85063 4.53114C9.37174 5.10309 10.1097 5.42905 10.8834 5.42905H15.25C15.9404 5.42905 16.5 5.98869 16.5 6.67905V7.29985Z" fill="white"/>
</svg>
