<svg width="27" height="27" viewBox="0 0 27 27" fill="none" xmlns="http://www.w3.org/2000/svg">
<g id="Image">
<path id="Vector (Stroke)" fill-rule="evenodd" clip-rule="evenodd" d="M2.7002 7.76255C2.7002 5.71219 4.36234 4.05005 6.41269 4.05005H20.5877C22.6381 4.05005 24.3002 5.71219 24.3002 7.76255V19.2375C24.3002 21.2879 22.6381 22.95 20.5877 22.95H6.4127C4.36234 22.95 2.7002 21.2879 2.7002 19.2375V7.76255ZM6.41269 6.07505C5.48071 6.07505 4.7252 6.83057 4.7252 7.76255V14.6114L8.46168 10.8749C8.85709 10.4795 9.49817 10.4795 9.89357 10.8749L15.4094 16.3907L19.016 12.7841C19.2059 12.5942 19.4634 12.4875 19.732 12.4875C20.0005 12.4875 20.258 12.5942 20.4479 12.7841L22.2752 14.6114V7.76255C22.2752 6.83057 21.5197 6.07505 20.5877 6.07505H6.41269ZM22.2752 17.4752L19.732 14.9319L16.1522 18.5117C15.9477 18.7162 15.6774 18.8149 15.4094 18.8079C15.1414 18.8149 14.8711 18.7162 14.6665 18.5117L9.17763 13.0228L4.7252 17.4752V19.2375C4.7252 20.1695 5.48071 20.925 6.4127 20.925H20.5877C21.5197 20.925 22.2752 20.1695 22.2752 19.2375V17.4752ZM16.2002 8.77505C15.8274 8.77505 15.5252 9.07726 15.5252 9.45005C15.5252 9.82284 15.8274 10.125 16.2002 10.125C16.573 10.125 16.8752 9.82284 16.8752 9.45005C16.8752 9.07726 16.573 8.77505 16.2002 8.77505ZM13.5002 9.45005C13.5002 7.95888 14.709 6.75005 16.2002 6.75005C17.6914 6.75005 18.9002 7.95888 18.9002 9.45005C18.9002 10.9412 17.6914 12.15 16.2002 12.15C14.709 12.15 13.5002 10.9412 13.5002 9.45005Z" fill="#454546"/>
</g>
</svg>
