<svg width="16" height="16" viewBox="0 0 16 16" fill="none" xmlns="http://www.w3.org/2000/svg">
<g id="Location-marker">
<rect width="16" height="16" fill="white"/>
<path id="Vector (Stroke)" fill-rule="evenodd" clip-rule="evenodd" d="M8.00039 1.9998C5.61298 1.9998 3.60039 4.10452 3.60039 6.7998C3.60039 8.14565 4.1802 9.52467 4.97905 10.7748C5.77298 12.0173 6.74765 13.0773 7.45633 13.7722C7.76573 14.0756 8.23505 14.0756 8.54445 13.7722C9.25313 13.0773 10.2278 12.0173 11.0217 10.7748C11.8206 9.52467 12.4004 8.14565 12.4004 6.7998C12.4004 4.10452 10.3878 1.9998 8.00039 1.9998ZM2.40039 6.7998C2.40039 3.53041 4.86495 0.799805 8.00039 0.799805C11.1358 0.799805 13.6004 3.53041 13.6004 6.7998C13.6004 8.47264 12.8888 10.0816 12.0329 11.421C11.1722 12.768 10.1289 13.8992 9.38463 14.629C8.60857 15.39 7.39221 15.39 6.61615 14.629C5.87187 13.8992 4.82861 12.768 3.96786 11.421C3.11202 10.0816 2.40039 8.47264 2.40039 6.7998ZM8.00039 5.2032C7.33765 5.2032 6.80039 5.74046 6.80039 6.4032C6.80039 7.06594 7.33765 7.6032 8.00039 7.6032C8.66313 7.6032 9.20039 7.06594 9.20039 6.4032C9.20039 5.74046 8.66313 5.2032 8.00039 5.2032ZM5.60039 6.4032C5.60039 5.07771 6.67491 4.0032 8.00039 4.0032C9.32587 4.0032 10.4004 5.07771 10.4004 6.4032C10.4004 7.72868 9.32587 8.8032 8.00039 8.8032C6.67491 8.8032 5.60039 7.72868 5.60039 6.4032Z" fill="#454546"/>
</g>
</svg>
