<?xml version="1.0" encoding="UTF-8" standalone="no"?>
<svg
   xmlns:dc="http://purl.org/dc/elements/1.1/"
   xmlns:cc="http://creativecommons.org/ns#"
   xmlns:rdf="http://www.w3.org/1999/02/22-rdf-syntax-ns#"
   xmlns:svg="http://www.w3.org/2000/svg"
   xmlns="http://www.w3.org/2000/svg"
   xmlns:sodipodi="http://sodipodi.sourceforge.net/DTD/sodipodi-0.dtd"
   xmlns:inkscape="http://www.inkscape.org/namespaces/inkscape"
   width="15"
   height="22"
   viewBox="0 0 15 22"
   fill="none"
   version="1.1"
   id="svg3"
   sodipodi:docname="marker-0.svg"
   inkscape:version="1.0.2 (e86c870879, 2021-01-15)">
  <metadata
     id="metadata9">
    <rdf:RDF>
      <cc:Work
         rdf:about="">
        <dc:format>image/svg+xml</dc:format>
        <dc:type
           rdf:resource="http://purl.org/dc/dcmitype/StillImage" />
      </cc:Work>
    </rdf:RDF>
  </metadata>
  <defs
     id="defs7" />
  <sodipodi:namedview
     pagecolor="#ffffff"
     bordercolor="#666666"
     borderopacity="1"
     objecttolerance="10"
     gridtolerance="10"
     guidetolerance="10"
     inkscape:pageopacity="0"
     inkscape:pageshadow="2"
     inkscape:window-width="1920"
     inkscape:window-height="973"
     id="namedview5"
     showgrid="false"
     inkscape:zoom="21.909091"
     inkscape:cx="7.5"
     inkscape:cy="11"
     inkscape:window-x="0"
     inkscape:window-y="0"
     inkscape:window-maximized="1"
     inkscape:current-layer="svg3" />
  <ellipse
     style="fill:#ffffff;fill-rule:evenodd"
     id="path11"
     cx="7.3914275"
     cy="7.2053781"
     rx="3.6114254"
     ry="3.6633978" />
  <path
     id="Vector"
     d="M7.852 0H7.137C3.19583 0 0 3.19583 0 7.137C0 8.7685 1.08983 11.5483 2.093 12.987L7.49017 21.2593H7.49667L12.8938 12.987C13.8992 11.5483 14.9868 8.76633 14.9868 7.137C14.9868 3.19583 11.7932 0 7.852 0ZM7.4945 10.569C5.681 10.569 4.20983 9.09783 4.20983 7.28433C4.20983 5.47083 5.681 3.99967 7.4945 3.99967C9.308 3.99967 10.7792 5.47083 10.7792 7.28433C10.7792 9.09783 9.308 10.569 7.4945 10.569Z"
     fill="#E74810" />
</svg>
