<svg width="15" height="22" viewBox="0 0 15 22" fill="none" xmlns="http://www.w3.org/2000/svg">
<path id="Vector" d="M7.852 0H7.137C3.19583 0 0 3.19583 0 7.137C0 8.7685 1.08983 11.5483 2.093 12.987L7.49017 21.2593H7.49667L12.8938 12.987C13.8992 11.5483 14.9868 8.76633 14.9868 7.137C14.9868 3.19583 11.7932 0 7.852 0ZM7.4945 10.569C5.681 10.569 4.20983 9.09783 4.20983 7.28433C4.20983 5.47083 5.681 3.99967 7.4945 3.99967C9.308 3.99967 10.7792 5.47083 10.7792 7.28433C10.7792 9.09783 9.308 10.569 7.4945 10.569Z" fill="#C1368C"/>
</svg>
