<svg width="11" height="14" viewBox="0 0 11 14" fill="none" xmlns="http://www.w3.org/2000/svg">
<path d="M3.8125 10.657C3.9732 10.657 4.13029 10.7077 4.2639 10.8027C4.39752 10.8977 4.50166 11.0327 4.56315 11.1906C4.62465 11.3485 4.64074 11.5223 4.60939 11.69C4.57804 11.8577 4.50065 12.0117 4.38702 12.1326C4.27339 12.2535 4.12862 12.3358 3.97101 12.3691C3.8134 12.4025 3.65003 12.3854 3.50157 12.3199C3.3531 12.2545 3.22621 12.1437 3.13693 12.0016C3.04765 11.8595 3 11.6923 3 11.5214C3 11.2921 3.0856 11.0723 3.23798 10.9102C3.39035 10.7481 3.59701 10.657 3.8125 10.657Z" fill="#979797"/>
<path d="M3.8125 7.46561C3.9732 7.46561 4.13029 7.51631 4.2639 7.61128C4.39752 7.70626 4.50166 7.84126 4.56315 7.9992C4.62465 8.15714 4.64074 8.33093 4.60939 8.4986C4.57804 8.66627 4.50065 8.82029 4.38702 8.94117C4.27339 9.06205 4.12862 9.14438 3.97101 9.17773C3.8134 9.21108 3.65003 9.19396 3.50157 9.12854C3.3531 9.06312 3.22621 8.95233 3.13693 8.81019C3.04765 8.66804 3 8.50093 3 8.32997C3 8.10073 3.0856 7.88088 3.23798 7.71878C3.39035 7.55668 3.59701 7.46561 3.8125 7.46561Z" fill="#979797"/>
<path d="M3.8125 4.27372C3.9732 4.27372 4.13029 4.32441 4.2639 4.41939C4.39752 4.51437 4.50166 4.64936 4.56315 4.8073C4.62465 4.96524 4.64074 5.13904 4.60939 5.30671C4.57804 5.47438 4.50065 5.62839 4.38702 5.74927C4.27339 5.87016 4.12862 5.95248 3.97101 5.98583C3.8134 6.01918 3.65003 6.00207 3.50157 5.93664C3.3531 5.87122 3.22621 5.76044 3.13693 5.61829C3.04765 5.47615 3 5.30903 3 5.13808C3 4.90884 3.0856 4.68898 3.23798 4.52688C3.39035 4.36478 3.59701 4.27372 3.8125 4.27372Z" fill="#979797"/>
<path d="M3.8125 1.14872C3.9732 1.14872 4.13029 1.19941 4.2639 1.29439C4.39752 1.38937 4.50166 1.52436 4.56315 1.6823C4.62465 1.84024 4.64074 2.01404 4.60939 2.18171C4.57804 2.34938 4.50065 2.50339 4.38702 2.62427C4.27339 2.74516 4.12862 2.82748 3.97101 2.86083C3.8134 2.89418 3.65003 2.87707 3.50157 2.81164C3.3531 2.74622 3.22621 2.63544 3.13693 2.49329C3.04765 2.35115 3 2.18403 3 2.01308C3 1.78384 3.0856 1.56398 3.23798 1.40188C3.39035 1.23978 3.59701 1.14872 3.8125 1.14872Z" fill="#979797"/>
<path d="M6.8125 10.657C6.9732 10.657 7.13029 10.7077 7.2639 10.8027C7.39752 10.8977 7.50166 11.0327 7.56315 11.1906C7.62465 11.3485 7.64074 11.5223 7.60939 11.69C7.57804 11.8577 7.50065 12.0117 7.38702 12.1326C7.27339 12.2535 7.12862 12.3358 6.97101 12.3691C6.8134 12.4025 6.65003 12.3854 6.50157 12.3199C6.3531 12.2545 6.22621 12.1437 6.13693 12.0016C6.04765 11.8595 6 11.6923 6 11.5214C6 11.2921 6.0856 11.0723 6.23798 10.9102C6.39035 10.7481 6.59701 10.657 6.8125 10.657Z" fill="#979797"/>
<path d="M6.8125 7.46561C6.9732 7.46561 7.13029 7.51631 7.2639 7.61128C7.39752 7.70626 7.50166 7.84126 7.56315 7.9992C7.62465 8.15714 7.64074 8.33093 7.60939 8.4986C7.57804 8.66627 7.50065 8.82029 7.38702 8.94117C7.27339 9.06205 7.12862 9.14438 6.97101 9.17773C6.8134 9.21108 6.65003 9.19396 6.50157 9.12854C6.3531 9.06312 6.22621 8.95233 6.13693 8.81019C6.04765 8.66804 6 8.50093 6 8.32997C6 8.10073 6.0856 7.88088 6.23798 7.71878C6.39035 7.55668 6.59701 7.46561 6.8125 7.46561Z" fill="#979797"/>
<path d="M6.8125 4.27372C6.9732 4.27372 7.13029 4.32441 7.2639 4.41939C7.39752 4.51437 7.50166 4.64936 7.56315 4.8073C7.62465 4.96524 7.64074 5.13904 7.60939 5.30671C7.57804 5.47438 7.50065 5.62839 7.38702 5.74927C7.27339 5.87016 7.12862 5.95248 6.97101 5.98583C6.8134 6.01918 6.65003 6.00207 6.50157 5.93664C6.3531 5.87122 6.22621 5.76044 6.13693 5.61829C6.04765 5.47615 6 5.30903 6 5.13808C6 4.90884 6.0856 4.68898 6.23798 4.52688C6.39035 4.36478 6.59701 4.27372 6.8125 4.27372Z" fill="#979797"/>
<path d="M6.8125 1.14872C6.9732 1.14872 7.13029 1.19941 7.2639 1.29439C7.39752 1.38937 7.50166 1.52436 7.56315 1.6823C7.62465 1.84024 7.64074 2.01404 7.60939 2.18171C7.57804 2.34938 7.50065 2.50339 7.38702 2.62427C7.27339 2.74516 7.12862 2.82748 6.97101 2.86083C6.8134 2.89418 6.65003 2.87707 6.50157 2.81164C6.3531 2.74622 6.22621 2.63544 6.13693 2.49329C6.04765 2.35115 6 2.18403 6 2.01308C6 1.78384 6.0856 1.56398 6.23798 1.40188C6.39035 1.23978 6.59701 1.14872 6.8125 1.14872Z" fill="#979797"/>
</svg>
