<svg width="20" height="20" viewBox="0 0 20 20" fill="none" xmlns="http://www.w3.org/2000/svg">
<path d="M14.25 8.5C14.6642 8.5 15 8.16421 15 7.75C15 7.33579 14.6642 7 14.25 7C13.8358 7 13.5 7.33579 13.5 7.75C13.5 8.16421 13.8358 8.5 14.25 8.5Z" fill="white"/>
<path fill-rule="evenodd" clip-rule="evenodd" d="M5.75 2C5.33579 2 5 2.33579 5 2.75V5H3.75C2.7835 5 2 5.7835 2 6.75V13.25C2 14.2165 2.7835 15 3.75 15H5V17.25C5 17.6642 5.33579 18 5.75 18H14.25C14.6642 18 15 17.6642 15 17.25V15H16.25C17.2165 15 18 14.2165 18 13.25V6.75C18 5.7835 17.2165 5 16.25 5H15V2.75C15 2.33579 14.6642 2 14.25 2H5.75ZM13.5 5H6.5V3.5H13.5V5ZM3.75 6.5H16.25C16.3881 6.5 16.5 6.61193 16.5 6.75V13.25C16.5 13.3881 16.3881 13.5 16.25 13.5H15V10.75C15 10.3358 14.6642 10 14.25 10H5.75C5.33579 10 5 10.3358 5 10.75V13.5H3.75C3.61193 13.5 3.5 13.3881 3.5 13.25V6.75C3.5 6.61193 3.61193 6.5 3.75 6.5ZM6.5 11.5H13.5V16.5H6.5V11.5Z" fill="white"/>
</svg>
