<svg width="20" height="20" viewBox="0 0 20 20" fill="none" xmlns="http://www.w3.org/2000/svg">
<path fill-rule="evenodd" clip-rule="evenodd" d="M14.5043 12.5939H13.6343L13.3259 12.2979C14.4052 11.048 15.055 9.42525 15.055 7.66C15.055 3.72382 11.85 0.533203 7.89616 0.533203C3.94227 0.533203 0.737305 3.72382 0.737305 7.66C0.737305 11.5962 3.94227 14.7868 7.89616 14.7868C9.66935 14.7868 11.2994 14.1399 12.5549 13.0654L12.8523 13.3724V14.2386L18.3591 19.7098L20.0001 18.0761L14.5043 12.5939ZM7.89656 12.5939C5.15417 12.5939 2.94043 10.3901 2.94043 7.66001C2.94043 4.9299 5.15417 2.72607 7.89656 2.72607C10.6389 2.72607 12.8527 4.9299 12.8527 7.66001C12.8527 10.3901 10.6389 12.5939 7.89656 12.5939Z" fill="#454546"/>
</svg>
