<svg width="29" height="24" viewBox="0 0 29 24" fill="none" xmlns="http://www.w3.org/2000/svg">
<rect x="3" y="5.44678" width="26" height="11.9149" rx="5.95745" fill="#979797"/>
<g filter="url(#filter0_ddd_2103_3658)">
<path fill-rule="evenodd" clip-rule="evenodd" d="M10.6471 19.9148C14.8704 19.9148 18.2941 16.1045 18.2941 11.4042C18.2941 6.7039 14.8704 2.89355 10.6471 2.89355C6.4237 2.89355 3 6.7039 3 11.4042C3 16.1045 6.4237 19.9148 10.6471 19.9148Z" fill="#212121" fill-opacity="0.08"/>
</g>
<path fill-rule="evenodd" clip-rule="evenodd" d="M10.6471 19.9148C14.8704 19.9148 18.2941 16.1045 18.2941 11.4042C18.2941 6.7039 14.8704 2.89355 10.6471 2.89355C6.4237 2.89355 3 6.7039 3 11.4042C3 16.1045 6.4237 19.9148 10.6471 19.9148Z" fill="white"/>
<defs>
<filter id="filter0_ddd_2103_3658" x="0" y="0.893555" width="21.2939" height="23.0215" filterUnits="userSpaceOnUse" color-interpolation-filters="sRGB">
<feFlood flood-opacity="0" result="BackgroundImageFix"/>
<feColorMatrix in="SourceAlpha" type="matrix" values="0 0 0 0 0 0 0 0 0 0 0 0 0 0 0 0 0 0 127 0" result="hardAlpha"/>
<feOffset dy="1"/>
<feGaussianBlur stdDeviation="1.5"/>
<feColorMatrix type="matrix" values="0 0 0 0 0 0 0 0 0 0 0 0 0 0 0 0 0 0 0.2 0"/>
<feBlend mode="normal" in2="BackgroundImageFix" result="effect1_dropShadow_2103_3658"/>
<feColorMatrix in="SourceAlpha" type="matrix" values="0 0 0 0 0 0 0 0 0 0 0 0 0 0 0 0 0 0 127 0" result="hardAlpha"/>
<feOffset dy="2"/>
<feGaussianBlur stdDeviation="0.5"/>
<feColorMatrix type="matrix" values="0 0 0 0 0 0 0 0 0 0 0 0 0 0 0 0 0 0 0.12 0"/>
<feBlend mode="normal" in2="effect1_dropShadow_2103_3658" result="effect2_dropShadow_2103_3658"/>
<feColorMatrix in="SourceAlpha" type="matrix" values="0 0 0 0 0 0 0 0 0 0 0 0 0 0 0 0 0 0 127 0" result="hardAlpha"/>
<feOffset dy="1"/>
<feGaussianBlur stdDeviation="0.5"/>
<feColorMatrix type="matrix" values="0 0 0 0 0 0 0 0 0 0 0 0 0 0 0 0 0 0 0.14 0"/>
<feBlend mode="normal" in2="effect2_dropShadow_2103_3658" result="effect3_dropShadow_2103_3658"/>
<feBlend mode="normal" in="SourceGraphic" in2="effect3_dropShadow_2103_3658" result="shape"/>
</filter>
</defs>
</svg>
