<svg width="29" height="22" viewBox="0 0 29 22" fill="none" xmlns="http://www.w3.org/2000/svg">
<rect x="26" y="15.6001" width="26" height="11.2" rx="5.6" transform="rotate(-180 26 15.6001)" fill="#6F448C"/>
<g filter="url(#filter0_ddd_2094_1821)">
<path fill-rule="evenodd" clip-rule="evenodd" d="M18.3529 2C14.1296 2 10.7059 5.58172 10.7059 10C10.7059 14.4183 14.1296 18 18.3529 18C22.5763 18 26 14.4183 26 10C26 5.58172 22.5763 2 18.3529 2Z" fill="#212121" fill-opacity="0.08"/>
</g>
<path fill-rule="evenodd" clip-rule="evenodd" d="M18.3529 2C14.1296 2 10.7059 5.58172 10.7059 10C10.7059 14.4183 14.1296 18 18.3529 18C22.5763 18 26 14.4183 26 10C26 5.58172 22.5763 2 18.3529 2Z" fill="white"/>
<defs>
<filter id="filter0_ddd_2094_1821" x="7.70605" y="0" width="21.2939" height="22" filterUnits="userSpaceOnUse" color-interpolation-filters="sRGB">
<feFlood flood-opacity="0" result="BackgroundImageFix"/>
<feColorMatrix in="SourceAlpha" type="matrix" values="0 0 0 0 0 0 0 0 0 0 0 0 0 0 0 0 0 0 127 0" result="hardAlpha"/>
<feOffset dy="1"/>
<feGaussianBlur stdDeviation="1.5"/>
<feColorMatrix type="matrix" values="0 0 0 0 0 0 0 0 0 0 0 0 0 0 0 0 0 0 0.2 0"/>
<feBlend mode="normal" in2="BackgroundImageFix" result="effect1_dropShadow_2094_1821"/>
<feColorMatrix in="SourceAlpha" type="matrix" values="0 0 0 0 0 0 0 0 0 0 0 0 0 0 0 0 0 0 127 0" result="hardAlpha"/>
<feOffset dy="2"/>
<feGaussianBlur stdDeviation="0.5"/>
<feColorMatrix type="matrix" values="0 0 0 0 0 0 0 0 0 0 0 0 0 0 0 0 0 0 0.12 0"/>
<feBlend mode="normal" in2="effect1_dropShadow_2094_1821" result="effect2_dropShadow_2094_1821"/>
<feColorMatrix in="SourceAlpha" type="matrix" values="0 0 0 0 0 0 0 0 0 0 0 0 0 0 0 0 0 0 127 0" result="hardAlpha"/>
<feOffset dy="1"/>
<feGaussianBlur stdDeviation="0.5"/>
<feColorMatrix type="matrix" values="0 0 0 0 0 0 0 0 0 0 0 0 0 0 0 0 0 0 0.14 0"/>
<feBlend mode="normal" in2="effect2_dropShadow_2094_1821" result="effect3_dropShadow_2094_1821"/>
<feBlend mode="normal" in="SourceGraphic" in2="effect3_dropShadow_2094_1821" result="shape"/>
</filter>
</defs>
</svg>
