<svg width="25" height="25" viewBox="0 0 25 25" fill="none" xmlns="http://www.w3.org/2000/svg">
<rect width="25" height="25" fill="white"/>
<path fill-rule="evenodd" clip-rule="evenodd" d="M8.125 3.43848C8.125 2.23035 9.10438 1.25098 10.3125 1.25098H14.6875C15.8956 1.25098 16.875 2.23035 16.875 3.43848V4.37446H19.0625C20.2706 4.37446 21.25 5.35384 21.25 6.56196V8.43696C21.25 8.95473 20.8303 9.37446 20.3125 9.37446H20V21.562C20 22.7701 19.0206 23.7495 17.8125 23.7495H7.1875C5.97938 23.7495 5 22.7701 5 21.562V9.37446H4.6875C4.16973 9.37446 3.75 8.95473 3.75 8.43696V6.56196C3.75 5.35384 4.72938 4.37446 5.9375 4.37446H8.125V3.43848ZM15 4.37446H10V3.43848C10 3.26589 10.1399 3.12598 10.3125 3.12598H14.6875C14.8601 3.12598 15 3.26589 15 3.43848V4.37446ZM9.00871 6.24946H5.9375C5.76491 6.24946 5.625 6.38937 5.625 6.56196V7.49946H5.93643C5.93679 7.49946 5.93714 7.49946 5.9375 7.49946H19.0625C19.0629 7.49946 19.0632 7.49946 19.0636 7.49946H19.375V6.56196C19.375 6.38937 19.2351 6.24946 19.0625 6.24946H15.9913C15.9735 6.25047 15.9556 6.25098 15.9375 6.25098H9.0625C9.04444 6.25098 9.02651 6.25047 9.00871 6.24946ZM6.875 9.37446V21.562C6.875 21.7345 7.01491 21.8745 7.1875 21.8745H17.8125C17.9851 21.8745 18.125 21.7345 18.125 21.562V9.37446H6.875ZM9.375 11.2495C9.89277 11.2495 10.3125 11.6692 10.3125 12.187V19.062C10.3125 19.5797 9.89277 19.9995 9.375 19.9995C8.85723 19.9995 8.4375 19.5797 8.4375 19.062V12.187C8.4375 11.6692 8.85723 11.2495 9.375 11.2495ZM12.5 11.2495C13.0178 11.2495 13.4375 11.6692 13.4375 12.187V19.062C13.4375 19.5797 13.0178 19.9995 12.5 19.9995C11.9822 19.9995 11.5625 19.5797 11.5625 19.062V12.187C11.5625 11.6692 11.9822 11.2495 12.5 11.2495ZM15.625 11.2495C16.1428 11.2495 16.5625 11.6692 16.5625 12.187V19.062C16.5625 19.5797 16.1428 19.9995 15.625 19.9995C15.1072 19.9995 14.6875 19.5797 14.6875 19.062V12.187C14.6875 11.6692 15.1072 11.2495 15.625 11.2495Z" fill="#979797"/>
</svg>
