<svg width="23" height="23" viewBox="0 0 23 23" fill="none" xmlns="http://www.w3.org/2000/svg">
<path fill-rule="evenodd" clip-rule="evenodd" d="M11.5004 19.55C11.024 19.55 10.6379 19.1639 10.6379 18.6875L10.6379 8.69481L8.37277 10.9599C8.03594 11.2968 7.48984 11.2968 7.15301 10.9599C6.81618 10.6231 6.81618 10.077 7.15301 9.74017L10.8905 6.00267C11.2273 5.66584 11.7734 5.66584 12.1103 6.00267L15.8478 9.74017C16.1846 10.077 16.1846 10.6231 15.8478 10.9599C15.5109 11.2968 14.9648 11.2968 14.628 10.9599L12.3629 8.69481L12.3629 18.6875C12.3629 19.1639 11.9767 19.55 11.5004 19.55ZM18.4004 4.31255C18.4004 4.7889 18.0142 5.17505 17.5379 5.17505L5.46289 5.17505C4.98655 5.17505 4.60039 4.78889 4.60039 4.31255C4.60039 3.8362 4.98655 3.45005 5.46289 3.45005L17.5379 3.45005C18.0142 3.45005 18.4004 3.83621 18.4004 4.31255Z" fill="white"/>
</svg>
