<?xml version="1.0" encoding="UTF-8"?>
<svg id="Layer_2" data-name="Layer 2" xmlns="http://www.w3.org/2000/svg" viewBox="0 0 800 273.76">
  <defs>
    <style>
      .cls-1 {
        fill: #fff;
      }

      .cls-2 {
        fill: #032649;
      }
    </style>
  </defs>
  <g id="Capa_2" data-name="Capa 2">
    <g>
      <path class="cls-1" d="M800,152.42c-3.66-.05-7.32-.07-10.98-.17-7-.18-9.33-2.47-9.41-9.3-.05-3.63,0-7.27,0-11.92-1.8,1.51-3,2.47-4.15,3.49-40.61,36.17-105.36,19.62-122.08-31.2-15.09-45.85,14.97-93.81,62.86-99.06,43.16-4.73,75.55,23.7,82.82,60.71.25,1.29.64,2.55.96,3.83v83.61ZM724.9,133.31c30.55-.46,54.35-22.3,54.58-54.72.21-29.71-24.66-54.12-54.44-54.23-30.86-.12-54.86,23.74-54.85,54.52.01,29.97,24.61,54.44,54.71,54.44Z"/>
      <path class="cls-1" d="M0,47.91c4.59-8.22,8.58-16.85,13.93-24.55C20.54,13.84,29.71,6.79,40.09,1.47c5.58-2.86,8.43-1.62,9.94,4.32,1.17,4.63,2.16,9.31,3.28,14.21-1.52.92-2.75,1.71-4.02,2.43-11.86,6.72-20.62,16.23-25.54,28.92-1.43,3.68-3.23,5.38-7.3,4.85-2.95-.39-5.99-.27-8.99-.16C4.43,56.14,1.9,55.32,0,52.88,0,51.22,0,49.56,0,47.91Z"/>
      <path class="cls-1" d="M357.4,130.9c0,15.91.01,30.66,0,45.42,0,8.42-1.79,10.16-10.27,10.18-3.13,0-6.25,0-9.88,0-.17-2.32-.4-4.08-.4-5.83-.03-34.34-.14-68.68,0-103.01.15-40.33,32.69-73,73.27-73.79,38.7-.76,71.54,26.26,76.64,64.5,6.68,50.02-31.5,85.06-72.6,85.5-20.74.22-38.46-6.62-53.7-20.37-.71-.64-1.47-1.25-3.06-2.59ZM466.8,78.64c-.05-29.86-24.89-54.72-54.9-54.21-31.59.55-53.97,23.04-54.36,54.41-.37,29.96,24.57,54.44,54.64,54.47,30.87.04,54.67-23.79,54.62-54.67Z"/>
      <path class="cls-1" d="M308.12,151.92c-5.56,0-10.21.36-14.77-.11-3.99-.41-5.91-3.22-6.13-7.85-.17-3.76-.04-7.53-.04-12.59-2.75,2.25-4.49,3.66-6.23,5.09-28.02,23.03-67.61,23.59-95.96,1.02-16.45-13.09-25.14-30.46-27.32-51.28-4.03-38.51,22.89-72.78,58.67-80.73,43.03-9.55,85.01,19.26,90.9,62.74.53,3.93.81,7.92.83,11.88.08,21.56.04,43.12.04,64.69,0,2.13,0,4.25,0,7.15ZM287.12,78.72c-.13-30.11-24.77-54.62-54.65-54.36-31.09.27-54.48,23.9-54.35,54.9.13,29.94,24.84,54.23,54.99,54.05,30.77-.18,54.14-23.81,54.01-54.59Z"/>
      <path class="cls-1" d="M636.21,122.92c-14.5,21.71-46.42,37.57-80.15,28.44-32.96-8.92-56.05-38.66-55.84-72.33.23-36.54,23.62-63.68,54.21-72.35,32.42-9.19,64.62,4.71,79.09,24.93-4.11,3.37-8.12,7.02-12.53,10.12-2.55,1.79-5.02.22-7.1-1.77-7.5-7.16-16.29-11.95-26.47-14.24-29.64-6.66-59.26,12.09-65.09,41.26-6.21,31.1,13.43,60.32,44.03,65.42,18.8,3.13,34.86-2.5,48.43-15.52,5.47-5.24,6.05-5.4,12.1-.94,3.06,2.26,6.08,4.55,9.32,6.98Z"/>
      <path class="cls-1" d="M24.64,60.47c5.01-18.17,16.32-30.51,33.15-37.95-.87-4.42-1.66-8.43-2.42-12.32,26.24-12.86,65.85-5.08,86.5,21.82-4.45,3.48-8.78,7.26-13.56,10.33-1.14.73-4.06-.47-5.7-1.51-2.64-1.68-4.73-4.21-7.34-5.95-19.28-12.84-39.52-13.66-59.46-2.49-19.62,10.99-27.99,29.11-26.34,50.99,1.67,22.26,13.62,38.44,34.61,46.44,21.31,8.11,40.91,3.82,57.82-11.66.98-.9,1.87-1.89,2.8-2.84,2.32-2.35,4.93-2.73,7.64-.82,3.93,2.76,7.76,5.66,12.07,8.82-1.09,1.6-1.84,3.04-2.9,4.2-21.57,23.61-48.09,32.74-78.98,23.61-30.37-8.97-48.23-30.4-53.26-61.52-1.32-8.16.27-16.79.59-25.2.14-3.58,2.19-4.86,5.66-4.49,2.79.3,5.61.35,9.13.55Z"/>
    </g>
    <g>
      <rect class="cls-1" x="69.5" y="206.62" width="659" height="67.14" rx="33.57" ry="33.57"/>
      <g>
        <path class="cls-2" d="M123.15,252.12c-.16,0-.3-.06-.42-.18s-.18-.26-.18-.42c0-.1,0-.21.03-.33l7.44-19.41c.08-.2.19-.36.33-.48.14-.12.35-.18.63-.18h2.04c.28,0,.49.06.63.18.14.12.25.28.33.48l7.41,19.41c.04.12.06.23.06.33,0,.16-.06.3-.18.42s-.26.18-.42.18h-1.53c-.24,0-.42-.06-.53-.18s-.18-.23-.22-.33l-1.65-4.26h-9.84l-1.65,4.26c-.02.1-.09.21-.21.33-.12.12-.3.18-.54.18h-1.53ZM127.95,244.77h8.1l-4.05-10.65-4.05,10.65Z"/>
        <path class="cls-2" d="M146.1,252.12c-.22,0-.39-.06-.51-.2-.12-.13-.18-.29-.18-.5v-19.59c0-.22.06-.39.18-.52s.29-.2.51-.2h1.38c.24,0,.42.06.54.17.12.11.19.2.21.25l9.96,15.3v-15c0-.22.06-.39.18-.52s.29-.2.51-.2h1.44c.22,0,.4.07.53.2s.2.3.2.52v19.56c0,.2-.07.37-.2.51s-.29.21-.5.21h-1.44c-.22,0-.39-.06-.5-.18-.11-.12-.19-.2-.23-.24l-9.93-15.15v14.88c0,.2-.07.37-.2.5-.13.13-.3.2-.52.2h-1.44Z"/>
        <path class="cls-2" d="M172.29,252.12c-.2,0-.37-.06-.5-.2-.13-.13-.19-.29-.19-.5v-17.64h-5.76c-.2,0-.37-.06-.5-.2-.13-.13-.2-.29-.2-.49v-1.26c0-.22.06-.39.2-.52.13-.13.29-.2.5-.2h14.46c.22,0,.39.07.52.2s.2.3.2.52v1.26c0,.2-.07.36-.2.49-.13.13-.3.2-.52.2h-5.73v17.64c0,.2-.07.37-.2.5-.13.13-.3.2-.52.2h-1.56Z"/>
        <path class="cls-2" d="M185.81,252.12c-.22,0-.39-.06-.51-.2-.12-.13-.18-.29-.18-.5v-19.62c0-.2.06-.37.18-.5s.29-.2.51-.2h1.59c.22,0,.39.07.51.2.12.13.18.29.18.5v19.62c0,.2-.06.37-.18.5-.12.13-.29.2-.51.2h-1.59Z"/>
        <path class="cls-2" d="M201.63,252.42c-1.84,0-3.37-.34-4.58-1.02s-2.12-1.63-2.75-2.85c-.62-1.22-.96-2.64-1.02-4.26-.02-.82-.03-1.7-.03-2.64s0-1.84.03-2.7c.06-1.62.4-3.04,1.02-4.26s1.54-2.17,2.75-2.85c1.21-.68,2.74-1.02,4.58-1.02,1.38,0,2.59.19,3.63.57,1.04.38,1.91.89,2.59,1.53.69.64,1.22,1.36,1.58,2.15.36.79.56,1.6.6,2.44.02.18-.04.33-.17.45-.13.12-.29.18-.46.18h-1.65c-.18,0-.33-.05-.46-.15-.13-.1-.23-.28-.29-.54-.34-1.56-.97-2.63-1.91-3.21-.93-.58-2.08-.87-3.46-.87-1.62,0-2.9.46-3.84,1.37-.94.91-1.44,2.37-1.5,4.37-.06,1.64-.06,3.32,0,5.04.06,2,.56,3.46,1.5,4.37.94.91,2.22,1.37,3.84,1.37,1.38,0,2.54-.29,3.46-.87.93-.58,1.56-1.65,1.91-3.21.06-.26.15-.44.29-.54.13-.1.29-.15.46-.15h1.65c.18,0,.33.05.46.16.13.11.18.26.17.44-.04.84-.24,1.66-.6,2.46-.36.8-.88,1.52-1.58,2.16-.69.64-1.55,1.15-2.59,1.53-1.04.38-2.25.57-3.63.57Z"/>
        <path class="cls-2" d="M215.48,252.12c-.22,0-.39-.06-.51-.2-.12-.13-.18-.29-.18-.5v-19.62c0-.2.06-.37.18-.5s.29-.2.51-.2h1.59c.22,0,.39.07.51.2.12.13.18.29.18.5v19.62c0,.2-.06.37-.18.5-.12.13-.29.2-.51.2h-1.59Z"/>
        <path class="cls-2" d="M224.42,252.12c-.22,0-.39-.06-.51-.2-.12-.13-.18-.29-.18-.5v-19.59c0-.22.06-.39.18-.52s.29-.2.51-.2h7.62c1.48,0,2.76.24,3.86.72,1.09.48,1.93,1.2,2.53,2.15.6.95.9,2.13.9,3.55s-.3,2.6-.9,3.54c-.6.94-1.44,1.65-2.53,2.13-1.09.48-2.38.72-3.86.72h-5.31v7.5c0,.2-.07.37-.2.5-.13.13-.31.2-.53.2h-1.59ZM226.7,241.41h5.19c1.48,0,2.59-.33,3.33-.99s1.11-1.62,1.11-2.88-.36-2.2-1.08-2.88-1.84-1.02-3.36-1.02h-5.19v7.77Z"/>
        <path class="cls-2" d="M241.14,252.12c-.16,0-.3-.06-.42-.18s-.18-.26-.18-.42c0-.1,0-.21.03-.33l7.44-19.41c.08-.2.19-.36.33-.48.14-.12.35-.18.63-.18h2.04c.28,0,.49.06.63.18.14.12.25.28.33.48l7.41,19.41c.04.12.06.23.06.33,0,.16-.06.3-.18.42s-.26.18-.42.18h-1.53c-.24,0-.42-.06-.53-.18s-.18-.23-.22-.33l-1.65-4.26h-9.84l-1.65,4.26c-.02.1-.09.21-.21.33-.12.12-.3.18-.54.18h-1.53ZM245.94,244.77h8.1l-4.05-10.65-4.05,10.65Z"/>
        <path class="cls-2" d="M264.08,252.12c-.22,0-.39-.06-.51-.2-.12-.13-.18-.29-.18-.5v-19.59c0-.22.06-.39.18-.52s.29-.2.51-.2h7.32c2.26,0,4.05.53,5.37,1.59,1.32,1.06,1.98,2.63,1.98,4.71,0,1.54-.38,2.79-1.15,3.77-.77.97-1.82,1.64-3.14,2.02l4.62,7.98c.06.12.09.23.09.33,0,.16-.06.3-.19.42-.13.12-.28.18-.44.18h-1.44c-.34,0-.59-.09-.75-.27-.16-.18-.3-.36-.42-.54l-4.35-7.62h-5.25v7.74c0,.2-.07.37-.19.5-.13.13-.31.2-.53.2h-1.53ZM266.33,241.14h4.95c1.5,0,2.62-.31,3.36-.94.74-.63,1.11-1.56,1.11-2.81s-.37-2.15-1.09-2.79c-.73-.64-1.86-.96-3.38-.96h-4.95v7.5Z"/>
        <path class="cls-2" d="M310.43,246.24c-.58,0-1.12-.14-1.61-.44-.49-.29-.88-.68-1.17-1.18s-.43-1.04-.43-1.62.14-1.14.43-1.62c.29-.48.68-.86,1.17-1.15s1.03-.44,1.61-.44,1.14.15,1.62.44c.48.29.87.67,1.17,1.15.3.48.45,1.02.45,1.62s-.15,1.12-.45,1.62-.69.9-1.17,1.18c-.48.29-1.02.44-1.62.44Z"/>
        <path class="cls-2" d="M340.85,252.12c-.16,0-.3-.06-.42-.18s-.18-.26-.18-.42c0-.1,0-.21.03-.33l7.44-19.41c.08-.2.19-.36.33-.48.14-.12.35-.18.63-.18h2.04c.28,0,.49.06.63.18.14.12.25.28.33.48l7.41,19.41c.04.12.06.23.06.33,0,.16-.06.3-.18.42s-.26.18-.42.18h-1.53c-.24,0-.42-.06-.53-.18s-.18-.23-.22-.33l-1.65-4.26h-9.84l-1.65,4.26c-.02.1-.09.21-.21.33-.12.12-.3.18-.54.18h-1.53ZM345.65,244.77h8.1l-4.05-10.65-4.05,10.65Z"/>
        <path class="cls-2" d="M363.8,252.12c-.22,0-.39-.06-.51-.2-.12-.13-.18-.29-.18-.5v-19.59c0-.22.06-.39.18-.52s.29-.2.51-.2h6.81c2.06,0,3.72.31,4.98.93,1.26.62,2.18,1.54,2.76,2.75.58,1.21.88,2.7.9,4.46.02.9.03,1.69.03,2.37s-.01,1.46-.03,2.34c-.04,1.84-.34,3.37-.92,4.58s-1.47,2.11-2.7,2.7c-1.23.59-2.85.88-4.88.88h-6.96ZM366.05,249.57h4.56c1.38,0,2.48-.19,3.3-.57.82-.38,1.41-.99,1.79-1.83.37-.84.56-1.95.58-3.33.04-.6.06-1.12.06-1.58v-1.35c0-.45-.02-.96-.06-1.54-.04-1.94-.5-3.38-1.38-4.3-.88-.93-2.36-1.4-4.44-1.4h-4.41v15.9Z"/>
        <path class="cls-2" d="M382.76,252.12c-.16,0-.3-.06-.42-.18s-.18-.26-.18-.42c0-.1,0-.21.03-.33l7.44-19.41c.08-.2.19-.36.33-.48.14-.12.35-.18.63-.18h2.04c.28,0,.49.06.63.18.14.12.25.28.33.48l7.41,19.41c.04.12.06.23.06.33,0,.16-.06.3-.18.42s-.26.18-.42.18h-1.53c-.24,0-.42-.06-.53-.18s-.18-.23-.22-.33l-1.65-4.26h-9.84l-1.65,4.26c-.02.1-.09.21-.21.33-.12.12-.3.18-.54.18h-1.53ZM387.56,244.77h8.1l-4.05-10.65-4.05,10.65Z"/>
        <path class="cls-2" d="M405.71,252.12c-.22,0-.39-.06-.51-.2-.12-.13-.18-.29-.18-.5v-19.59c0-.22.06-.39.18-.52s.29-.2.51-.2h7.62c1.48,0,2.76.24,3.86.72,1.09.48,1.93,1.2,2.53,2.15.6.95.9,2.13.9,3.55s-.3,2.6-.9,3.54c-.6.94-1.44,1.65-2.53,2.13-1.09.48-2.38.72-3.86.72h-5.31v7.5c0,.2-.07.37-.2.5-.13.13-.31.2-.53.2h-1.59ZM407.99,241.41h5.19c1.48,0,2.59-.33,3.33-.99s1.11-1.62,1.11-2.88-.36-2.2-1.08-2.88-1.84-1.02-3.36-1.02h-5.19v7.77Z"/>
        <path class="cls-2" d="M430.31,252.12c-.2,0-.37-.06-.5-.2-.13-.13-.19-.29-.19-.5v-17.64h-5.76c-.2,0-.37-.06-.5-.2-.13-.13-.2-.29-.2-.49v-1.26c0-.22.06-.39.2-.52.13-.13.29-.2.5-.2h14.46c.22,0,.39.07.52.2s.2.3.2.52v1.26c0,.2-.07.36-.2.49-.13.13-.3.2-.52.2h-5.73v17.64c0,.2-.07.37-.2.5-.13.13-.3.2-.52.2h-1.56Z"/>
        <path class="cls-2" d="M439.52,252.12c-.16,0-.3-.06-.42-.18s-.18-.26-.18-.42c0-.1,0-.21.03-.33l7.44-19.41c.08-.2.19-.36.33-.48.14-.12.35-.18.63-.18h2.04c.28,0,.49.06.63.18.14.12.25.28.33.48l7.41,19.41c.04.12.06.23.06.33,0,.16-.06.3-.18.42s-.26.18-.42.18h-1.53c-.24,0-.42-.06-.53-.18s-.18-.23-.22-.33l-1.65-4.26h-9.84l-1.65,4.26c-.02.1-.09.21-.21.33-.12.12-.3.18-.54.18h-1.53ZM444.32,244.77h8.1l-4.05-10.65-4.05,10.65Z"/>
        <path class="cls-2" d="M462.47,252.12c-.22,0-.39-.06-.51-.2-.12-.13-.18-.29-.18-.5v-19.59c0-.22.06-.39.18-.52s.29-.2.51-.2h7.32c2.26,0,4.05.53,5.37,1.59,1.32,1.06,1.98,2.63,1.98,4.71,0,1.54-.38,2.79-1.15,3.77-.77.97-1.82,1.64-3.14,2.02l4.62,7.98c.06.12.09.23.09.33,0,.16-.06.3-.19.42-.13.12-.28.18-.44.18h-1.44c-.34,0-.59-.09-.75-.27-.16-.18-.3-.36-.42-.54l-4.35-7.62h-5.25v7.74c0,.2-.07.37-.19.5-.13.13-.31.2-.53.2h-1.53ZM464.72,241.14h4.95c1.5,0,2.62-.31,3.36-.94.74-.63,1.11-1.56,1.11-2.81s-.37-2.15-1.09-2.79c-.73-.64-1.86-.96-3.38-.96h-4.95v7.5Z"/>
        <path class="cls-2" d="M508.82,246.24c-.58,0-1.12-.14-1.61-.44-.49-.29-.88-.68-1.17-1.18s-.43-1.04-.43-1.62.14-1.14.43-1.62c.29-.48.68-.86,1.17-1.15s1.03-.44,1.61-.44,1.14.15,1.62.44c.48.29.87.67,1.17,1.15.3.48.45,1.02.45,1.62s-.15,1.12-.45,1.62-.69.9-1.17,1.18c-.48.29-1.02.44-1.62.44Z"/>
        <path class="cls-2" d="M539.24,252.12c-.16,0-.3-.06-.42-.18s-.18-.26-.18-.42c0-.1,0-.21.03-.33l7.44-19.41c.08-.2.19-.36.33-.48.14-.12.35-.18.63-.18h2.04c.28,0,.49.06.63.18.14.12.25.28.33.48l7.41,19.41c.04.12.06.23.06.33,0,.16-.06.3-.18.42s-.26.18-.42.18h-1.53c-.24,0-.42-.06-.53-.18s-.18-.23-.22-.33l-1.65-4.26h-9.84l-1.65,4.26c-.02.1-.09.21-.21.33-.12.12-.3.18-.54.18h-1.53ZM544.04,244.77h8.1l-4.05-10.65-4.05,10.65Z"/>
        <path class="cls-2" d="M566.27,252.12c-.3,0-.54-.07-.71-.21s-.3-.33-.4-.57l-6.69-19.29c-.04-.12-.06-.23-.06-.33,0-.16.06-.3.18-.42s.26-.18.42-.18h1.56c.24,0,.42.07.55.2.13.13.21.25.25.34l5.85,17.01,5.88-17.01c.04-.1.12-.21.24-.34s.3-.2.54-.2h1.56c.16,0,.3.06.43.18s.2.26.2.42c0,.1-.02.21-.06.33l-6.72,19.29c-.08.24-.21.43-.38.57s-.41.21-.71.21h-1.95Z"/>
        <path class="cls-2" d="M577.55,252.12c-.16,0-.3-.06-.42-.18s-.18-.26-.18-.42c0-.1,0-.21.03-.33l7.44-19.41c.08-.2.19-.36.33-.48.14-.12.35-.18.63-.18h2.04c.28,0,.49.06.63.18.14.12.25.28.33.48l7.41,19.41c.04.12.06.23.06.33,0,.16-.06.3-.18.42s-.26.18-.42.18h-1.53c-.24,0-.42-.06-.53-.18s-.18-.23-.22-.33l-1.65-4.26h-9.84l-1.65,4.26c-.02.1-.09.21-.21.33-.12.12-.3.18-.54.18h-1.53ZM582.35,244.77h8.1l-4.05-10.65-4.05,10.65Z"/>
        <path class="cls-2" d="M600.5,252.12c-.22,0-.39-.06-.51-.2-.12-.13-.18-.29-.18-.5v-19.59c0-.22.06-.39.18-.52s.29-.2.51-.2h1.38c.24,0,.42.06.54.17.12.11.19.2.21.25l9.96,15.3v-15c0-.22.06-.39.18-.52s.29-.2.51-.2h1.44c.22,0,.4.07.53.2s.2.3.2.52v19.56c0,.2-.07.37-.2.51s-.29.21-.5.21h-1.44c-.22,0-.39-.06-.5-.18-.11-.12-.19-.2-.23-.24l-9.93-15.15v14.88c0,.2-.07.37-.2.5-.13.13-.3.2-.52.2h-1.44Z"/>
        <path class="cls-2" d="M620.72,252.12c-.22,0-.39-.07-.51-.21s-.18-.31-.18-.51v-1.29c0-.3.06-.54.18-.72.12-.18.21-.31.27-.39l11.16-15.27h-10.65c-.2,0-.37-.07-.5-.2-.13-.13-.2-.29-.2-.5v-1.2c0-.22.06-.39.2-.52.13-.13.29-.2.5-.2h13.59c.22,0,.39.07.52.2s.2.3.2.52v1.29c0,.24-.04.44-.12.6s-.17.31-.27.45l-11.07,15.33h11.04c.22,0,.39.07.53.2.13.13.19.31.19.53v1.2c0,.2-.07.37-.19.5-.13.13-.31.2-.53.2h-14.16Z"/>
        <path class="cls-2" d="M638.75,252.12c-.16,0-.3-.06-.42-.18s-.18-.26-.18-.42c0-.1,0-.21.03-.33l7.44-19.41c.08-.2.19-.36.33-.48.14-.12.35-.18.63-.18h2.04c.28,0,.49.06.63.18.14.12.25.28.33.48l7.41,19.41c.04.12.06.23.06.33,0,.16-.06.3-.18.42s-.26.18-.42.18h-1.53c-.24,0-.42-.06-.53-.18s-.18-.23-.22-.33l-1.65-4.26h-9.84l-1.65,4.26c-.02.1-.09.21-.21.33-.12.12-.3.18-.54.18h-1.53ZM643.55,244.77h8.1l-4.05-10.65-4.05,10.65Z"/>
        <path class="cls-2" d="M661.7,252.12c-.22,0-.39-.06-.51-.2-.12-.13-.18-.29-.18-.5v-19.59c0-.22.06-.39.18-.52s.29-.2.51-.2h7.32c2.26,0,4.05.53,5.37,1.59,1.32,1.06,1.98,2.63,1.98,4.71,0,1.54-.38,2.79-1.15,3.77-.77.97-1.82,1.64-3.14,2.02l4.62,7.98c.06.12.09.23.09.33,0,.16-.06.3-.19.42-.13.12-.28.18-.44.18h-1.44c-.34,0-.59-.09-.75-.27-.16-.18-.3-.36-.42-.54l-4.35-7.62h-5.25v7.74c0,.2-.07.37-.19.5-.13.13-.31.2-.53.2h-1.53ZM663.95,241.14h4.95c1.5,0,2.62-.31,3.36-.94.74-.63,1.11-1.56,1.11-2.81s-.37-2.15-1.09-2.79c-.73-.64-1.86-.96-3.38-.96h-4.95v7.5Z"/>
      </g>
    </g>
  </g>
</svg>