<svg width="124" height="12" viewBox="0 0 124 12" fill="none" xmlns="http://www.w3.org/2000/svg">
<path d="M4.83203 1.22461L2.00781 9H0.853516L4.10547 0.46875H4.84961L4.83203 1.22461ZM7.19922 9L4.36914 1.22461L4.35156 0.46875H5.0957L8.35938 9H7.19922ZM7.05273 5.8418V6.76758H2.25977V5.8418H7.05273ZM10.9219 3.87891V11.4375H9.83203V2.66016H10.8281L10.9219 3.87891ZM15.1934 5.77734V5.90039C15.1934 6.36133 15.1387 6.78906 15.0293 7.18359C14.9199 7.57422 14.7598 7.91406 14.5488 8.20312C14.3418 8.49219 14.0859 8.7168 13.7812 8.87695C13.4766 9.03711 13.127 9.11719 12.7324 9.11719C12.3301 9.11719 11.9746 9.05078 11.666 8.91797C11.3574 8.78516 11.0957 8.5918 10.8809 8.33789C10.666 8.08398 10.4941 7.7793 10.3652 7.42383C10.2402 7.06836 10.1543 6.66797 10.1074 6.22266V5.56641C10.1543 5.09766 10.2422 4.67773 10.3711 4.30664C10.5 3.93555 10.6699 3.61914 10.8809 3.35742C11.0957 3.0918 11.3555 2.89062 11.6602 2.75391C11.9648 2.61328 12.3164 2.54297 12.7148 2.54297C13.1133 2.54297 13.4668 2.62109 13.7754 2.77734C14.084 2.92969 14.3438 3.14844 14.5547 3.43359C14.7656 3.71875 14.9238 4.06055 15.0293 4.45898C15.1387 4.85352 15.1934 5.29297 15.1934 5.77734ZM14.1035 5.90039V5.77734C14.1035 5.46094 14.0703 5.16406 14.0039 4.88672C13.9375 4.60547 13.834 4.35938 13.6934 4.14844C13.5566 3.93359 13.3809 3.76562 13.166 3.64453C12.9512 3.51953 12.6953 3.45703 12.3984 3.45703C12.125 3.45703 11.8867 3.50391 11.6836 3.59766C11.4844 3.69141 11.3145 3.81836 11.1738 3.97852C11.0332 4.13477 10.918 4.31445 10.8281 4.51758C10.7422 4.7168 10.6777 4.92383 10.6348 5.13867V6.65625C10.7129 6.92969 10.8223 7.1875 10.9629 7.42969C11.1035 7.66797 11.291 7.86133 11.5254 8.00977C11.7598 8.1543 12.0547 8.22656 12.4102 8.22656C12.7031 8.22656 12.9551 8.16602 13.166 8.04492C13.3809 7.91992 13.5566 7.75 13.6934 7.53516C13.834 7.32031 13.9375 7.07422 14.0039 6.79688C14.0703 6.51562 14.1035 6.2168 14.1035 5.90039ZM18.1602 3.87891V11.4375H17.0703V2.66016H18.0664L18.1602 3.87891ZM22.4316 5.77734V5.90039C22.4316 6.36133 22.377 6.78906 22.2676 7.18359C22.1582 7.57422 21.998 7.91406 21.7871 8.20312C21.5801 8.49219 21.3242 8.7168 21.0195 8.87695C20.7148 9.03711 20.3652 9.11719 19.9707 9.11719C19.5684 9.11719 19.2129 9.05078 18.9043 8.91797C18.5957 8.78516 18.334 8.5918 18.1191 8.33789C17.9043 8.08398 17.7324 7.7793 17.6035 7.42383C17.4785 7.06836 17.3926 6.66797 17.3457 6.22266V5.56641C17.3926 5.09766 17.4805 4.67773 17.6094 4.30664C17.7383 3.93555 17.9082 3.61914 18.1191 3.35742C18.334 3.0918 18.5938 2.89062 18.8984 2.75391C19.2031 2.61328 19.5547 2.54297 19.9531 2.54297C20.3516 2.54297 20.7051 2.62109 21.0137 2.77734C21.3223 2.92969 21.582 3.14844 21.793 3.43359C22.0039 3.71875 22.1621 4.06055 22.2676 4.45898C22.377 4.85352 22.4316 5.29297 22.4316 5.77734ZM21.3418 5.90039V5.77734C21.3418 5.46094 21.3086 5.16406 21.2422 4.88672C21.1758 4.60547 21.0723 4.35938 20.9316 4.14844C20.7949 3.93359 20.6191 3.76562 20.4043 3.64453C20.1895 3.51953 19.9336 3.45703 19.6367 3.45703C19.3633 3.45703 19.125 3.50391 18.9219 3.59766C18.7227 3.69141 18.5527 3.81836 18.4121 3.97852C18.2715 4.13477 18.1562 4.31445 18.0664 4.51758C17.9805 4.7168 17.916 4.92383 17.873 5.13867V6.65625C17.9512 6.92969 18.0605 7.1875 18.2012 7.42969C18.3418 7.66797 18.5293 7.86133 18.7637 8.00977C18.998 8.1543 19.293 8.22656 19.6484 8.22656C19.9414 8.22656 20.1934 8.16602 20.4043 8.04492C20.6191 7.91992 20.7949 7.75 20.9316 7.53516C21.0723 7.32031 21.1758 7.07422 21.2422 6.79688C21.3086 6.51562 21.3418 6.2168 21.3418 5.90039ZM27.2324 7.70508L29.7461 0.46875H30.9707L27.8125 9H26.9395L27.2324 7.70508ZM24.8828 0.46875L27.373 7.70508L27.6836 9H26.8105L23.6582 0.46875H24.8828ZM33.6328 2.66016V9H32.543V2.66016H33.6328ZM32.4609 0.978516C32.4609 0.802734 32.5137 0.654297 32.6191 0.533203C32.7285 0.412109 32.8887 0.351562 33.0996 0.351562C33.3066 0.351562 33.4648 0.412109 33.5742 0.533203C33.6875 0.654297 33.7441 0.802734 33.7441 0.978516C33.7441 1.14648 33.6875 1.29102 33.5742 1.41211C33.4648 1.5293 33.3066 1.58789 33.0996 1.58789C32.8887 1.58789 32.7285 1.5293 32.6191 1.41211C32.5137 1.29102 32.4609 1.14648 32.4609 0.978516ZM39.5645 7.31836C39.5645 7.16211 39.5293 7.01758 39.459 6.88477C39.3926 6.74805 39.2539 6.625 39.043 6.51562C38.8359 6.40234 38.5234 6.30469 38.1055 6.22266C37.7539 6.14844 37.4355 6.06055 37.1504 5.95898C36.8691 5.85742 36.6289 5.73438 36.4297 5.58984C36.2344 5.44531 36.084 5.27539 35.9785 5.08008C35.873 4.88477 35.8203 4.65625 35.8203 4.39453C35.8203 4.14453 35.875 3.9082 35.9844 3.68555C36.0977 3.46289 36.2559 3.26562 36.459 3.09375C36.666 2.92188 36.9141 2.78711 37.2031 2.68945C37.4922 2.5918 37.8145 2.54297 38.1699 2.54297C38.6777 2.54297 39.1113 2.63281 39.4707 2.8125C39.8301 2.99219 40.1055 3.23242 40.2969 3.5332C40.4883 3.83008 40.584 4.16016 40.584 4.52344H39.5C39.5 4.34766 39.4473 4.17773 39.3418 4.01367C39.2402 3.8457 39.0898 3.70703 38.8906 3.59766C38.6953 3.48828 38.4551 3.43359 38.1699 3.43359C37.8691 3.43359 37.625 3.48047 37.4375 3.57422C37.2539 3.66406 37.1191 3.7793 37.0332 3.91992C36.9512 4.06055 36.9102 4.20898 36.9102 4.36523C36.9102 4.48242 36.9297 4.58789 36.9688 4.68164C37.0117 4.77148 37.0859 4.85547 37.1914 4.93359C37.2969 5.00781 37.4453 5.07812 37.6367 5.14453C37.8281 5.21094 38.0723 5.27734 38.3691 5.34375C38.8887 5.46094 39.3164 5.60156 39.6523 5.76562C39.9883 5.92969 40.2383 6.13086 40.4023 6.36914C40.5664 6.60742 40.6484 6.89648 40.6484 7.23633C40.6484 7.51367 40.5898 7.76758 40.4727 7.99805C40.3594 8.22852 40.1934 8.42773 39.9746 8.5957C39.7598 8.75977 39.502 8.88867 39.2012 8.98242C38.9043 9.07227 38.5703 9.11719 38.1992 9.11719C37.6406 9.11719 37.168 9.01758 36.7812 8.81836C36.3945 8.61914 36.1016 8.36133 35.9023 8.04492C35.7031 7.72852 35.6035 7.39453 35.6035 7.04297H36.6934C36.709 7.33984 36.7949 7.57617 36.9512 7.75195C37.1074 7.92383 37.2988 8.04688 37.5254 8.12109C37.752 8.19141 37.9766 8.22656 38.1992 8.22656C38.4961 8.22656 38.7441 8.1875 38.9434 8.10938C39.1465 8.03125 39.3008 7.92383 39.4062 7.78711C39.5117 7.65039 39.5645 7.49414 39.5645 7.31836ZM43.75 2.66016V9H42.6602V2.66016H43.75ZM42.5781 0.978516C42.5781 0.802734 42.6309 0.654297 42.7363 0.533203C42.8457 0.412109 43.0059 0.351562 43.2168 0.351562C43.4238 0.351562 43.582 0.412109 43.6914 0.533203C43.8047 0.654297 43.8613 0.802734 43.8613 0.978516C43.8613 1.14648 43.8047 1.29102 43.6914 1.41211C43.582 1.5293 43.4238 1.58789 43.2168 1.58789C43.0059 1.58789 42.8457 1.5293 42.7363 1.41211C42.6309 1.29102 42.5781 1.14648 42.5781 0.978516ZM45.7031 5.90039V5.76562C45.7031 5.30859 45.7695 4.88477 45.9023 4.49414C46.0352 4.09961 46.2266 3.75781 46.4766 3.46875C46.7266 3.17578 47.0293 2.94922 47.3848 2.78906C47.7402 2.625 48.1387 2.54297 48.5801 2.54297C49.0254 2.54297 49.4258 2.625 49.7812 2.78906C50.1406 2.94922 50.4453 3.17578 50.6953 3.46875C50.9492 3.75781 51.1426 4.09961 51.2754 4.49414C51.4082 4.88477 51.4746 5.30859 51.4746 5.76562V5.90039C51.4746 6.35742 51.4082 6.78125 51.2754 7.17188C51.1426 7.5625 50.9492 7.9043 50.6953 8.19727C50.4453 8.48633 50.1426 8.71289 49.7871 8.87695C49.4355 9.03711 49.0371 9.11719 48.5918 9.11719C48.1465 9.11719 47.7461 9.03711 47.3906 8.87695C47.0352 8.71289 46.7305 8.48633 46.4766 8.19727C46.2266 7.9043 46.0352 7.5625 45.9023 7.17188C45.7695 6.78125 45.7031 6.35742 45.7031 5.90039ZM46.7871 5.76562V5.90039C46.7871 6.2168 46.8242 6.51562 46.8984 6.79688C46.9727 7.07422 47.084 7.32031 47.2324 7.53516C47.3848 7.75 47.5742 7.91992 47.8008 8.04492C48.0273 8.16602 48.291 8.22656 48.5918 8.22656C48.8887 8.22656 49.1484 8.16602 49.3711 8.04492C49.5977 7.91992 49.7852 7.75 49.9336 7.53516C50.082 7.32031 50.1934 7.07422 50.2676 6.79688C50.3457 6.51562 50.3848 6.2168 50.3848 5.90039V5.76562C50.3848 5.45312 50.3457 5.1582 50.2676 4.88086C50.1934 4.59961 50.0801 4.35156 49.9277 4.13672C49.7793 3.91797 49.5918 3.74609 49.3652 3.62109C49.1426 3.49609 48.8809 3.43359 48.5801 3.43359C48.2832 3.43359 48.0215 3.49609 47.7949 3.62109C47.5723 3.74609 47.3848 3.91797 47.2324 4.13672C47.084 4.35156 46.9727 4.59961 46.8984 4.88086C46.8242 5.1582 46.7871 5.45312 46.7871 5.76562ZM47.9355 1.72266L49.0723 0H50.3789L48.8086 1.72266H47.9355ZM54.418 4.01367V9H53.334V2.66016H54.3594L54.418 4.01367ZM54.1602 5.58984L53.709 5.57227C53.7129 5.13867 53.7773 4.73828 53.9023 4.37109C54.0273 4 54.2031 3.67773 54.4297 3.4043C54.6562 3.13086 54.9258 2.91992 55.2383 2.77148C55.5547 2.61914 55.9043 2.54297 56.2871 2.54297C56.5996 2.54297 56.8809 2.58594 57.1309 2.67188C57.3809 2.75391 57.5938 2.88672 57.7695 3.07031C57.9492 3.25391 58.0859 3.49219 58.1797 3.78516C58.2734 4.07422 58.3203 4.42773 58.3203 4.8457V9H57.2305V4.83398C57.2305 4.50195 57.1816 4.23633 57.084 4.03711C56.9863 3.83398 56.8438 3.6875 56.6562 3.59766C56.4688 3.50391 56.2383 3.45703 55.9648 3.45703C55.6953 3.45703 55.4492 3.51367 55.2266 3.62695C55.0078 3.74023 54.8184 3.89648 54.6582 4.0957C54.502 4.29492 54.3789 4.52344 54.2891 4.78125C54.2031 5.03516 54.1602 5.30469 54.1602 5.58984ZM68.8242 6.16992H70.5762C70.541 6.74414 70.3828 7.25391 70.1016 7.69922C69.8242 8.14453 69.4355 8.49219 68.9355 8.74219C68.4395 8.99219 67.8418 9.11719 67.1426 9.11719C66.5957 9.11719 66.1055 9.02344 65.6719 8.83594C65.2383 8.64453 64.8672 8.37109 64.5586 8.01562C64.2539 7.66016 64.0215 7.23047 63.8613 6.72656C63.7012 6.22266 63.6211 5.6582 63.6211 5.0332V4.44141C63.6211 3.81641 63.7031 3.25195 63.8672 2.74805C64.0352 2.24023 64.2734 1.80859 64.582 1.45312C64.8945 1.09766 65.2676 0.824219 65.7012 0.632812C66.1348 0.441406 66.6191 0.345703 67.1543 0.345703C67.8652 0.345703 68.4648 0.474609 68.9531 0.732422C69.4453 0.990234 69.8262 1.3457 70.0957 1.79883C70.3691 2.25195 70.5332 2.76758 70.5879 3.3457H68.8301C68.8105 3.00195 68.7422 2.71094 68.625 2.47266C68.5078 2.23047 68.3301 2.04883 68.0918 1.92773C67.8574 1.80273 67.5449 1.74023 67.1543 1.74023C66.8613 1.74023 66.6055 1.79492 66.3867 1.9043C66.168 2.01367 65.9844 2.17969 65.8359 2.40234C65.6875 2.625 65.5762 2.90625 65.502 3.24609C65.4316 3.58203 65.3965 3.97656 65.3965 4.42969V5.0332C65.3965 5.47461 65.4297 5.86328 65.4961 6.19922C65.5625 6.53125 65.6641 6.8125 65.8008 7.04297C65.9414 7.26953 66.1211 7.44141 66.3398 7.55859C66.5625 7.67188 66.8301 7.72852 67.1426 7.72852C67.5098 7.72852 67.8125 7.66992 68.0508 7.55273C68.2891 7.43555 68.4707 7.26172 68.5957 7.03125C68.7246 6.80078 68.8008 6.51367 68.8242 6.16992ZM73.707 2.66016V9H72.2891V2.66016H73.707ZM72.1953 0.996094C72.1953 0.78125 72.2656 0.603516 72.4062 0.462891C72.5508 0.318359 72.75 0.246094 73.0039 0.246094C73.2539 0.246094 73.4512 0.318359 73.5957 0.462891C73.7402 0.603516 73.8125 0.78125 73.8125 0.996094C73.8125 1.20703 73.7402 1.38281 73.5957 1.52344C73.4512 1.66406 73.2539 1.73438 73.0039 1.73438C72.75 1.73438 72.5508 1.66406 72.4062 1.52344C72.2656 1.38281 72.1953 1.20703 72.1953 0.996094ZM79.5684 7.50586V2.66016H80.9863V9H79.6504L79.5684 7.50586ZM79.7676 6.1875L80.2422 6.17578C80.2422 6.60156 80.1953 6.99414 80.1016 7.35352C80.0078 7.70898 79.8633 8.01953 79.668 8.28516C79.4727 8.54688 79.2227 8.75195 78.918 8.90039C78.6133 9.04492 78.248 9.11719 77.8223 9.11719C77.5137 9.11719 77.2305 9.07227 76.9727 8.98242C76.7148 8.89258 76.4922 8.75391 76.3047 8.56641C76.1211 8.37891 75.9785 8.13477 75.877 7.83398C75.7754 7.5332 75.7246 7.17383 75.7246 6.75586V2.66016H77.1367V6.76758C77.1367 6.99805 77.1641 7.19141 77.2188 7.34766C77.2734 7.5 77.3477 7.62305 77.4414 7.7168C77.5352 7.81055 77.6445 7.87695 77.7695 7.91602C77.8945 7.95508 78.0273 7.97461 78.168 7.97461C78.5703 7.97461 78.8867 7.89648 79.1172 7.74023C79.3516 7.58008 79.5176 7.36523 79.6152 7.0957C79.7168 6.82617 79.7676 6.52344 79.7676 6.1875ZM86.8008 7.6875V0H88.2188V9H86.9355L86.8008 7.6875ZM82.6758 5.90039V5.77734C82.6758 5.29688 82.7324 4.85938 82.8457 4.46484C82.959 4.06641 83.123 3.72461 83.3379 3.43945C83.5527 3.15039 83.8145 2.92969 84.123 2.77734C84.4316 2.62109 84.7793 2.54297 85.166 2.54297C85.5488 2.54297 85.8848 2.61719 86.1738 2.76562C86.4629 2.91406 86.709 3.12695 86.9121 3.4043C87.1152 3.67773 87.2773 4.00586 87.3984 4.38867C87.5195 4.76758 87.6055 5.18945 87.6562 5.6543V6.04688C87.6055 6.5 87.5195 6.91406 87.3984 7.28906C87.2773 7.66406 87.1152 7.98828 86.9121 8.26172C86.709 8.53516 86.4609 8.74609 86.168 8.89453C85.8789 9.04297 85.541 9.11719 85.1543 9.11719C84.7715 9.11719 84.4258 9.03711 84.1172 8.87695C83.8125 8.7168 83.5527 8.49219 83.3379 8.20312C83.123 7.91406 82.959 7.57422 82.8457 7.18359C82.7324 6.78906 82.6758 6.36133 82.6758 5.90039ZM84.0879 5.77734V5.90039C84.0879 6.18945 84.1133 6.45898 84.1641 6.70898C84.2188 6.95898 84.3027 7.17969 84.416 7.37109C84.5293 7.55859 84.6758 7.70703 84.8555 7.81641C85.0391 7.92188 85.2578 7.97461 85.5117 7.97461C85.832 7.97461 86.0957 7.9043 86.3027 7.76367C86.5098 7.62305 86.6719 7.43359 86.7891 7.19531C86.9102 6.95312 86.9922 6.68359 87.0352 6.38672V5.32617C87.0117 5.0957 86.9629 4.88086 86.8887 4.68164C86.8184 4.48242 86.7227 4.30859 86.6016 4.16016C86.4805 4.00781 86.3301 3.89062 86.1504 3.80859C85.9746 3.72266 85.7656 3.67969 85.5234 3.67969C85.2656 3.67969 85.0469 3.73438 84.8672 3.84375C84.6875 3.95312 84.5391 4.10352 84.4219 4.29492C84.3086 4.48633 84.2246 4.70898 84.1699 4.96289C84.1152 5.2168 84.0879 5.48828 84.0879 5.77734ZM93.7695 7.72852V4.70508C93.7695 4.47852 93.7285 4.2832 93.6465 4.11914C93.5645 3.95508 93.4395 3.82812 93.2715 3.73828C93.1074 3.64844 92.9004 3.60352 92.6504 3.60352C92.4199 3.60352 92.2207 3.64258 92.0527 3.7207C91.8848 3.79883 91.7539 3.9043 91.6602 4.03711C91.5664 4.16992 91.5195 4.32031 91.5195 4.48828H90.1133C90.1133 4.23828 90.1738 3.99609 90.2949 3.76172C90.416 3.52734 90.5918 3.31836 90.8223 3.13477C91.0527 2.95117 91.3281 2.80664 91.6484 2.70117C91.9688 2.5957 92.3281 2.54297 92.7266 2.54297C93.2031 2.54297 93.625 2.62305 93.9922 2.7832C94.3633 2.94336 94.6543 3.18555 94.8652 3.50977C95.0801 3.83008 95.1875 4.23242 95.1875 4.7168V7.53516C95.1875 7.82422 95.207 8.08398 95.2461 8.31445C95.2891 8.54102 95.3496 8.73828 95.4277 8.90625V9H93.9805C93.9141 8.84766 93.8613 8.6543 93.8223 8.41992C93.7871 8.18164 93.7695 7.95117 93.7695 7.72852ZM93.9746 5.14453L93.9863 6.01758H92.9727C92.7109 6.01758 92.4805 6.04297 92.2812 6.09375C92.082 6.14062 91.916 6.21094 91.7832 6.30469C91.6504 6.39844 91.5508 6.51172 91.4844 6.64453C91.418 6.77734 91.3848 6.92773 91.3848 7.0957C91.3848 7.26367 91.4238 7.41797 91.502 7.55859C91.5801 7.69531 91.6934 7.80273 91.8418 7.88086C91.9941 7.95898 92.1777 7.99805 92.3926 7.99805C92.6816 7.99805 92.9336 7.93945 93.1484 7.82227C93.3672 7.70117 93.5391 7.55469 93.6641 7.38281C93.7891 7.20703 93.8555 7.04102 93.8633 6.88477L94.3203 7.51172C94.2734 7.67188 94.1934 7.84375 94.0801 8.02734C93.9668 8.21094 93.8184 8.38672 93.6348 8.55469C93.4551 8.71875 93.2383 8.85352 92.9844 8.95898C92.7344 9.06445 92.4453 9.11719 92.1172 9.11719C91.7031 9.11719 91.334 9.03516 91.0098 8.87109C90.6855 8.70312 90.4316 8.47852 90.248 8.19727C90.0645 7.91211 89.9727 7.58984 89.9727 7.23047C89.9727 6.89453 90.0352 6.59766 90.1602 6.33984C90.2891 6.07812 90.4766 5.85938 90.7227 5.68359C90.9727 5.50781 91.2773 5.375 91.6367 5.28516C91.9961 5.19141 92.4062 5.14453 92.8672 5.14453H93.9746ZM101.031 7.6875V0H102.449V9H101.166L101.031 7.6875ZM96.9062 5.90039V5.77734C96.9062 5.29688 96.9629 4.85938 97.0762 4.46484C97.1895 4.06641 97.3535 3.72461 97.5684 3.43945C97.7832 3.15039 98.0449 2.92969 98.3535 2.77734C98.6621 2.62109 99.0098 2.54297 99.3965 2.54297C99.7793 2.54297 100.115 2.61719 100.404 2.76562C100.693 2.91406 100.939 3.12695 101.143 3.4043C101.346 3.67773 101.508 4.00586 101.629 4.38867C101.75 4.76758 101.836 5.18945 101.887 5.6543V6.04688C101.836 6.5 101.75 6.91406 101.629 7.28906C101.508 7.66406 101.346 7.98828 101.143 8.26172C100.939 8.53516 100.691 8.74609 100.398 8.89453C100.109 9.04297 99.7715 9.11719 99.3848 9.11719C99.002 9.11719 98.6562 9.03711 98.3477 8.87695C98.043 8.7168 97.7832 8.49219 97.5684 8.20312C97.3535 7.91406 97.1895 7.57422 97.0762 7.18359C96.9629 6.78906 96.9062 6.36133 96.9062 5.90039ZM98.3184 5.77734V5.90039C98.3184 6.18945 98.3438 6.45898 98.3945 6.70898C98.4492 6.95898 98.5332 7.17969 98.6465 7.37109C98.7598 7.55859 98.9062 7.70703 99.0859 7.81641C99.2695 7.92188 99.4883 7.97461 99.7422 7.97461C100.062 7.97461 100.326 7.9043 100.533 7.76367C100.74 7.62305 100.902 7.43359 101.02 7.19531C101.141 6.95312 101.223 6.68359 101.266 6.38672V5.32617C101.242 5.0957 101.193 4.88086 101.119 4.68164C101.049 4.48242 100.953 4.30859 100.832 4.16016C100.711 4.00781 100.561 3.89062 100.381 3.80859C100.205 3.72266 99.9961 3.67969 99.7539 3.67969C99.4961 3.67969 99.2773 3.73438 99.0977 3.84375C98.918 3.95312 98.7695 4.10352 98.6523 4.29492C98.5391 4.48633 98.4551 4.70898 98.4004 4.96289C98.3457 5.2168 98.3184 5.48828 98.3184 5.77734ZM108 7.72852V4.70508C108 4.47852 107.959 4.2832 107.877 4.11914C107.795 3.95508 107.67 3.82812 107.502 3.73828C107.338 3.64844 107.131 3.60352 106.881 3.60352C106.65 3.60352 106.451 3.64258 106.283 3.7207C106.115 3.79883 105.984 3.9043 105.891 4.03711C105.797 4.16992 105.75 4.32031 105.75 4.48828H104.344C104.344 4.23828 104.404 3.99609 104.525 3.76172C104.646 3.52734 104.822 3.31836 105.053 3.13477C105.283 2.95117 105.559 2.80664 105.879 2.70117C106.199 2.5957 106.559 2.54297 106.957 2.54297C107.434 2.54297 107.855 2.62305 108.223 2.7832C108.594 2.94336 108.885 3.18555 109.096 3.50977C109.311 3.83008 109.418 4.23242 109.418 4.7168V7.53516C109.418 7.82422 109.438 8.08398 109.477 8.31445C109.52 8.54102 109.58 8.73828 109.658 8.90625V9H108.211C108.145 8.84766 108.092 8.6543 108.053 8.41992C108.018 8.18164 108 7.95117 108 7.72852ZM108.205 5.14453L108.217 6.01758H107.203C106.941 6.01758 106.711 6.04297 106.512 6.09375C106.312 6.14062 106.146 6.21094 106.014 6.30469C105.881 6.39844 105.781 6.51172 105.715 6.64453C105.648 6.77734 105.615 6.92773 105.615 7.0957C105.615 7.26367 105.654 7.41797 105.732 7.55859C105.811 7.69531 105.924 7.80273 106.072 7.88086C106.225 7.95898 106.408 7.99805 106.623 7.99805C106.912 7.99805 107.164 7.93945 107.379 7.82227C107.598 7.70117 107.77 7.55469 107.895 7.38281C108.02 7.20703 108.086 7.04102 108.094 6.88477L108.551 7.51172C108.504 7.67188 108.424 7.84375 108.311 8.02734C108.197 8.21094 108.049 8.38672 107.865 8.55469C107.686 8.71875 107.469 8.85352 107.215 8.95898C106.965 9.06445 106.676 9.11719 106.348 9.11719C105.934 9.11719 105.564 9.03516 105.24 8.87109C104.916 8.70312 104.662 8.47852 104.479 8.19727C104.295 7.91211 104.203 7.58984 104.203 7.23047C104.203 6.89453 104.266 6.59766 104.391 6.33984C104.52 6.07812 104.707 5.85938 104.953 5.68359C105.203 5.50781 105.508 5.375 105.867 5.28516C106.227 5.19141 106.637 5.14453 107.098 5.14453H108.205ZM112.795 4.01367V9H111.383V2.66016H112.713L112.795 4.01367ZM112.543 5.5957L112.086 5.58984C112.09 5.14062 112.152 4.72852 112.273 4.35352C112.398 3.97852 112.57 3.65625 112.789 3.38672C113.012 3.11719 113.277 2.91016 113.586 2.76562C113.895 2.61719 114.238 2.54297 114.617 2.54297C114.922 2.54297 115.197 2.58594 115.443 2.67188C115.693 2.75391 115.906 2.88867 116.082 3.07617C116.262 3.26367 116.398 3.50781 116.492 3.80859C116.586 4.10547 116.633 4.4707 116.633 4.9043V9H115.215V4.89844C115.215 4.59375 115.17 4.35352 115.08 4.17773C114.994 3.99805 114.867 3.87109 114.699 3.79688C114.535 3.71875 114.33 3.67969 114.084 3.67969C113.842 3.67969 113.625 3.73047 113.434 3.83203C113.242 3.93359 113.08 4.07227 112.947 4.24805C112.818 4.42383 112.719 4.62695 112.648 4.85742C112.578 5.08789 112.543 5.33398 112.543 5.5957ZM122.148 7.72852V4.70508C122.148 4.47852 122.107 4.2832 122.025 4.11914C121.943 3.95508 121.818 3.82812 121.65 3.73828C121.486 3.64844 121.279 3.60352 121.029 3.60352C120.799 3.60352 120.6 3.64258 120.432 3.7207C120.264 3.79883 120.133 3.9043 120.039 4.03711C119.945 4.16992 119.898 4.32031 119.898 4.48828H118.492C118.492 4.23828 118.553 3.99609 118.674 3.76172C118.795 3.52734 118.971 3.31836 119.201 3.13477C119.432 2.95117 119.707 2.80664 120.027 2.70117C120.348 2.5957 120.707 2.54297 121.105 2.54297C121.582 2.54297 122.004 2.62305 122.371 2.7832C122.742 2.94336 123.033 3.18555 123.244 3.50977C123.459 3.83008 123.566 4.23242 123.566 4.7168V7.53516C123.566 7.82422 123.586 8.08398 123.625 8.31445C123.668 8.54102 123.729 8.73828 123.807 8.90625V9H122.359C122.293 8.84766 122.24 8.6543 122.201 8.41992C122.166 8.18164 122.148 7.95117 122.148 7.72852ZM122.354 5.14453L122.365 6.01758H121.352C121.09 6.01758 120.859 6.04297 120.66 6.09375C120.461 6.14062 120.295 6.21094 120.162 6.30469C120.029 6.39844 119.93 6.51172 119.863 6.64453C119.797 6.77734 119.764 6.92773 119.764 7.0957C119.764 7.26367 119.803 7.41797 119.881 7.55859C119.959 7.69531 120.072 7.80273 120.221 7.88086C120.373 7.95898 120.557 7.99805 120.771 7.99805C121.061 7.99805 121.312 7.93945 121.527 7.82227C121.746 7.70117 121.918 7.55469 122.043 7.38281C122.168 7.20703 122.234 7.04102 122.242 6.88477L122.699 7.51172C122.652 7.67188 122.572 7.84375 122.459 8.02734C122.346 8.21094 122.197 8.38672 122.014 8.55469C121.834 8.71875 121.617 8.85352 121.363 8.95898C121.113 9.06445 120.824 9.11719 120.496 9.11719C120.082 9.11719 119.713 9.03516 119.389 8.87109C119.064 8.70312 118.811 8.47852 118.627 8.19727C118.443 7.91211 118.352 7.58984 118.352 7.23047C118.352 6.89453 118.414 6.59766 118.539 6.33984C118.668 6.07812 118.855 5.85938 119.102 5.68359C119.352 5.50781 119.656 5.375 120.016 5.28516C120.375 5.19141 120.785 5.14453 121.246 5.14453H122.354Z" fill="#6F448C"/>
</svg>
