<svg width="101" height="10" viewBox="0 0 101 10" fill="none" xmlns="http://www.w3.org/2000/svg">
<path d="M4.33008 7.70508L6.84375 0.46875H8.06836L4.91016 9H4.03711L4.33008 7.70508ZM1.98047 0.46875L4.4707 7.70508L4.78125 9H3.9082L0.755859 0.46875H1.98047ZM10.7305 2.66016V9H9.64062V2.66016H10.7305ZM9.55859 0.978516C9.55859 0.802734 9.61133 0.654297 9.7168 0.533203C9.82617 0.412109 9.98633 0.351562 10.1973 0.351562C10.4043 0.351562 10.5625 0.412109 10.6719 0.533203C10.7852 0.654297 10.8418 0.802734 10.8418 0.978516C10.8418 1.14648 10.7852 1.29102 10.6719 1.41211C10.5625 1.5293 10.4043 1.58789 10.1973 1.58789C9.98633 1.58789 9.82617 1.5293 9.7168 1.41211C9.61133 1.29102 9.55859 1.14648 9.55859 0.978516ZM16.6621 7.31836C16.6621 7.16211 16.627 7.01758 16.5566 6.88477C16.4902 6.74805 16.3516 6.625 16.1406 6.51562C15.9336 6.40234 15.6211 6.30469 15.2031 6.22266C14.8516 6.14844 14.5332 6.06055 14.248 5.95898C13.9668 5.85742 13.7266 5.73438 13.5273 5.58984C13.332 5.44531 13.1816 5.27539 13.0762 5.08008C12.9707 4.88477 12.918 4.65625 12.918 4.39453C12.918 4.14453 12.9727 3.9082 13.082 3.68555C13.1953 3.46289 13.3535 3.26562 13.5566 3.09375C13.7637 2.92188 14.0117 2.78711 14.3008 2.68945C14.5898 2.5918 14.9121 2.54297 15.2676 2.54297C15.7754 2.54297 16.209 2.63281 16.5684 2.8125C16.9277 2.99219 17.2031 3.23242 17.3945 3.5332C17.5859 3.83008 17.6816 4.16016 17.6816 4.52344H16.5977C16.5977 4.34766 16.5449 4.17773 16.4395 4.01367C16.3379 3.8457 16.1875 3.70703 15.9883 3.59766C15.793 3.48828 15.5527 3.43359 15.2676 3.43359C14.9668 3.43359 14.7227 3.48047 14.5352 3.57422C14.3516 3.66406 14.2168 3.7793 14.1309 3.91992C14.0488 4.06055 14.0078 4.20898 14.0078 4.36523C14.0078 4.48242 14.0273 4.58789 14.0664 4.68164C14.1094 4.77148 14.1836 4.85547 14.2891 4.93359C14.3945 5.00781 14.543 5.07812 14.7344 5.14453C14.9258 5.21094 15.1699 5.27734 15.4668 5.34375C15.9863 5.46094 16.4141 5.60156 16.75 5.76562C17.0859 5.92969 17.3359 6.13086 17.5 6.36914C17.6641 6.60742 17.7461 6.89648 17.7461 7.23633C17.7461 7.51367 17.6875 7.76758 17.5703 7.99805C17.457 8.22852 17.291 8.42773 17.0723 8.5957C16.8574 8.75977 16.5996 8.88867 16.2988 8.98242C16.002 9.07227 15.668 9.11719 15.2969 9.11719C14.7383 9.11719 14.2656 9.01758 13.8789 8.81836C13.4922 8.61914 13.1992 8.36133 13 8.04492C12.8008 7.72852 12.7012 7.39453 12.7012 7.04297H13.791C13.8066 7.33984 13.8926 7.57617 14.0488 7.75195C14.2051 7.92383 14.3965 8.04688 14.623 8.12109C14.8496 8.19141 15.0742 8.22656 15.2969 8.22656C15.5938 8.22656 15.8418 8.1875 16.041 8.10938C16.2441 8.03125 16.3984 7.92383 16.5039 7.78711C16.6094 7.65039 16.6621 7.49414 16.6621 7.31836ZM20.8477 2.66016V9H19.7578V2.66016H20.8477ZM19.6758 0.978516C19.6758 0.802734 19.7285 0.654297 19.834 0.533203C19.9434 0.412109 20.1035 0.351562 20.3145 0.351562C20.5215 0.351562 20.6797 0.412109 20.7891 0.533203C20.9023 0.654297 20.959 0.802734 20.959 0.978516C20.959 1.14648 20.9023 1.29102 20.7891 1.41211C20.6797 1.5293 20.5215 1.58789 20.3145 1.58789C20.1035 1.58789 19.9434 1.5293 19.834 1.41211C19.7285 1.29102 19.6758 1.14648 19.6758 0.978516ZM22.8008 5.90039V5.76562C22.8008 5.30859 22.8672 4.88477 23 4.49414C23.1328 4.09961 23.3242 3.75781 23.5742 3.46875C23.8242 3.17578 24.127 2.94922 24.4824 2.78906C24.8379 2.625 25.2363 2.54297 25.6777 2.54297C26.123 2.54297 26.5234 2.625 26.8789 2.78906C27.2383 2.94922 27.543 3.17578 27.793 3.46875C28.0469 3.75781 28.2402 4.09961 28.373 4.49414C28.5059 4.88477 28.5723 5.30859 28.5723 5.76562V5.90039C28.5723 6.35742 28.5059 6.78125 28.373 7.17188C28.2402 7.5625 28.0469 7.9043 27.793 8.19727C27.543 8.48633 27.2402 8.71289 26.8848 8.87695C26.5332 9.03711 26.1348 9.11719 25.6895 9.11719C25.2441 9.11719 24.8438 9.03711 24.4883 8.87695C24.1328 8.71289 23.8281 8.48633 23.5742 8.19727C23.3242 7.9043 23.1328 7.5625 23 7.17188C22.8672 6.78125 22.8008 6.35742 22.8008 5.90039ZM23.8848 5.76562V5.90039C23.8848 6.2168 23.9219 6.51562 23.9961 6.79688C24.0703 7.07422 24.1816 7.32031 24.3301 7.53516C24.4824 7.75 24.6719 7.91992 24.8984 8.04492C25.125 8.16602 25.3887 8.22656 25.6895 8.22656C25.9863 8.22656 26.2461 8.16602 26.4688 8.04492C26.6953 7.91992 26.8828 7.75 27.0312 7.53516C27.1797 7.32031 27.291 7.07422 27.3652 6.79688C27.4434 6.51562 27.4824 6.2168 27.4824 5.90039V5.76562C27.4824 5.45312 27.4434 5.1582 27.3652 4.88086C27.291 4.59961 27.1777 4.35156 27.0254 4.13672C26.877 3.91797 26.6895 3.74609 26.4629 3.62109C26.2402 3.49609 25.9785 3.43359 25.6777 3.43359C25.3809 3.43359 25.1191 3.49609 24.8926 3.62109C24.6699 3.74609 24.4824 3.91797 24.3301 4.13672C24.1816 4.35156 24.0703 4.59961 23.9961 4.88086C23.9219 5.1582 23.8848 5.45312 23.8848 5.76562ZM25.0332 1.72266L26.1699 0H27.4766L25.9062 1.72266H25.0332ZM31.5156 4.01367V9H30.4316V2.66016H31.457L31.5156 4.01367ZM31.2578 5.58984L30.8066 5.57227C30.8105 5.13867 30.875 4.73828 31 4.37109C31.125 4 31.3008 3.67773 31.5273 3.4043C31.7539 3.13086 32.0234 2.91992 32.3359 2.77148C32.6523 2.61914 33.002 2.54297 33.3848 2.54297C33.6973 2.54297 33.9785 2.58594 34.2285 2.67188C34.4785 2.75391 34.6914 2.88672 34.8672 3.07031C35.0469 3.25391 35.1836 3.49219 35.2773 3.78516C35.3711 4.07422 35.418 4.42773 35.418 4.8457V9H34.3281V4.83398C34.3281 4.50195 34.2793 4.23633 34.1816 4.03711C34.084 3.83398 33.9414 3.6875 33.7539 3.59766C33.5664 3.50391 33.3359 3.45703 33.0625 3.45703C32.793 3.45703 32.5469 3.51367 32.3242 3.62695C32.1055 3.74023 31.916 3.89648 31.7559 4.0957C31.5996 4.29492 31.4766 4.52344 31.3867 4.78125C31.3008 5.03516 31.2578 5.30469 31.2578 5.58984ZM45.9219 6.16992H47.6738C47.6387 6.74414 47.4805 7.25391 47.1992 7.69922C46.9219 8.14453 46.5332 8.49219 46.0332 8.74219C45.5371 8.99219 44.9395 9.11719 44.2402 9.11719C43.6934 9.11719 43.2031 9.02344 42.7695 8.83594C42.3359 8.64453 41.9648 8.37109 41.6562 8.01562C41.3516 7.66016 41.1191 7.23047 40.959 6.72656C40.7988 6.22266 40.7188 5.6582 40.7188 5.0332V4.44141C40.7188 3.81641 40.8008 3.25195 40.9648 2.74805C41.1328 2.24023 41.3711 1.80859 41.6797 1.45312C41.9922 1.09766 42.3652 0.824219 42.7988 0.632812C43.2324 0.441406 43.7168 0.345703 44.252 0.345703C44.9629 0.345703 45.5625 0.474609 46.0508 0.732422C46.543 0.990234 46.9238 1.3457 47.1934 1.79883C47.4668 2.25195 47.6309 2.76758 47.6855 3.3457H45.9277C45.9082 3.00195 45.8398 2.71094 45.7227 2.47266C45.6055 2.23047 45.4277 2.04883 45.1895 1.92773C44.9551 1.80273 44.6426 1.74023 44.252 1.74023C43.959 1.74023 43.7031 1.79492 43.4844 1.9043C43.2656 2.01367 43.082 2.17969 42.9336 2.40234C42.7852 2.625 42.6738 2.90625 42.5996 3.24609C42.5293 3.58203 42.4941 3.97656 42.4941 4.42969V5.0332C42.4941 5.47461 42.5273 5.86328 42.5938 6.19922C42.6602 6.53125 42.7617 6.8125 42.8984 7.04297C43.0391 7.26953 43.2188 7.44141 43.4375 7.55859C43.6602 7.67188 43.9277 7.72852 44.2402 7.72852C44.6074 7.72852 44.9102 7.66992 45.1484 7.55273C45.3867 7.43555 45.5684 7.26172 45.6934 7.03125C45.8223 6.80078 45.8984 6.51367 45.9219 6.16992ZM50.8047 2.66016V9H49.3867V2.66016H50.8047ZM49.293 0.996094C49.293 0.78125 49.3633 0.603516 49.5039 0.462891C49.6484 0.318359 49.8477 0.246094 50.1016 0.246094C50.3516 0.246094 50.5488 0.318359 50.6934 0.462891C50.8379 0.603516 50.9102 0.78125 50.9102 0.996094C50.9102 1.20703 50.8379 1.38281 50.6934 1.52344C50.5488 1.66406 50.3516 1.73438 50.1016 1.73438C49.8477 1.73438 49.6484 1.66406 49.5039 1.52344C49.3633 1.38281 49.293 1.20703 49.293 0.996094ZM56.666 7.50586V2.66016H58.084V9H56.748L56.666 7.50586ZM56.8652 6.1875L57.3398 6.17578C57.3398 6.60156 57.293 6.99414 57.1992 7.35352C57.1055 7.70898 56.9609 8.01953 56.7656 8.28516C56.5703 8.54688 56.3203 8.75195 56.0156 8.90039C55.7109 9.04492 55.3457 9.11719 54.9199 9.11719C54.6113 9.11719 54.3281 9.07227 54.0703 8.98242C53.8125 8.89258 53.5898 8.75391 53.4023 8.56641C53.2188 8.37891 53.0762 8.13477 52.9746 7.83398C52.873 7.5332 52.8223 7.17383 52.8223 6.75586V2.66016H54.2344V6.76758C54.2344 6.99805 54.2617 7.19141 54.3164 7.34766C54.3711 7.5 54.4453 7.62305 54.5391 7.7168C54.6328 7.81055 54.7422 7.87695 54.8672 7.91602C54.9922 7.95508 55.125 7.97461 55.2656 7.97461C55.668 7.97461 55.9844 7.89648 56.2148 7.74023C56.4492 7.58008 56.6152 7.36523 56.7129 7.0957C56.8145 6.82617 56.8652 6.52344 56.8652 6.1875ZM63.8984 7.6875V0H65.3164V9H64.0332L63.8984 7.6875ZM59.7734 5.90039V5.77734C59.7734 5.29688 59.8301 4.85938 59.9434 4.46484C60.0566 4.06641 60.2207 3.72461 60.4355 3.43945C60.6504 3.15039 60.9121 2.92969 61.2207 2.77734C61.5293 2.62109 61.877 2.54297 62.2637 2.54297C62.6465 2.54297 62.9824 2.61719 63.2715 2.76562C63.5605 2.91406 63.8066 3.12695 64.0098 3.4043C64.2129 3.67773 64.375 4.00586 64.4961 4.38867C64.6172 4.76758 64.7031 5.18945 64.7539 5.6543V6.04688C64.7031 6.5 64.6172 6.91406 64.4961 7.28906C64.375 7.66406 64.2129 7.98828 64.0098 8.26172C63.8066 8.53516 63.5586 8.74609 63.2656 8.89453C62.9766 9.04297 62.6387 9.11719 62.252 9.11719C61.8691 9.11719 61.5234 9.03711 61.2148 8.87695C60.9102 8.7168 60.6504 8.49219 60.4355 8.20312C60.2207 7.91406 60.0566 7.57422 59.9434 7.18359C59.8301 6.78906 59.7734 6.36133 59.7734 5.90039ZM61.1855 5.77734V5.90039C61.1855 6.18945 61.2109 6.45898 61.2617 6.70898C61.3164 6.95898 61.4004 7.17969 61.5137 7.37109C61.627 7.55859 61.7734 7.70703 61.9531 7.81641C62.1367 7.92188 62.3555 7.97461 62.6094 7.97461C62.9297 7.97461 63.1934 7.9043 63.4004 7.76367C63.6074 7.62305 63.7695 7.43359 63.8867 7.19531C64.0078 6.95312 64.0898 6.68359 64.1328 6.38672V5.32617C64.1094 5.0957 64.0605 4.88086 63.9863 4.68164C63.916 4.48242 63.8203 4.30859 63.6992 4.16016C63.5781 4.00781 63.4277 3.89062 63.248 3.80859C63.0723 3.72266 62.8633 3.67969 62.6211 3.67969C62.3633 3.67969 62.1445 3.73438 61.9648 3.84375C61.7852 3.95312 61.6367 4.10352 61.5195 4.29492C61.4062 4.48633 61.3223 4.70898 61.2676 4.96289C61.2129 5.2168 61.1855 5.48828 61.1855 5.77734ZM70.8672 7.72852V4.70508C70.8672 4.47852 70.8262 4.2832 70.7441 4.11914C70.6621 3.95508 70.5371 3.82812 70.3691 3.73828C70.2051 3.64844 69.998 3.60352 69.748 3.60352C69.5176 3.60352 69.3184 3.64258 69.1504 3.7207C68.9824 3.79883 68.8516 3.9043 68.7578 4.03711C68.6641 4.16992 68.6172 4.32031 68.6172 4.48828H67.2109C67.2109 4.23828 67.2715 3.99609 67.3926 3.76172C67.5137 3.52734 67.6895 3.31836 67.9199 3.13477C68.1504 2.95117 68.4258 2.80664 68.7461 2.70117C69.0664 2.5957 69.4258 2.54297 69.8242 2.54297C70.3008 2.54297 70.7227 2.62305 71.0898 2.7832C71.4609 2.94336 71.752 3.18555 71.9629 3.50977C72.1777 3.83008 72.2852 4.23242 72.2852 4.7168V7.53516C72.2852 7.82422 72.3047 8.08398 72.3438 8.31445C72.3867 8.54102 72.4473 8.73828 72.5254 8.90625V9H71.0781C71.0117 8.84766 70.959 8.6543 70.9199 8.41992C70.8848 8.18164 70.8672 7.95117 70.8672 7.72852ZM71.0723 5.14453L71.084 6.01758H70.0703C69.8086 6.01758 69.5781 6.04297 69.3789 6.09375C69.1797 6.14062 69.0137 6.21094 68.8809 6.30469C68.748 6.39844 68.6484 6.51172 68.582 6.64453C68.5156 6.77734 68.4824 6.92773 68.4824 7.0957C68.4824 7.26367 68.5215 7.41797 68.5996 7.55859C68.6777 7.69531 68.791 7.80273 68.9395 7.88086C69.0918 7.95898 69.2754 7.99805 69.4902 7.99805C69.7793 7.99805 70.0312 7.93945 70.2461 7.82227C70.4648 7.70117 70.6367 7.55469 70.7617 7.38281C70.8867 7.20703 70.9531 7.04102 70.9609 6.88477L71.418 7.51172C71.3711 7.67188 71.291 7.84375 71.1777 8.02734C71.0645 8.21094 70.916 8.38672 70.7324 8.55469C70.5527 8.71875 70.3359 8.85352 70.082 8.95898C69.832 9.06445 69.543 9.11719 69.2148 9.11719C68.8008 9.11719 68.4316 9.03516 68.1074 8.87109C67.7832 8.70312 67.5293 8.47852 67.3457 8.19727C67.1621 7.91211 67.0703 7.58984 67.0703 7.23047C67.0703 6.89453 67.1328 6.59766 67.2578 6.33984C67.3867 6.07812 67.5742 5.85938 67.8203 5.68359C68.0703 5.50781 68.375 5.375 68.7344 5.28516C69.0938 5.19141 69.5039 5.14453 69.9648 5.14453H71.0723ZM78.1289 7.6875V0H79.5469V9H78.2637L78.1289 7.6875ZM74.0039 5.90039V5.77734C74.0039 5.29688 74.0605 4.85938 74.1738 4.46484C74.2871 4.06641 74.4512 3.72461 74.666 3.43945C74.8809 3.15039 75.1426 2.92969 75.4512 2.77734C75.7598 2.62109 76.1074 2.54297 76.4941 2.54297C76.877 2.54297 77.2129 2.61719 77.502 2.76562C77.791 2.91406 78.0371 3.12695 78.2402 3.4043C78.4434 3.67773 78.6055 4.00586 78.7266 4.38867C78.8477 4.76758 78.9336 5.18945 78.9844 5.6543V6.04688C78.9336 6.5 78.8477 6.91406 78.7266 7.28906C78.6055 7.66406 78.4434 7.98828 78.2402 8.26172C78.0371 8.53516 77.7891 8.74609 77.4961 8.89453C77.207 9.04297 76.8691 9.11719 76.4824 9.11719C76.0996 9.11719 75.7539 9.03711 75.4453 8.87695C75.1406 8.7168 74.8809 8.49219 74.666 8.20312C74.4512 7.91406 74.2871 7.57422 74.1738 7.18359C74.0605 6.78906 74.0039 6.36133 74.0039 5.90039ZM75.416 5.77734V5.90039C75.416 6.18945 75.4414 6.45898 75.4922 6.70898C75.5469 6.95898 75.6309 7.17969 75.7441 7.37109C75.8574 7.55859 76.0039 7.70703 76.1836 7.81641C76.3672 7.92188 76.5859 7.97461 76.8398 7.97461C77.1602 7.97461 77.4238 7.9043 77.6309 7.76367C77.8379 7.62305 78 7.43359 78.1172 7.19531C78.2383 6.95312 78.3203 6.68359 78.3633 6.38672V5.32617C78.3398 5.0957 78.291 4.88086 78.2168 4.68164C78.1465 4.48242 78.0508 4.30859 77.9297 4.16016C77.8086 4.00781 77.6582 3.89062 77.4785 3.80859C77.3027 3.72266 77.0938 3.67969 76.8516 3.67969C76.5938 3.67969 76.375 3.73438 76.1953 3.84375C76.0156 3.95312 75.8672 4.10352 75.75 4.29492C75.6367 4.48633 75.5527 4.70898 75.498 4.96289C75.4434 5.2168 75.416 5.48828 75.416 5.77734ZM85.0977 7.72852V4.70508C85.0977 4.47852 85.0566 4.2832 84.9746 4.11914C84.8926 3.95508 84.7676 3.82812 84.5996 3.73828C84.4355 3.64844 84.2285 3.60352 83.9785 3.60352C83.748 3.60352 83.5488 3.64258 83.3809 3.7207C83.2129 3.79883 83.082 3.9043 82.9883 4.03711C82.8945 4.16992 82.8477 4.32031 82.8477 4.48828H81.4414C81.4414 4.23828 81.502 3.99609 81.623 3.76172C81.7441 3.52734 81.9199 3.31836 82.1504 3.13477C82.3809 2.95117 82.6562 2.80664 82.9766 2.70117C83.2969 2.5957 83.6562 2.54297 84.0547 2.54297C84.5312 2.54297 84.9531 2.62305 85.3203 2.7832C85.6914 2.94336 85.9824 3.18555 86.1934 3.50977C86.4082 3.83008 86.5156 4.23242 86.5156 4.7168V7.53516C86.5156 7.82422 86.5352 8.08398 86.5742 8.31445C86.6172 8.54102 86.6777 8.73828 86.7559 8.90625V9H85.3086C85.2422 8.84766 85.1895 8.6543 85.1504 8.41992C85.1152 8.18164 85.0977 7.95117 85.0977 7.72852ZM85.3027 5.14453L85.3145 6.01758H84.3008C84.0391 6.01758 83.8086 6.04297 83.6094 6.09375C83.4102 6.14062 83.2441 6.21094 83.1113 6.30469C82.9785 6.39844 82.8789 6.51172 82.8125 6.64453C82.7461 6.77734 82.7129 6.92773 82.7129 7.0957C82.7129 7.26367 82.752 7.41797 82.8301 7.55859C82.9082 7.69531 83.0215 7.80273 83.1699 7.88086C83.3223 7.95898 83.5059 7.99805 83.7207 7.99805C84.0098 7.99805 84.2617 7.93945 84.4766 7.82227C84.6953 7.70117 84.8672 7.55469 84.9922 7.38281C85.1172 7.20703 85.1836 7.04102 85.1914 6.88477L85.6484 7.51172C85.6016 7.67188 85.5215 7.84375 85.4082 8.02734C85.2949 8.21094 85.1465 8.38672 84.9629 8.55469C84.7832 8.71875 84.5664 8.85352 84.3125 8.95898C84.0625 9.06445 83.7734 9.11719 83.4453 9.11719C83.0312 9.11719 82.6621 9.03516 82.3379 8.87109C82.0137 8.70312 81.7598 8.47852 81.5762 8.19727C81.3926 7.91211 81.3008 7.58984 81.3008 7.23047C81.3008 6.89453 81.3633 6.59766 81.4883 6.33984C81.6172 6.07812 81.8047 5.85938 82.0508 5.68359C82.3008 5.50781 82.6055 5.375 82.9648 5.28516C83.3242 5.19141 83.7344 5.14453 84.1953 5.14453H85.3027ZM89.8926 4.01367V9H88.4805V2.66016H89.8105L89.8926 4.01367ZM89.6406 5.5957L89.1836 5.58984C89.1875 5.14062 89.25 4.72852 89.3711 4.35352C89.4961 3.97852 89.668 3.65625 89.8867 3.38672C90.1094 3.11719 90.375 2.91016 90.6836 2.76562C90.9922 2.61719 91.3359 2.54297 91.7148 2.54297C92.0195 2.54297 92.2949 2.58594 92.541 2.67188C92.791 2.75391 93.0039 2.88867 93.1797 3.07617C93.3594 3.26367 93.4961 3.50781 93.5898 3.80859C93.6836 4.10547 93.7305 4.4707 93.7305 4.9043V9H92.3125V4.89844C92.3125 4.59375 92.2676 4.35352 92.1777 4.17773C92.0918 3.99805 91.9648 3.87109 91.7969 3.79688C91.6328 3.71875 91.4277 3.67969 91.1816 3.67969C90.9395 3.67969 90.7227 3.73047 90.5312 3.83203C90.3398 3.93359 90.1777 4.07227 90.0449 4.24805C89.916 4.42383 89.8164 4.62695 89.7461 4.85742C89.6758 5.08789 89.6406 5.33398 89.6406 5.5957ZM99.2461 7.72852V4.70508C99.2461 4.47852 99.2051 4.2832 99.123 4.11914C99.041 3.95508 98.916 3.82812 98.748 3.73828C98.584 3.64844 98.377 3.60352 98.127 3.60352C97.8965 3.60352 97.6973 3.64258 97.5293 3.7207C97.3613 3.79883 97.2305 3.9043 97.1367 4.03711C97.043 4.16992 96.9961 4.32031 96.9961 4.48828H95.5898C95.5898 4.23828 95.6504 3.99609 95.7715 3.76172C95.8926 3.52734 96.0684 3.31836 96.2988 3.13477C96.5293 2.95117 96.8047 2.80664 97.125 2.70117C97.4453 2.5957 97.8047 2.54297 98.2031 2.54297C98.6797 2.54297 99.1016 2.62305 99.4688 2.7832C99.8398 2.94336 100.131 3.18555 100.342 3.50977C100.557 3.83008 100.664 4.23242 100.664 4.7168V7.53516C100.664 7.82422 100.684 8.08398 100.723 8.31445C100.766 8.54102 100.826 8.73828 100.904 8.90625V9H99.457C99.3906 8.84766 99.3379 8.6543 99.2988 8.41992C99.2637 8.18164 99.2461 7.95117 99.2461 7.72852ZM99.4512 5.14453L99.4629 6.01758H98.4492C98.1875 6.01758 97.957 6.04297 97.7578 6.09375C97.5586 6.14062 97.3926 6.21094 97.2598 6.30469C97.127 6.39844 97.0273 6.51172 96.9609 6.64453C96.8945 6.77734 96.8613 6.92773 96.8613 7.0957C96.8613 7.26367 96.9004 7.41797 96.9785 7.55859C97.0566 7.69531 97.1699 7.80273 97.3184 7.88086C97.4707 7.95898 97.6543 7.99805 97.8691 7.99805C98.1582 7.99805 98.4102 7.93945 98.625 7.82227C98.8438 7.70117 99.0156 7.55469 99.1406 7.38281C99.2656 7.20703 99.332 7.04102 99.3398 6.88477L99.7969 7.51172C99.75 7.67188 99.6699 7.84375 99.5566 8.02734C99.4434 8.21094 99.2949 8.38672 99.1113 8.55469C98.9316 8.71875 98.7148 8.85352 98.4609 8.95898C98.2109 9.06445 97.9219 9.11719 97.5938 9.11719C97.1797 9.11719 96.8105 9.03516 96.4863 8.87109C96.1621 8.70312 95.9082 8.47852 95.7246 8.19727C95.541 7.91211 95.4492 7.58984 95.4492 7.23047C95.4492 6.89453 95.5117 6.59766 95.6367 6.33984C95.7656 6.07812 95.9531 5.85938 96.1992 5.68359C96.4492 5.50781 96.7539 5.375 97.1133 5.28516C97.4727 5.19141 97.8828 5.14453 98.3438 5.14453H99.4512Z" fill="#143358"/>
</svg>
