<svg width="65" height="25" viewBox="0 0 65 25" fill="none" xmlns="http://www.w3.org/2000/svg">
<path d="M0.132812 1.1499H2.19531L4.41528 7.12637L6.6353 1.1499H8.6528L5.21779 9.6952H3.56783L0.132812 1.1499Z" fill="white"/>
<path d="M9.56055 0.790527H11.503V2.43068H9.56055V0.790527ZM9.61305 3.14217H11.458V9.64288H9.61305V3.14217Z" fill="white"/>
<path d="M12.6807 8.78156L13.4682 7.5683C14.1882 8.09255 14.9007 8.34718 15.5232 8.34718C16.0557 8.34718 16.3032 8.15246 16.3032 7.86038V7.83791C16.3032 7.44097 15.6732 7.31366 14.9532 7.08898C14.0457 6.83434 13.0107 6.39996 13.0107 5.13427V5.1118C13.0107 3.79369 14.0757 3.05225 15.3882 3.05225C16.2132 3.05225 17.0982 3.32935 17.8182 3.80118L17.1132 5.07436C16.4682 4.69989 15.8232 4.46772 15.3507 4.46772C14.9007 4.46772 14.6682 4.66245 14.6682 4.91708V4.93955C14.6682 5.27657 15.2907 5.50125 15.9882 5.71844C16.8957 6.01052 17.9532 6.45988 17.9532 7.64319V7.66565C17.9532 9.11109 16.8732 9.76266 15.4632 9.76266C14.5482 9.76266 13.5507 9.4556 12.6807 8.78156Z" fill="white"/>
<path d="M19.3174 0.790527H21.2599V2.43068H19.3174V0.790527ZM19.3698 3.14217H21.2149V9.64288H19.3698V3.14217Z" fill="white"/>
<path d="M22.6328 6.42248V6.40001C22.6328 4.53517 24.1403 3.01484 26.1653 3.01484C28.1678 3.01484 29.6753 4.49773 29.6753 6.37005V6.39252C29.6753 8.25736 28.1678 9.77768 26.1428 9.77768C24.1403 9.78517 22.6328 8.30229 22.6328 6.42248ZM27.8528 6.42248V6.40001C27.8528 5.44138 27.1628 4.60258 26.1428 4.60258C25.0853 4.60258 24.4553 5.40393 24.4553 6.37005V6.39252C24.4553 7.35115 25.1453 8.18995 26.1653 8.18995C27.2228 8.19744 27.8528 7.39609 27.8528 6.42248ZM26.7728 0.28125L28.3628 0.970266L26.7878 2.42319H25.4303L26.7728 0.28125Z" fill="white"/>
<path d="M31.0107 3.14229H32.8558V4.06347C33.2833 3.51676 33.8382 3.02246 34.7607 3.02246C36.1707 3.02246 36.9733 3.92867 36.9733 5.43402V9.643H35.1282V6.01818C35.1282 5.14193 34.7307 4.70006 34.0107 4.70006C33.2907 4.70006 32.8558 5.14942 32.8558 6.01818V9.643H31.0107V3.14229Z" fill="white"/>
<path d="M0.477539 19.963V19.9405C0.477539 17.5289 2.30006 15.5518 4.91006 15.5518C6.50006 15.5518 7.48254 16.0835 8.26254 16.8624L7.07007 18.2329C6.40257 17.6413 5.75755 17.2743 4.89505 17.2743C3.46255 17.2743 2.42757 18.4651 2.42757 19.918V19.9405C2.42757 21.3934 3.43255 22.6067 4.89505 22.6067C5.87005 22.6067 6.46258 22.2322 7.13008 21.6106L8.32256 22.8089C7.44506 23.7451 6.49258 24.3217 4.83508 24.3217C2.33758 24.3292 0.477539 22.397 0.477539 19.963Z" fill="white"/>
<path d="M9.6582 15.335H11.6007V16.9751H9.6582V15.335ZM9.7032 17.6866H11.5482V24.1873H9.7032V17.6866Z" fill="white"/>
<path d="M13.2354 21.8877V17.6787H15.0804V21.3035C15.0804 22.1798 15.4779 22.6216 16.1979 22.6216C16.9179 22.6216 17.3528 22.1723 17.3528 21.3035V17.6787H19.1979V24.1794H17.3528V23.2582C16.9253 23.805 16.3704 24.2993 15.4479 24.2993C14.0379 24.3067 13.2354 23.393 13.2354 21.8877Z" fill="white"/>
<path d="M20.5557 20.9444V20.922C20.5557 18.7501 21.9732 17.5668 23.5182 17.5668C24.5007 17.5668 25.1082 18.0161 25.5432 18.5329V15.335H27.3882V24.1873H25.5432V23.2512C25.0932 23.8728 24.4857 24.3071 23.5182 24.3071C22.0032 24.3071 20.5557 23.1163 20.5557 20.9444ZM25.5732 20.9444V20.922C25.5732 19.8435 24.8532 19.1245 23.9982 19.1245C23.1432 19.1245 22.4082 19.8285 22.4082 20.922V20.9444C22.4082 22.0229 23.1357 22.7419 23.9982 22.7419C24.8607 22.7419 25.5732 22.0229 25.5732 20.9444Z" fill="white"/>
<path d="M28.6475 22.3148V22.2923C28.6475 20.8843 29.7275 20.2178 31.2725 20.2178C31.94 20.2178 32.39 20.3301 32.8625 20.4874V20.375C32.8625 19.5962 32.3899 19.1842 31.4674 19.1842C30.7474 19.1842 30.2674 19.3041 29.6674 19.5362L29.2025 18.1283C29.9225 17.8287 30.6199 17.604 31.7299 17.604C32.7499 17.604 33.4549 17.8586 33.9274 18.3305C34.4149 18.8173 34.6324 19.5288 34.6324 20.405V24.1796H32.8474V23.4756C32.3974 23.9699 31.7899 24.2994 30.8824 24.2994C29.6599 24.3069 28.6475 23.6104 28.6475 22.3148ZM32.8849 21.8879V21.5658C32.5549 21.4235 32.1574 21.3262 31.7074 21.3262C30.9199 21.3262 30.4324 21.6407 30.4324 22.2249V22.2474C30.4324 22.7417 30.8449 23.0337 31.4374 23.0337C32.3149 23.0337 32.8849 22.5694 32.8849 21.8879Z" fill="white"/>
<path d="M35.9307 20.9444V20.922C35.9307 18.7501 37.3482 17.5668 38.8932 17.5668C39.8757 17.5668 40.4832 18.0161 40.9182 18.5329V15.335H42.7632V24.1873H40.9182V23.2512C40.4682 23.8728 39.8607 24.3071 38.8932 24.3071C37.3782 24.3071 35.9307 23.1163 35.9307 20.9444ZM40.9482 20.9444V20.922C40.9482 19.8435 40.2282 19.1245 39.3732 19.1245C38.5182 19.1245 37.7832 19.8285 37.7832 20.922V20.9444C37.7832 22.0229 38.5107 22.7419 39.3732 22.7419C40.2357 22.7419 40.9482 22.0229 40.9482 20.9444Z" fill="white"/>
<path d="M44.0303 22.3148V22.2923C44.0303 20.8843 45.1103 20.2178 46.6553 20.2178C47.3228 20.2178 47.7728 20.3301 48.2453 20.4874V20.375C48.2453 19.5962 47.7728 19.1842 46.8503 19.1842C46.1303 19.1842 45.6503 19.3041 45.0503 19.5362L44.5853 18.1283C45.3053 17.8287 46.0028 17.604 47.1128 17.604C48.1328 17.604 48.8378 17.8586 49.3103 18.3305C49.7978 18.8173 50.0153 19.5288 50.0153 20.405V24.1796H48.2303V23.4756C47.7803 23.9699 47.1728 24.2994 46.2653 24.2994C45.0353 24.3069 44.0303 23.6104 44.0303 22.3148ZM48.2678 21.8879V21.5658C47.9378 21.4235 47.5403 21.3262 47.0903 21.3262C46.3028 21.3262 45.8153 21.6407 45.8153 22.2249V22.2474C45.8153 22.7417 46.2278 23.0337 46.8203 23.0337C47.6978 23.0337 48.2678 22.5694 48.2678 21.8879Z" fill="white"/>
<path d="M51.6055 17.6862H53.4504V18.6074C53.8779 18.0607 54.433 17.5664 55.3555 17.5664C56.7655 17.5664 57.568 18.4726 57.568 19.978V24.1869H55.723V20.5621C55.723 19.6859 55.3255 19.244 54.6055 19.244C53.8855 19.244 53.4504 19.6934 53.4504 20.5621V24.1869H51.6055V17.6862Z" fill="white"/>
<path d="M58.7754 22.3148V22.2923C58.7754 20.8843 59.8554 20.2178 61.4004 20.2178C62.0679 20.2178 62.5179 20.3301 62.9904 20.4874V20.375C62.9904 19.5962 62.5179 19.1842 61.5954 19.1842C60.8754 19.1842 60.3954 19.3041 59.7954 19.5362L59.3304 18.1283C60.0504 17.8287 60.7479 17.604 61.8579 17.604C62.8779 17.604 63.5829 17.8586 64.0554 18.3305C64.5429 18.8173 64.7604 19.5288 64.7604 20.405V24.1796H62.9754V23.4756C62.5254 23.9699 61.9179 24.2994 61.0104 24.2994C59.7804 24.3069 58.7754 23.6104 58.7754 22.3148ZM63.0129 21.8879V21.5658C62.6829 21.4235 62.2854 21.3262 61.8354 21.3262C61.0479 21.3262 60.5604 21.6407 60.5604 22.2249V22.2474C60.5604 22.7417 60.9729 23.0337 61.5654 23.0337C62.4429 23.0337 63.0129 22.5694 63.0129 21.8879Z" fill="white"/>
</svg>
