<svg width="114" height="25" viewBox="0 0 114 25" fill="none" xmlns="http://www.w3.org/2000/svg">
<path d="M84.7373 24.0223H78.2123V0.985168H84.7373V24.0223ZM33.7073 15.1175L41.8898 15.0875V9.5005L33.7223 9.53046C28.2698 9.50799 24.9023 9.82254 18.9848 16.3607C18.2348 17.2594 17.4173 17.9409 16.5173 18.3978C15.6173 18.8546 14.6273 19.0868 13.5548 19.0868C12.6098 19.0868 11.7398 18.937 10.9523 18.63C10.1648 18.3229 9.48232 17.881 8.92731 17.2969C8.36481 16.7127 7.92981 16.0162 7.60731 15.2073C7.29231 14.3985 7.12732 13.4923 7.12732 12.5112C7.12732 11.5226 7.28481 10.6239 7.60731 9.81505C7.92231 9.00621 8.36481 8.3097 8.92731 7.72554C9.48981 7.14137 10.1648 6.69951 10.9523 6.39244C11.7398 6.08538 12.6098 5.92811 13.5548 5.92811C14.6273 5.92811 15.6173 6.16027 16.5173 6.61712C17.4173 7.08146 18.2423 7.74801 18.9923 8.62426L23.1473 4.87211C22.0298 3.44915 20.6273 2.3632 18.9473 1.62925C17.2673 0.895296 15.3623 0.52832 13.2323 0.52832C11.4098 0.52832 9.72981 0.820403 8.19231 1.39708C6.65481 1.98124 5.31232 2.80507 4.17232 3.86855C3.03232 4.93203 2.13982 6.19772 1.50232 7.66562C0.864819 9.13353 0.549805 10.7512 0.549805 12.5037C0.549805 14.2562 0.864819 15.8739 1.50232 17.3418C2.13982 18.8097 3.03232 20.0754 4.17232 21.1389C5.31232 22.2024 6.65481 23.0262 8.19231 23.6103C9.72981 24.1945 11.4098 24.4791 13.2323 24.4791C15.3623 24.4791 17.2673 24.1046 18.9473 23.3632C20.6273 22.6143 22.0298 21.5283 23.1473 20.1054C27.6698 15.095 29.3123 15.095 33.7073 15.1175ZM36.9398 6.11534H45.9173V0.985168H28.2248V6.11534H34.6523H36.9398ZM28.2173 24.0223H34.6448H36.9323H46.9973V18.8921H28.2098V24.0223H28.2173ZM113.665 18.982V24.0148H112.75C106.757 24.0148 104.102 21.6257 102.167 19.8807C100.742 18.6 99.9623 17.8885 98.0498 17.8885V24.0073H91.5248V0.985168H102.04C104.147 0.985168 105.97 1.32219 107.507 2.00371C109.045 2.68524 110.23 3.66634 111.047 4.94701C111.872 6.22768 112.285 7.74052 112.285 9.47054C112.285 11.2455 111.872 12.7583 111.047 14.0091C110.275 15.1849 109.172 16.1061 107.762 16.7651C108.932 18.3079 109.472 18.9745 112.742 18.9745H113.665V18.982ZM105.73 9.47803C105.73 8.44451 105.392 7.62818 104.71 7.02903C104.027 6.4224 103.007 6.12283 101.642 6.12283H98.0498V12.8707H101.642C103.007 12.8707 104.027 12.5711 104.71 11.9795C105.385 11.3803 105.73 10.549 105.73 9.47803ZM57.8798 7.71805C58.4498 7.13388 59.1398 6.69201 59.9573 6.38495C60.7673 6.07789 61.6673 5.92062 62.6573 5.92062C63.7748 5.92062 64.7948 6.13032 65.7023 6.54972C66.6173 6.96912 67.4648 7.6132 68.2523 8.48945L72.4073 4.73731C71.2898 3.37425 69.8723 2.33324 68.1548 1.61427C66.4448 0.887807 64.5098 0.52832 62.3573 0.52832C60.4673 0.52832 58.7423 0.820403 57.1823 1.39708C55.6223 1.98124 54.2648 2.80507 53.1098 3.86855C51.9548 4.93203 51.0623 6.19772 50.4248 7.66562C49.7873 9.13353 49.4723 10.7512 49.4723 12.5037C49.4723 14.2562 49.7873 15.8739 50.4248 17.3418C51.0623 18.8097 51.9548 20.0754 53.0948 21.1389C54.2348 22.2024 55.5773 23.0262 57.1148 23.6103C58.6523 24.1945 60.3473 24.4791 62.1923 24.4791C63.8648 24.4791 65.5598 24.2245 67.2848 23.7227C69.0098 23.2209 70.5398 22.4944 71.8823 21.5508V12.0094H66.0848V18.3379C65.8673 18.4352 65.6423 18.5326 65.4248 18.6075C64.5023 18.922 63.5573 19.0868 62.5898 19.0868C61.6223 19.0868 60.7373 18.9295 59.9348 18.6075C59.1323 18.2929 58.4498 17.8361 57.8723 17.2594C57.3023 16.6753 56.8598 15.9787 56.5373 15.1699C56.2223 14.3611 56.0573 13.4698 56.0573 12.5037C56.0573 11.5151 56.2148 10.6164 56.5373 9.80756C56.8673 8.99123 57.3098 8.29472 57.8798 7.71805Z" fill="white"/>
</svg>
