<svg width="158" height="39" viewBox="0 0 158 39" fill="none" xmlns="http://www.w3.org/2000/svg">
<path d="M67.6426 19.6157C67.3951 19.1963 67.1101 18.7919 66.7951 18.4099C65.3551 16.6724 63.3901 15.5265 60.8926 14.9648C60.5776 14.8974 60.1351 14.8001 59.5501 14.6653C55.9276 13.8864 54.1126 12.9877 54.1126 11.9616C54.1126 11.4149 54.3601 10.988 54.8551 10.6884C55.3501 10.3814 56.0551 10.2316 56.9626 10.2316C58.1551 10.2316 59.3851 10.4787 60.6451 10.9655C61.9126 11.4524 63.1726 12.1563 64.4326 13.085L68.4001 3.59607C66.3451 2.48766 64.3126 1.66383 62.2951 1.11712C60.2776 0.570396 58.2226 0.300781 56.1376 0.300781C51.6076 0.300781 47.9401 1.52154 45.1426 3.97054C42.3451 6.41205 40.9501 9.58751 40.9501 13.4894C40.9501 15.9984 41.6701 18.0954 43.1101 19.7805C44.5501 21.4655 46.6276 22.6414 49.3351 23.3004C49.8001 23.3978 50.4451 23.5401 51.2701 23.7198C53.8351 24.2516 55.1176 25.0155 55.1176 26.0265C55.1176 26.6032 54.8626 27.0601 54.3451 27.4046C53.8351 27.7416 53.1301 27.9138 52.2376 27.9138C50.9626 27.9138 49.5976 27.6143 48.1276 27.0076C46.6651 26.4085 45.0001 25.4499 43.1251 24.1467L38.9551 34.3097C41.3401 35.6653 43.7176 36.6838 46.1026 37.3578C48.4876 38.0319 50.8651 38.3764 53.2501 38.3764C55.8301 38.3764 58.1476 37.9795 60.1876 37.2006L67.6426 19.6157Z" fill="white"/>
<path d="M37.4853 17.5338C37.4703 17.1743 37.4403 16.6201 37.4103 15.8712H17.3328V24.394H23.0178C22.8678 25.3377 22.4028 26.0716 21.6153 26.5959C20.8278 27.1276 19.8078 27.3898 18.5478 27.3898C16.4328 27.3898 14.7903 26.6858 13.6353 25.2703C12.4803 23.8548 11.8953 21.8701 11.8953 19.3088C11.8953 16.8298 12.4728 14.8602 13.6203 13.3848C14.7678 11.9169 16.3128 11.1829 18.2478 11.1829C19.3578 11.1829 20.3403 11.4301 21.2028 11.9243C22.0653 12.4186 22.8003 13.1751 23.4078 14.1786L35.0478 9.86479C33.2103 6.72677 30.8478 4.34518 27.9528 2.71251C25.0578 1.08733 21.7503 0.270996 18.0303 0.270996C15.9078 0.270996 13.9053 0.548101 12.0078 1.10231L0.592773 28.0713C1.47777 29.8537 2.64778 31.4639 4.11028 32.9094C5.93278 34.6918 8.01778 36.0474 10.3728 36.9611C12.7278 37.8748 15.2853 38.3391 18.0303 38.3391C21.7503 38.3391 25.0803 37.5153 28.0053 35.8751C30.9303 34.235 33.3228 31.8534 35.1753 28.7528C35.9328 27.4347 36.5178 25.9144 36.9153 24.1918C37.3128 22.4768 37.5078 20.5745 37.5078 18.4925C37.5078 18.2228 37.5003 17.9008 37.4853 17.5338Z" fill="white"/>
<path d="M91.5532 16.4553C92.6107 16.4553 93.3082 15.609 93.3082 14.6129V14.5904C93.3082 13.5943 92.5882 12.7256 91.5307 12.7256C90.4807 12.7256 89.7832 13.5719 89.7832 14.568V14.5904C89.7832 15.5865 90.5032 16.4553 91.5532 16.4553Z" fill="white"/>
<path d="M141.653 12.8379H140.873V16.3504H141.653C142.801 16.3504 143.558 15.7213 143.558 14.6054V14.5829C143.558 13.4745 142.793 12.8379 141.653 12.8379Z" fill="white"/>
<path d="M117.353 13.6396V13.6171C117.353 13.0779 116.955 12.8008 116.318 12.8008H115.065V14.4559H116.333C116.978 14.4559 117.353 14.1414 117.353 13.6396Z" fill="white"/>
<path d="M126.083 25.7121H128.131L127.111 23.1133L126.083 25.7121Z" fill="white"/>
<path d="M92.5576 25.7121H94.6126L93.5926 23.1133L92.5576 25.7121Z" fill="white"/>
<path d="M100.53 15.8789V15.8565C100.53 15.482 100.23 15.2349 99.5924 15.2349H98.1299V16.508H99.6149C100.192 16.508 100.53 16.2834 100.53 15.8789Z" fill="white"/>
<path d="M131.505 16.4553C132.563 16.4553 133.26 15.609 133.26 14.6129V14.5904C133.26 13.5943 132.54 12.7256 131.483 12.7256C130.433 12.7256 129.735 13.5719 129.735 14.568V14.5904C129.735 15.5865 130.455 16.4553 131.505 16.4553Z" fill="white"/>
<path d="M76.2 8.08984L66.3975 31.2917H157.957V8.08984H76.2ZM127.77 14.5906C127.77 12.6059 129.367 11.0032 131.505 11.0032C133.642 11.0032 135.217 12.5909 135.217 14.5756V14.598C135.217 16.5827 133.62 18.1929 131.482 18.1929C129.345 18.1929 127.77 16.6052 127.77 14.6205V14.5906ZM120.247 11.138H122.032L124.875 14.7853V11.138H126.772V18.0431H125.092L122.137 14.2535V18.0431H120.24V11.138H120.247ZM113.145 11.138H116.415C117.472 11.138 118.2 11.4151 118.665 11.8869C119.07 12.2839 119.28 12.8156 119.28 13.4971V13.5196C119.28 14.5756 118.717 15.2721 117.855 15.6391L119.505 18.0431H117.292L115.897 15.9536H115.875H115.057V18.0431H113.137V11.138H113.145ZM106.56 11.138H112.125V12.7632H108.457V13.8117H111.78V15.3245H108.457V16.4179H112.17V18.0431H106.56V11.138ZM103.365 11.138H105.292V18.0431H103.365V11.138ZM96.2625 11.138H99.81C100.68 11.138 101.295 11.3552 101.7 11.7596C101.977 12.0367 102.142 12.4037 102.142 12.8755V12.898C102.142 13.6993 101.685 14.1712 101.077 14.4333C101.917 14.7104 102.45 15.1822 102.45 16.1184V16.1408C102.45 17.3242 101.482 18.0431 99.8325 18.0431H96.2625V11.138ZM87.8175 14.5906C87.8175 12.6059 89.415 11.0032 91.5525 11.0032C93.69 11.0032 95.265 12.5909 95.265 14.5756V14.598C95.265 16.5827 93.6675 18.1929 91.53 18.1929C89.3925 18.1929 87.8175 16.6052 87.8175 14.6205V14.5906ZM80.22 14.5906C80.22 12.5759 81.8025 11.0032 83.9475 11.0032C85.1625 11.0032 86.025 11.3776 86.7525 12.0067L85.6275 13.3548C85.1325 12.9429 84.6375 12.7033 83.955 12.7033C82.9575 12.7033 82.185 13.5421 82.185 14.598V14.6205C82.185 15.7364 82.965 16.5378 84.06 16.5378C84.525 16.5378 84.8775 16.4404 85.17 16.2532V15.4144H83.805V14.0139H86.985V17.1219C86.2575 17.7211 85.2375 18.1854 83.985 18.1854C81.8325 18.1854 80.22 16.7025 80.22 14.613V14.5906ZM88.2 26.4911C88.2 28.3559 86.7225 29.4643 84.5025 29.4643C82.8825 29.4643 81.345 28.955 80.22 27.9515L81.63 26.2664C82.53 26.9853 83.535 27.3598 84.5925 27.3598C85.2675 27.3598 85.635 27.1276 85.635 26.7307V26.7082C85.635 26.3338 85.335 26.1241 84.0975 25.832C82.155 25.3901 80.6475 24.8434 80.6475 22.9636V22.9486C80.6475 21.256 81.99 20.0278 84.1875 20.0278C85.74 20.0278 86.955 20.4472 87.945 21.2411L86.6775 23.031C85.845 22.4468 84.93 22.1323 84.12 22.1323C83.505 22.1323 83.205 22.3944 83.205 22.7164V22.7389C83.205 23.1583 83.52 23.3381 84.7875 23.6227C86.8875 24.0795 88.1925 24.761 88.1925 26.4686V26.4911H88.2ZM96.0075 29.3145L95.34 27.6819H91.815L91.1625 29.3145H88.5L92.3925 20.1177H94.8375L98.73 29.3145H96.0075ZM108.247 29.3145H106.027L102.12 24.3042V29.3145H99.615V20.1851H101.977L105.735 25.0082V20.1851H108.24V29.3145H108.247ZM117.375 22.4019H114.63V29.3145H112.095V22.4019H109.35V20.1851H117.367V22.4019H117.375ZM121.08 29.3145H118.53V20.1851H121.08V29.3145ZM129.532 29.3145L128.865 27.6819H125.34L124.687 29.3145H122.025L125.917 20.1177H128.362L132.255 29.3145H129.532ZM141.18 28.0863C140.212 28.8801 138.87 29.4943 137.212 29.4943C134.362 29.4943 132.24 27.5396 132.24 24.776V24.746C132.24 22.0873 134.332 19.9978 137.16 19.9978C138.765 19.9978 139.905 20.4921 140.872 21.3309L139.38 23.1209C138.727 22.5742 138.075 22.2596 137.175 22.2596C135.855 22.2596 134.835 23.368 134.835 24.761V24.7835C134.835 26.2589 135.87 27.3149 137.317 27.3149C137.932 27.3149 138.405 27.1876 138.78 26.9404V25.832H136.98V23.9821H141.187V28.0863H141.18ZM138.952 18.0431V11.138H141.622C144.09 11.138 145.522 12.561 145.522 14.5531V14.5756C145.522 16.5677 144.067 18.0506 141.577 18.0506H138.952V18.0431ZM152.122 24.746C152.122 27.3673 150.007 29.4943 147.187 29.4943C144.367 29.4943 142.275 27.3973 142.275 24.776V24.746C142.275 22.1248 144.39 19.9978 147.21 19.9978C150.03 19.9978 152.122 22.0948 152.122 24.7161V24.746ZM152.122 18.0431H146.512V11.138H152.077V12.7632H148.41V13.8117H151.732V15.3245H148.41V16.4179H152.122V18.0431Z" fill="white"/>
<path d="M100.245 13.2875V13.265C100.245 12.8905 99.9449 12.6733 99.3749 12.6733H98.1299V13.8866H99.3374C99.9224 13.8941 100.245 13.6919 100.245 13.2875Z" fill="white"/>
<path d="M147.188 22.2822C145.8 22.2822 144.878 23.4056 144.878 24.7237V24.7462C144.878 26.0643 145.83 27.2102 147.218 27.2102C148.613 27.2102 149.543 26.0868 149.543 24.7687V24.7462C149.535 23.4281 148.583 22.2822 147.188 22.2822Z" fill="white"/>
</svg>
