<svg width="40" height="22" viewBox="0 0 40 22" fill="none" xmlns="http://www.w3.org/2000/svg">
<g id="Group 16">
<path id="Vector" d="M33.3291 7.82508C33.2277 7.65502 33.1125 7.49132 32.9825 7.33546C32.3949 6.63314 31.5917 6.16802 30.5725 5.94061C30.4444 5.91415 30.2619 5.87396 30.0255 5.82005C28.5472 5.50589 27.8079 5.14125 27.8079 4.72612C27.8079 4.50508 27.9093 4.33306 28.1115 4.20955C28.3143 4.08555 28.6012 4.0238 28.9721 4.0238C29.4582 4.0238 29.9592 4.1228 30.4755 4.31982C30.9919 4.51734 31.5067 4.80307 32.0195 5.178L33.6397 1.33457C32.8024 0.886607 31.9721 0.551863 31.1486 0.331314C30.3262 0.110275 29.4894 0 28.6387 0C26.7891 0 25.294 0.49501 24.1531 1.48503C23.0121 2.47505 22.4419 3.75963 22.4419 5.33827C22.4419 6.35525 22.7357 7.2046 23.3227 7.88684C23.9103 8.56907 24.7569 9.04398 25.8643 9.31158C26.0532 9.35177 26.3163 9.40863 26.6541 9.48214C27.7006 9.69632 28.2233 10.0075 28.2233 10.4153C28.2233 10.6496 28.1185 10.8353 27.9093 10.9721C27.7001 11.1093 27.4132 11.1779 27.0487 11.1779C26.529 11.1779 25.9706 11.0559 25.3732 10.8118C24.7757 10.5677 24.0957 10.1815 23.3331 9.6527L21.6318 13.7667C22.6036 14.3151 23.5759 14.7268 24.5478 15.0008C25.5201 15.2752 26.4919 15.412 27.4642 15.412C28.5181 15.412 29.4617 15.2522 30.296 14.9341L33.3296 7.82361L33.3291 7.82508Z" fill="#0D3A5C"/>
<path id="Vector_2" d="M21.0241 6.98406C21.0172 6.83702 21.0073 6.61255 20.9939 6.31163H12.8021V9.76347H15.121C15.0602 10.1448 14.8693 10.4423 14.5488 10.6564C14.2284 10.8706 13.8114 10.9775 13.2981 10.9775C12.4341 10.9775 11.7655 10.6912 11.2932 10.1193C10.8204 9.54733 10.5845 8.74306 10.5845 7.70599C10.5845 6.66892 10.8189 5.90337 11.2882 5.30788C11.7571 4.7124 12.3866 4.4149 13.1764 4.4149C13.6285 4.4149 14.0305 4.51538 14.3812 4.71583C14.7323 4.91629 15.0325 5.22113 15.2823 5.6289L20.031 3.88314C19.2818 2.61228 18.3164 1.64726 17.1349 0.98806C15.9544 0.329353 14.6042 0 13.0854 0C12.2205 0 11.4015 0.112235 10.629 0.335725L5.96973 11.2568C6.33075 11.9778 6.80949 12.6306 7.40494 13.2158C8.14727 13.9382 8.99989 14.4852 9.9618 14.8567C10.9237 15.2282 11.9648 15.4134 13.0854 15.4134C14.6042 15.4134 15.9613 15.0807 17.1557 14.4151C18.3505 13.7495 19.3258 12.7879 20.082 11.5303C20.3925 10.9951 20.6289 10.38 20.7907 9.68407C20.9529 8.9886 21.0335 8.21913 21.0335 7.37614C21.0335 7.26244 21.03 7.13207 21.0236 6.98504" fill="#0D3A5C"/>
<path id="Vector_3" d="M39.6102 17.174H0V22.0001H39.6102V17.174Z" fill="#E74810"/>
<path id="Vector_4" d="M1.18116 19.6078V19.6029C1.18116 19.1108 1.56098 18.6942 2.0951 18.6942C2.4042 18.6942 2.59411 18.7795 2.77611 18.9324L2.57878 19.1657C2.44179 19.0505 2.30776 18.9775 2.08224 18.9775C1.75534 18.9775 1.50757 19.2613 1.50757 19.5975V19.6024C1.50757 19.9636 1.74792 20.2297 2.11043 20.2297C2.2776 20.2297 2.42942 20.1768 2.53823 20.0969V19.768H2.08472V19.4995H2.83941V20.2371C2.66483 20.3851 2.41409 20.5106 2.10005 20.5106C1.54565 20.5106 1.18066 20.119 1.18066 19.6073" fill="white"/>
<path id="Vector_5" d="M3.37012 19.6078V19.6029C3.37012 19.1084 3.75488 18.6942 4.29939 18.6942C4.8439 18.6942 5.22372 19.1035 5.22372 19.5975V19.6024C5.22372 20.0969 4.83896 20.511 4.29445 20.511C3.74994 20.511 3.37012 20.1018 3.37012 19.6078ZM4.89731 19.6078V19.6029C4.89731 19.2618 4.64657 18.978 4.29445 18.978C3.94232 18.978 3.69702 19.2564 3.69702 19.598V19.6029C3.69702 19.944 3.94776 20.2253 4.29989 20.2253C4.65201 20.2253 4.89731 19.9494 4.89731 19.6078Z" fill="white"/>
<path id="Vector_6" d="M5.80273 18.7246H6.59798C6.80075 18.7246 6.96 18.78 7.06139 18.8805C7.14002 18.9584 7.18057 19.0535 7.18057 19.1716V19.1765C7.18057 19.3872 7.05891 19.5005 6.92736 19.5681C7.13508 19.6382 7.27949 19.7563 7.27949 19.9945V19.9994C7.27949 20.3131 7.01885 20.4812 6.6237 20.4812H5.80323V18.7246H5.80273ZM6.869 19.2216C6.869 19.0834 6.75773 18.9981 6.55743 18.9981H6.10936V19.4647H6.53468C6.73448 19.4647 6.869 19.3867 6.869 19.2265V19.2216ZM6.60293 19.7259H6.10887V20.2077H6.62568C6.83834 20.2077 6.96742 20.1249 6.96742 19.9665V19.9616C6.96742 19.8136 6.84823 19.7259 6.60293 19.7259Z" fill="white"/>
<path id="Vector_7" d="M8.16216 18.7246H7.85059V20.4812H8.16216V18.7246Z" fill="white"/>
<path id="Vector_8" d="M8.83887 18.7246H10.1529V19.0005H9.14994V19.4573H10.0392V19.7333H9.14994V20.2052H10.1658V20.4812H8.83887V18.7246Z" fill="white"/>
<path id="Vector_9" d="M10.7373 18.7246H11.5271C11.7502 18.7246 11.9248 18.7898 12.0385 18.9001C12.132 18.9956 12.1854 19.126 12.1854 19.2789V19.2838C12.1854 19.5725 12.0108 19.7455 11.765 19.8161L12.2437 20.4812H11.8738L11.4381 19.869H11.0479V20.4812H10.7363V18.7246H10.7373ZM11.5044 19.5955C11.7274 19.5955 11.8689 19.4799 11.8689 19.302V19.2971C11.8689 19.1089 11.7319 19.0059 11.5019 19.0059H11.0489V19.5955H11.5049H11.5044Z" fill="white"/>
<path id="Vector_10" d="M12.7705 18.7246H13.0593L14.0089 19.9391V18.7246H14.315V20.4812H14.0544L13.0766 19.2314V20.4812H12.7705V18.7246Z" fill="white"/>
<path id="Vector_11" d="M14.8955 19.6078V19.6029C14.8955 19.1084 15.2803 18.6942 15.8248 18.6942C16.3693 18.6942 16.7491 19.1035 16.7491 19.5975V19.6024C16.7491 20.0969 16.3643 20.511 15.8198 20.511C15.2753 20.511 14.8955 20.1018 14.8955 19.6078ZM16.4227 19.6078V19.6029C16.4227 19.2618 16.172 18.978 15.8198 18.978C15.4677 18.978 15.2224 19.2564 15.2224 19.598V19.6029C15.2224 19.944 15.4732 20.2253 15.8253 20.2253C16.1774 20.2253 16.4227 19.9494 16.4227 19.6078Z" fill="white"/>
<path id="Vector_12" d="M18.29 18.7246H18.9508C19.5081 18.7246 19.8929 19.1035 19.8929 19.598V19.6029C19.8929 20.0974 19.5081 20.4812 18.9508 20.4812H18.29V18.7246ZM18.6016 19.0054V20.1998H18.9513C19.3237 20.1998 19.5665 19.9514 19.5665 19.6078V19.6029C19.5665 19.2588 19.3237 19.0054 18.9513 19.0054H18.6016Z" fill="white"/>
<path id="Vector_13" d="M20.4736 18.7246H21.7877V19.0005H20.7847V19.4573H21.6739V19.7333H20.7847V20.2052H21.8005V20.4812H20.4736V18.7246Z" fill="white"/>
<path id="Vector_14" d="M23.2148 20.2248L23.4023 20.0038C23.5719 20.1493 23.744 20.2322 23.9621 20.2322C24.1545 20.2322 24.2762 20.142 24.2762 20.0111V20.0062C24.2762 19.8808 24.2054 19.8131 23.8761 19.7376C23.4987 19.6475 23.2861 19.5367 23.2861 19.2132V19.2083C23.2861 18.9074 23.5393 18.6991 23.8914 18.6991C24.1496 18.6991 24.3548 18.777 24.5348 18.9201L24.3677 19.1534C24.2079 19.0353 24.0487 18.9726 23.8865 18.9726C23.704 18.9726 23.5976 19.0652 23.5976 19.1809V19.1858C23.5976 19.3215 23.6787 19.3813 24.0205 19.4617C24.3954 19.5519 24.5877 19.6852 24.5877 19.9763V19.9812C24.5877 20.3101 24.3271 20.5056 23.9547 20.5056C23.6837 20.5056 23.428 20.4125 23.2153 20.2243" fill="white"/>
<path id="Vector_15" d="M25.7472 18.7119H26.036L26.816 20.4812H26.4866L26.3066 20.0573H25.4683L25.2858 20.4812H24.9668L25.7467 18.7119H25.7472ZM26.1928 19.7833L25.8862 19.0805L25.5825 19.7833H26.1928Z" fill="white"/>
<path id="Vector_16" d="M27.3223 18.7246H27.6111L28.5606 19.9391V18.7246H28.8668V20.4812H28.6061L27.6284 19.2314V20.4812H27.3223V18.7246Z" fill="white"/>
<path id="Vector_17" d="M29.9608 19.0103H29.3984V18.7246H30.8371V19.0103H30.2748V20.4812H29.9608V19.0103Z" fill="white"/>
<path id="Vector_18" d="M31.6983 18.7246H31.3867V20.4812H31.6983V18.7246Z" fill="white"/>
<path id="Vector_19" d="M33.0021 18.7119H33.2909L34.0708 20.4812H33.7415L33.5614 20.0573H32.7232L32.5407 20.4812H32.2217L33.0016 18.7119H33.0021ZM33.4477 19.7833L33.1411 19.0805L32.8374 19.7833H33.4477Z" fill="white"/>
<path id="Vector_20" d="M34.3867 19.6078V19.6029C34.3867 19.1108 34.7665 18.6942 35.3007 18.6942C35.6098 18.6942 35.7997 18.7795 35.9817 18.9324L35.7843 19.1657C35.6473 19.0505 35.5133 18.9775 35.2878 18.9775C34.9614 18.9775 34.7131 19.2613 34.7131 19.5975V19.6024C34.7131 19.9636 34.9535 20.2297 35.316 20.2297C35.4832 20.2297 35.635 20.1768 35.7438 20.0969V19.768H35.2908V19.4995H36.0455V20.2371C35.8709 20.3851 35.6201 20.5106 35.3061 20.5106C34.7517 20.5106 34.3867 20.119 34.3867 19.6073" fill="white"/>
<path id="Vector_21" d="M36.5752 19.6078V19.6029C36.5752 19.1084 36.96 18.6942 37.5045 18.6942C38.049 18.6942 38.4288 19.1035 38.4288 19.5975V19.6024C38.4288 20.0969 38.044 20.511 37.4995 20.511C36.955 20.511 36.5752 20.1018 36.5752 19.6078ZM38.1024 19.6078V19.6029C38.1024 19.2618 37.8517 18.978 37.4995 18.978C37.1474 18.978 36.9021 19.2564 36.9021 19.598V19.6029C36.9021 19.944 37.1528 20.2253 37.505 20.2253C37.8571 20.2253 38.1024 19.9494 38.1024 19.6078Z" fill="white"/>
</g>
</svg>
