<svg width="224" height="76" viewBox="0 0 224 76" fill="none" xmlns="http://www.w3.org/2000/svg">
<path d="M59.1719 30.8203L69.2266 1.875H74.125L61.4922 36H58L59.1719 30.8203ZM49.7734 1.875L59.7344 30.8203L60.9766 36H57.4844L44.875 1.875H49.7734ZM83.2734 10.6406V36H78.9141V10.6406H83.2734ZM78.5859 3.91406C78.5859 3.21094 78.7969 2.61719 79.2188 2.13281C79.6562 1.64844 80.2969 1.40625 81.1406 1.40625C81.9688 1.40625 82.6016 1.64844 83.0391 2.13281C83.4922 2.61719 83.7188 3.21094 83.7188 3.91406C83.7188 4.58594 83.4922 5.16406 83.0391 5.64844C82.6016 6.11719 81.9688 6.35156 81.1406 6.35156C80.2969 6.35156 79.6562 6.11719 79.2188 5.64844C78.7969 5.16406 78.5859 4.58594 78.5859 3.91406ZM105.5 29.2734C105.5 28.6484 105.359 28.0703 105.078 27.5391C104.812 26.9922 104.258 26.5 103.414 26.0625C102.586 25.6094 101.336 25.2188 99.6641 24.8906C98.2578 24.5938 96.9844 24.2422 95.8438 23.8359C94.7188 23.4297 93.7578 22.9375 92.9609 22.3594C92.1797 21.7812 91.5781 21.1016 91.1562 20.3203C90.7344 19.5391 90.5234 18.625 90.5234 17.5781C90.5234 16.5781 90.7422 15.6328 91.1797 14.7422C91.6328 13.8516 92.2656 13.0625 93.0781 12.375C93.9062 11.6875 94.8984 11.1484 96.0547 10.7578C97.2109 10.3672 98.5 10.1719 99.9219 10.1719C101.953 10.1719 103.688 10.5312 105.125 11.25C106.562 11.9688 107.664 12.9297 108.43 14.1328C109.195 15.3203 109.578 16.6406 109.578 18.0938H105.242C105.242 17.3906 105.031 16.7109 104.609 16.0547C104.203 15.3828 103.602 14.8281 102.805 14.3906C102.023 13.9531 101.062 13.7344 99.9219 13.7344C98.7188 13.7344 97.7422 13.9219 96.9922 14.2969C96.2578 14.6562 95.7188 15.1172 95.375 15.6797C95.0469 16.2422 94.8828 16.8359 94.8828 17.4609C94.8828 17.9297 94.9609 18.3516 95.1172 18.7266C95.2891 19.0859 95.5859 19.4219 96.0078 19.7344C96.4297 20.0312 97.0234 20.3125 97.7891 20.5781C98.5547 20.8438 99.5312 21.1094 100.719 21.375C102.797 21.8438 104.508 22.4062 105.852 23.0625C107.195 23.7188 108.195 24.5234 108.852 25.4766C109.508 26.4297 109.836 27.5859 109.836 28.9453C109.836 30.0547 109.602 31.0703 109.133 31.9922C108.68 32.9141 108.016 33.7109 107.141 34.3828C106.281 35.0391 105.25 35.5547 104.047 35.9297C102.859 36.2891 101.523 36.4688 100.039 36.4688C97.8047 36.4688 95.9141 36.0703 94.3672 35.2734C92.8203 34.4766 91.6484 33.4453 90.8516 32.1797C90.0547 30.9141 89.6562 29.5781 89.6562 28.1719H94.0156C94.0781 29.3594 94.4219 30.3047 95.0469 31.0078C95.6719 31.6953 96.4375 32.1875 97.3438 32.4844C98.25 32.7656 99.1484 32.9062 100.039 32.9062C101.227 32.9062 102.219 32.75 103.016 32.4375C103.828 32.125 104.445 31.6953 104.867 31.1484C105.289 30.6016 105.5 29.9766 105.5 29.2734ZM120.742 10.6406V36H116.383V10.6406H120.742ZM116.055 3.91406C116.055 3.21094 116.266 2.61719 116.688 2.13281C117.125 1.64844 117.766 1.40625 118.609 1.40625C119.438 1.40625 120.07 1.64844 120.508 2.13281C120.961 2.61719 121.188 3.21094 121.188 3.91406C121.188 4.58594 120.961 5.16406 120.508 5.64844C120.07 6.11719 119.438 6.35156 118.609 6.35156C117.766 6.35156 117.125 6.11719 116.688 5.64844C116.266 5.16406 116.055 4.58594 116.055 3.91406ZM127.055 23.6016V23.0625C127.055 21.2344 127.32 19.5391 127.852 17.9766C128.383 16.3984 129.148 15.0312 130.148 13.875C131.148 12.7031 132.359 11.7969 133.781 11.1562C135.203 10.5 136.797 10.1719 138.562 10.1719C140.344 10.1719 141.945 10.5 143.367 11.1562C144.805 11.7969 146.023 12.7031 147.023 13.875C148.039 15.0312 148.812 16.3984 149.344 17.9766C149.875 19.5391 150.141 21.2344 150.141 23.0625V23.6016C150.141 25.4297 149.875 27.125 149.344 28.6875C148.812 30.25 148.039 31.6172 147.023 32.7891C146.023 33.9453 144.812 34.8516 143.391 35.5078C141.984 36.1484 140.391 36.4688 138.609 36.4688C136.828 36.4688 135.227 36.1484 133.805 35.5078C132.383 34.8516 131.164 33.9453 130.148 32.7891C129.148 31.6172 128.383 30.25 127.852 28.6875C127.32 27.125 127.055 25.4297 127.055 23.6016ZM131.391 23.0625V23.6016C131.391 24.8672 131.539 26.0625 131.836 27.1875C132.133 28.2969 132.578 29.2812 133.172 30.1406C133.781 31 134.539 31.6797 135.445 32.1797C136.352 32.6641 137.406 32.9062 138.609 32.9062C139.797 32.9062 140.836 32.6641 141.727 32.1797C142.633 31.6797 143.383 31 143.977 30.1406C144.57 29.2812 145.016 28.2969 145.312 27.1875C145.625 26.0625 145.781 24.8672 145.781 23.6016V23.0625C145.781 21.8125 145.625 20.6328 145.312 19.5234C145.016 18.3984 144.562 17.4062 143.953 16.5469C143.359 15.6719 142.609 14.9844 141.703 14.4844C140.812 13.9844 139.766 13.7344 138.562 13.7344C137.375 13.7344 136.328 13.9844 135.422 14.4844C134.531 14.9844 133.781 15.6719 133.172 16.5469C132.578 17.4062 132.133 18.3984 131.836 19.5234C131.539 20.6328 131.391 21.8125 131.391 23.0625ZM135.984 6.89062L140.531 0H145.758L139.477 6.89062H135.984ZM160.414 16.0547V36H156.078V10.6406H160.18L160.414 16.0547ZM159.383 22.3594L157.578 22.2891C157.594 20.5547 157.852 18.9531 158.352 17.4844C158.852 16 159.555 14.7109 160.461 13.6172C161.367 12.5234 162.445 11.6797 163.695 11.0859C164.961 10.4766 166.359 10.1719 167.891 10.1719C169.141 10.1719 170.266 10.3438 171.266 10.6875C172.266 11.0156 173.117 11.5469 173.82 12.2812C174.539 13.0156 175.086 13.9688 175.461 15.1406C175.836 16.2969 176.023 17.7109 176.023 19.3828V36H171.664V19.3359C171.664 18.0078 171.469 16.9453 171.078 16.1484C170.688 15.3359 170.117 14.75 169.367 14.3906C168.617 14.0156 167.695 13.8281 166.602 13.8281C165.523 13.8281 164.539 14.0547 163.648 14.5078C162.773 14.9609 162.016 15.5859 161.375 16.3828C160.75 17.1797 160.258 18.0938 159.898 19.125C159.555 20.1406 159.383 21.2188 159.383 22.3594ZM12.0312 70.9688C12.9531 70.9688 13.7812 70.7891 14.5156 70.4297C15.2656 70.0547 15.8672 69.5391 16.3203 68.8828C16.7891 68.2266 17.0469 67.4688 17.0938 66.6094H22.4141C22.3828 68.25 21.8984 69.7422 20.9609 71.0859C20.0234 72.4297 18.7812 73.5 17.2344 74.2969C15.6875 75.0781 13.9766 75.4688 12.1016 75.4688C10.1641 75.4688 8.47656 75.1406 7.03906 74.4844C5.60156 73.8125 4.40625 72.8906 3.45312 71.7188C2.5 70.5469 1.78125 69.1953 1.29688 67.6641C0.828125 66.1328 0.59375 64.4922 0.59375 62.7422V61.9219C0.59375 60.1719 0.828125 58.5312 1.29688 57C1.78125 55.4531 2.5 54.0938 3.45312 52.9219C4.40625 51.75 5.60156 50.8359 7.03906 50.1797C8.47656 49.5078 10.1562 49.1719 12.0781 49.1719C14.1094 49.1719 15.8906 49.5781 17.4219 50.3906C18.9531 51.1875 20.1562 52.3047 21.0312 53.7422C21.9219 55.1641 22.3828 56.8203 22.4141 58.7109H17.0938C17.0469 57.7734 16.8125 56.9297 16.3906 56.1797C15.9844 55.4141 15.4062 54.8047 14.6562 54.3516C13.9219 53.8984 13.0391 53.6719 12.0078 53.6719C10.8672 53.6719 9.92188 53.9062 9.17188 54.375C8.42188 54.8281 7.83594 55.4531 7.41406 56.25C6.99219 57.0312 6.6875 57.9141 6.5 58.8984C6.32812 59.8672 6.24219 60.875 6.24219 61.9219V62.7422C6.24219 63.7891 6.32812 64.8047 6.5 65.7891C6.67188 66.7734 6.96875 67.6562 7.39062 68.4375C7.82812 69.2031 8.42188 69.8203 9.17188 70.2891C9.92188 70.7422 10.875 70.9688 12.0312 70.9688ZM33.2969 49.6406V75H27.625V49.6406H33.2969ZM27.25 42.9844C27.25 42.125 27.5312 41.4141 28.0938 40.8516C28.6719 40.2734 29.4688 39.9844 30.4844 39.9844C31.4844 39.9844 32.2734 40.2734 32.8516 40.8516C33.4297 41.4141 33.7188 42.125 33.7188 42.9844C33.7188 43.8281 33.4297 44.5312 32.8516 45.0938C32.2734 45.6562 31.4844 45.9375 30.4844 45.9375C29.4688 45.9375 28.6719 45.6562 28.0938 45.0938C27.5312 44.5312 27.25 43.8281 27.25 42.9844ZM55.2422 69.0234V49.6406H60.9141V75H55.5703L55.2422 69.0234ZM56.0391 63.75L57.9375 63.7031C57.9375 65.4062 57.75 66.9766 57.375 68.4141C57 69.8359 56.4219 71.0781 55.6406 72.1406C54.8594 73.1875 53.8594 74.0078 52.6406 74.6016C51.4219 75.1797 49.9609 75.4688 48.2578 75.4688C47.0234 75.4688 45.8906 75.2891 44.8594 74.9297C43.8281 74.5703 42.9375 74.0156 42.1875 73.2656C41.4531 72.5156 40.8828 71.5391 40.4766 70.3359C40.0703 69.1328 39.8672 67.6953 39.8672 66.0234V49.6406H45.5156V66.0703C45.5156 66.9922 45.625 67.7656 45.8438 68.3906C46.0625 69 46.3594 69.4922 46.7344 69.8672C47.1094 70.2422 47.5469 70.5078 48.0469 70.6641C48.5469 70.8203 49.0781 70.8984 49.6406 70.8984C51.25 70.8984 52.5156 70.5859 53.4375 69.9609C54.375 69.3203 55.0391 68.4609 55.4297 67.3828C55.8359 66.3047 56.0391 65.0938 56.0391 63.75ZM82.6719 69.75V39H88.3438V75H83.2109L82.6719 69.75ZM66.1719 62.6016V62.1094C66.1719 60.1875 66.3984 58.4375 66.8516 56.8594C67.3047 55.2656 67.9609 53.8984 68.8203 52.7578C69.6797 51.6016 70.7266 50.7188 71.9609 50.1094C73.1953 49.4844 74.5859 49.1719 76.1328 49.1719C77.6641 49.1719 79.0078 49.4688 80.1641 50.0625C81.3203 50.6562 82.3047 51.5078 83.1172 52.6172C83.9297 53.7109 84.5781 55.0234 85.0625 56.5547C85.5469 58.0703 85.8906 59.7578 86.0938 61.6172V63.1875C85.8906 65 85.5469 66.6562 85.0625 68.1562C84.5781 69.6562 83.9297 70.9531 83.1172 72.0469C82.3047 73.1406 81.3125 73.9844 80.1406 74.5781C78.9844 75.1719 77.6328 75.4688 76.0859 75.4688C74.5547 75.4688 73.1719 75.1484 71.9375 74.5078C70.7188 73.8672 69.6797 72.9688 68.8203 71.8125C67.9609 70.6562 67.3047 69.2969 66.8516 67.7344C66.3984 66.1562 66.1719 64.4453 66.1719 62.6016ZM71.8203 62.1094V62.6016C71.8203 63.7578 71.9219 64.8359 72.125 65.8359C72.3438 66.8359 72.6797 67.7188 73.1328 68.4844C73.5859 69.2344 74.1719 69.8281 74.8906 70.2656C75.625 70.6875 76.5 70.8984 77.5156 70.8984C78.7969 70.8984 79.8516 70.6172 80.6797 70.0547C81.5078 69.4922 82.1562 68.7344 82.625 67.7812C83.1094 66.8125 83.4375 65.7344 83.6094 64.5469V60.3047C83.5156 59.3828 83.3203 58.5234 83.0234 57.7266C82.7422 56.9297 82.3594 56.2344 81.875 55.6406C81.3906 55.0312 80.7891 54.5625 80.0703 54.2344C79.3672 53.8906 78.5312 53.7188 77.5625 53.7188C76.5312 53.7188 75.6562 53.9375 74.9375 54.375C74.2188 54.8125 73.625 55.4141 73.1562 56.1797C72.7031 56.9453 72.3672 57.8359 72.1484 58.8516C71.9297 59.8672 71.8203 60.9531 71.8203 62.1094ZM109.047 69.9141V57.8203C109.047 56.9141 108.883 56.1328 108.555 55.4766C108.227 54.8203 107.727 54.3125 107.055 53.9531C106.398 53.5938 105.57 53.4141 104.57 53.4141C103.648 53.4141 102.852 53.5703 102.18 53.8828C101.508 54.1953 100.984 54.6172 100.609 55.1484C100.234 55.6797 100.047 56.2812 100.047 56.9531H94.4219C94.4219 55.9531 94.6641 54.9844 95.1484 54.0469C95.6328 53.1094 96.3359 52.2734 97.2578 51.5391C98.1797 50.8047 99.2812 50.2266 100.562 49.8047C101.844 49.3828 103.281 49.1719 104.875 49.1719C106.781 49.1719 108.469 49.4922 109.938 50.1328C111.422 50.7734 112.586 51.7422 113.43 53.0391C114.289 54.3203 114.719 55.9297 114.719 57.8672V69.1406C114.719 70.2969 114.797 71.3359 114.953 72.2578C115.125 73.1641 115.367 73.9531 115.68 74.625V75H109.891C109.625 74.3906 109.414 73.6172 109.258 72.6797C109.117 71.7266 109.047 70.8047 109.047 69.9141ZM109.867 59.5781L109.914 63.0703H105.859C104.812 63.0703 103.891 63.1719 103.094 63.375C102.297 63.5625 101.633 63.8438 101.102 64.2188C100.57 64.5938 100.172 65.0469 99.9062 65.5781C99.6406 66.1094 99.5078 66.7109 99.5078 67.3828C99.5078 68.0547 99.6641 68.6719 99.9766 69.2344C100.289 69.7812 100.742 70.2109 101.336 70.5234C101.945 70.8359 102.68 70.9922 103.539 70.9922C104.695 70.9922 105.703 70.7578 106.562 70.2891C107.438 69.8047 108.125 69.2188 108.625 68.5312C109.125 67.8281 109.391 67.1641 109.422 66.5391L111.25 69.0469C111.062 69.6875 110.742 70.375 110.289 71.1094C109.836 71.8438 109.242 72.5469 108.508 73.2188C107.789 73.875 106.922 74.4141 105.906 74.8359C104.906 75.2578 103.75 75.4688 102.438 75.4688C100.781 75.4688 99.3047 75.1406 98.0078 74.4844C96.7109 73.8125 95.6953 72.9141 94.9609 71.7891C94.2266 70.6484 93.8594 69.3594 93.8594 67.9219C93.8594 66.5781 94.1094 65.3906 94.6094 64.3594C95.125 63.3125 95.875 62.4375 96.8594 61.7344C97.8594 61.0312 99.0781 60.5 100.516 60.1406C101.953 59.7656 103.594 59.5781 105.438 59.5781H109.867ZM136.594 69.75V39H142.266V75H137.133L136.594 69.75ZM120.094 62.6016V62.1094C120.094 60.1875 120.32 58.4375 120.773 56.8594C121.227 55.2656 121.883 53.8984 122.742 52.7578C123.602 51.6016 124.648 50.7188 125.883 50.1094C127.117 49.4844 128.508 49.1719 130.055 49.1719C131.586 49.1719 132.93 49.4688 134.086 50.0625C135.242 50.6562 136.227 51.5078 137.039 52.6172C137.852 53.7109 138.5 55.0234 138.984 56.5547C139.469 58.0703 139.812 59.7578 140.016 61.6172V63.1875C139.812 65 139.469 66.6562 138.984 68.1562C138.5 69.6562 137.852 70.9531 137.039 72.0469C136.227 73.1406 135.234 73.9844 134.062 74.5781C132.906 75.1719 131.555 75.4688 130.008 75.4688C128.477 75.4688 127.094 75.1484 125.859 74.5078C124.641 73.8672 123.602 72.9688 122.742 71.8125C121.883 70.6562 121.227 69.2969 120.773 67.7344C120.32 66.1562 120.094 64.4453 120.094 62.6016ZM125.742 62.1094V62.6016C125.742 63.7578 125.844 64.8359 126.047 65.8359C126.266 66.8359 126.602 67.7188 127.055 68.4844C127.508 69.2344 128.094 69.8281 128.812 70.2656C129.547 70.6875 130.422 70.8984 131.438 70.8984C132.719 70.8984 133.773 70.6172 134.602 70.0547C135.43 69.4922 136.078 68.7344 136.547 67.7812C137.031 66.8125 137.359 65.7344 137.531 64.5469V60.3047C137.438 59.3828 137.242 58.5234 136.945 57.7266C136.664 56.9297 136.281 56.2344 135.797 55.6406C135.312 55.0312 134.711 54.5625 133.992 54.2344C133.289 53.8906 132.453 53.7188 131.484 53.7188C130.453 53.7188 129.578 53.9375 128.859 54.375C128.141 54.8125 127.547 55.4141 127.078 56.1797C126.625 56.9453 126.289 57.8359 126.07 58.8516C125.852 59.8672 125.742 60.9531 125.742 62.1094ZM162.969 69.9141V57.8203C162.969 56.9141 162.805 56.1328 162.477 55.4766C162.148 54.8203 161.648 54.3125 160.977 53.9531C160.32 53.5938 159.492 53.4141 158.492 53.4141C157.57 53.4141 156.773 53.5703 156.102 53.8828C155.43 54.1953 154.906 54.6172 154.531 55.1484C154.156 55.6797 153.969 56.2812 153.969 56.9531H148.344C148.344 55.9531 148.586 54.9844 149.07 54.0469C149.555 53.1094 150.258 52.2734 151.18 51.5391C152.102 50.8047 153.203 50.2266 154.484 49.8047C155.766 49.3828 157.203 49.1719 158.797 49.1719C160.703 49.1719 162.391 49.4922 163.859 50.1328C165.344 50.7734 166.508 51.7422 167.352 53.0391C168.211 54.3203 168.641 55.9297 168.641 57.8672V69.1406C168.641 70.2969 168.719 71.3359 168.875 72.2578C169.047 73.1641 169.289 73.9531 169.602 74.625V75H163.812C163.547 74.3906 163.336 73.6172 163.18 72.6797C163.039 71.7266 162.969 70.8047 162.969 69.9141ZM163.789 59.5781L163.836 63.0703H159.781C158.734 63.0703 157.812 63.1719 157.016 63.375C156.219 63.5625 155.555 63.8438 155.023 64.2188C154.492 64.5938 154.094 65.0469 153.828 65.5781C153.562 66.1094 153.43 66.7109 153.43 67.3828C153.43 68.0547 153.586 68.6719 153.898 69.2344C154.211 69.7812 154.664 70.2109 155.258 70.5234C155.867 70.8359 156.602 70.9922 157.461 70.9922C158.617 70.9922 159.625 70.7578 160.484 70.2891C161.359 69.8047 162.047 69.2188 162.547 68.5312C163.047 67.8281 163.312 67.1641 163.344 66.5391L165.172 69.0469C164.984 69.6875 164.664 70.375 164.211 71.1094C163.758 71.8438 163.164 72.5469 162.43 73.2188C161.711 73.875 160.844 74.4141 159.828 74.8359C158.828 75.2578 157.672 75.4688 156.359 75.4688C154.703 75.4688 153.227 75.1406 151.93 74.4844C150.633 73.8125 149.617 72.9141 148.883 71.7891C148.148 70.6484 147.781 69.3594 147.781 67.9219C147.781 66.5781 148.031 65.3906 148.531 64.3594C149.047 63.3125 149.797 62.4375 150.781 61.7344C151.781 61.0312 153 60.5 154.438 60.1406C155.875 59.7656 157.516 59.5781 159.359 59.5781H163.789ZM180.648 55.0547V75H175V49.6406H180.32L180.648 55.0547ZM179.641 61.3828L177.812 61.3594C177.828 59.5625 178.078 57.9141 178.562 56.4141C179.062 54.9141 179.75 53.625 180.625 52.5469C181.516 51.4688 182.578 50.6406 183.812 50.0625C185.047 49.4688 186.422 49.1719 187.938 49.1719C189.156 49.1719 190.258 49.3438 191.242 49.6875C192.242 50.0156 193.094 50.5547 193.797 51.3047C194.516 52.0547 195.062 53.0312 195.438 54.2344C195.812 55.4219 196 56.8828 196 58.6172V75H190.328V58.5938C190.328 57.375 190.148 56.4141 189.789 55.7109C189.445 54.9922 188.938 54.4844 188.266 54.1875C187.609 53.875 186.789 53.7188 185.805 53.7188C184.836 53.7188 183.969 53.9219 183.203 54.3281C182.438 54.7344 181.789 55.2891 181.258 55.9922C180.742 56.6953 180.344 57.5078 180.062 58.4297C179.781 59.3516 179.641 60.3359 179.641 61.3828ZM216.562 69.9141V57.8203C216.562 56.9141 216.398 56.1328 216.07 55.4766C215.742 54.8203 215.242 54.3125 214.57 53.9531C213.914 53.5938 213.086 53.4141 212.086 53.4141C211.164 53.4141 210.367 53.5703 209.695 53.8828C209.023 54.1953 208.5 54.6172 208.125 55.1484C207.75 55.6797 207.562 56.2812 207.562 56.9531H201.938C201.938 55.9531 202.18 54.9844 202.664 54.0469C203.148 53.1094 203.852 52.2734 204.773 51.5391C205.695 50.8047 206.797 50.2266 208.078 49.8047C209.359 49.3828 210.797 49.1719 212.391 49.1719C214.297 49.1719 215.984 49.4922 217.453 50.1328C218.938 50.7734 220.102 51.7422 220.945 53.0391C221.805 54.3203 222.234 55.9297 222.234 57.8672V69.1406C222.234 70.2969 222.312 71.3359 222.469 72.2578C222.641 73.1641 222.883 73.9531 223.195 74.625V75H217.406C217.141 74.3906 216.93 73.6172 216.773 72.6797C216.633 71.7266 216.562 70.8047 216.562 69.9141ZM217.383 59.5781L217.43 63.0703H213.375C212.328 63.0703 211.406 63.1719 210.609 63.375C209.812 63.5625 209.148 63.8438 208.617 64.2188C208.086 64.5938 207.688 65.0469 207.422 65.5781C207.156 66.1094 207.023 66.7109 207.023 67.3828C207.023 68.0547 207.18 68.6719 207.492 69.2344C207.805 69.7812 208.258 70.2109 208.852 70.5234C209.461 70.8359 210.195 70.9922 211.055 70.9922C212.211 70.9922 213.219 70.7578 214.078 70.2891C214.953 69.8047 215.641 69.2188 216.141 68.5312C216.641 67.8281 216.906 67.1641 216.938 66.5391L218.766 69.0469C218.578 69.6875 218.258 70.375 217.805 71.1094C217.352 71.8438 216.758 72.5469 216.023 73.2188C215.305 73.875 214.438 74.4141 213.422 74.8359C212.422 75.2578 211.266 75.4688 209.953 75.4688C208.297 75.4688 206.82 75.1406 205.523 74.4844C204.227 73.8125 203.211 72.9141 202.477 71.7891C201.742 70.6484 201.375 69.3594 201.375 67.9219C201.375 66.5781 201.625 65.3906 202.125 64.3594C202.641 63.3125 203.391 62.4375 204.375 61.7344C205.375 61.0312 206.594 60.5 208.031 60.1406C209.469 59.7656 211.109 59.5781 212.953 59.5781H217.383Z" fill="black"/>
</svg>
