<svg width="39" height="52" viewBox="0 0 39 52" fill="none" xmlns="http://www.w3.org/2000/svg">
<path d="M26.0894 23.2092C26.3131 23.2092 26.4882 23.0344 26.4882 22.8109C26.4882 22.5875 26.3131 22.4126 26.0894 22.4126C25.8656 22.4126 25.6904 22.5875 25.6904 22.8109C25.6904 23.0246 25.8656 23.2092 26.0894 23.2092Z" fill="white"/>
<path d="M13.4419 38.7048C13.3738 38.7048 13.3252 38.7534 13.3252 38.8214C13.3252 38.8894 13.3738 38.938 13.4419 38.938C13.51 38.938 13.5587 38.8894 13.5587 38.8214C13.5587 38.7534 13.51 38.7048 13.4419 38.7048Z" fill="white"/>
<path d="M18.3941 38.938C18.4622 38.938 18.5108 38.8894 18.5108 38.8214C18.5108 38.7534 18.4622 38.7048 18.3941 38.7048C18.326 38.7048 18.2773 38.7534 18.2773 38.8214C18.2773 38.8797 18.326 38.938 18.3941 38.938Z" fill="white"/>
<path d="M6.47569 35.1783L7.42911 35.7321C7.40965 35.8584 7.39989 35.9847 7.39989 36.1207C7.39989 37.3933 8.12957 38.3648 9.58891 38.666C9.70566 38.6854 9.78349 38.7146 9.83213 38.7243L9.58891 41.0851V41.1045C9.58891 41.6 10.0365 41.9983 10.591 41.9983C11.1456 41.9983 11.5931 41.6 11.5931 41.1045V41.0851L11.3402 38.6272H11.2819V38.462C11.2819 38.2386 11.1942 37.9957 10.9802 37.7917C11.1651 37.7917 11.3986 37.7625 11.6126 37.6362C12.0407 37.3933 12.1769 36.9076 12.1963 36.8493L12.2644 36.5773L12.9455 36.1887V36.3538C12.9455 36.723 13.0913 37.1116 13.3638 37.3739V37.9374V38.0443C12.9746 38.122 12.6535 38.3843 12.5173 38.5009L12.3325 38.666L12.3909 38.9866C12.3909 38.9866 12.4103 39.0741 12.4201 39.0935C12.5271 39.3947 13.0038 39.6472 13.4805 39.6472C13.6653 39.6472 13.8211 39.6181 13.9281 39.589H13.9378C14.0157 39.6861 14.113 39.8318 14.2005 40.0067C14.2978 40.201 14.4243 40.3467 14.5605 40.4633C14.3367 40.7062 14.2296 40.9879 14.2296 41.3085C14.2296 41.736 14.4631 42.0469 14.7161 42.2509C14.5993 42.416 14.5118 42.6298 14.5118 42.8921C14.5118 43.2807 14.6675 43.6013 14.9691 43.8442C14.9301 43.951 14.901 44.0579 14.901 44.1745C14.901 44.4854 15.0663 44.7768 15.329 44.9517C15.3485 45.2723 15.6112 45.5249 15.9322 45.5249C16.2533 45.5249 16.5159 45.2723 16.5354 44.9517C16.7981 44.7768 16.9635 44.4854 16.9635 44.1745C16.9635 44.0579 16.9343 43.951 16.8954 43.8442C17.1872 43.6013 17.343 43.2807 17.343 42.8921C17.343 42.6298 17.2553 42.416 17.1386 42.2509C17.3915 42.0372 17.625 41.736 17.625 41.3085C17.625 40.9879 17.5083 40.7062 17.2943 40.4633C17.4305 40.337 17.5667 40.1913 17.6543 40.0067C17.7418 39.8318 17.8489 39.6764 17.917 39.589H17.9267C18.0337 39.6181 18.1893 39.6472 18.3742 39.6472C18.8509 39.6472 19.3373 39.3947 19.4346 39.0935C19.4443 39.0741 19.4638 38.9866 19.4638 38.9866L19.5223 38.666L19.3373 38.4911C19.2206 38.3843 18.9579 38.1803 18.6369 38.0734V37.4613C18.9871 37.2088 19.172 36.7716 19.172 36.3441V35.9167H18.7439H17.7224C17.2846 35.46 16.6912 35.1686 16.0199 35.1686C15.3486 35.1686 14.7454 35.46 14.3173 35.9167H13.4124L14.7064 35.1686C14.7647 35.1394 14.7842 35.0617 14.7453 35.0131C14.7161 34.9549 14.6383 34.9354 14.5896 34.9743L12.1671 36.3733L11.9628 36.3247C12.0796 36.0915 12.0991 35.8778 12.1088 35.8389L12.1379 35.5572L13.8989 34.0805C13.9475 34.0416 13.9573 33.9639 13.9086 33.9153C13.8697 33.8668 13.7918 33.8571 13.7432 33.9056L11.9726 35.392L11.8947 35.3823C11.9141 35.324 11.9239 35.2657 11.9336 35.2172L12.5271 34.5177L12.3228 34.3331C12.2839 34.2942 12.245 34.2651 12.2061 34.2262L12.994 33.2936C13.033 33.245 13.0331 33.1673 12.9844 33.1284C12.9358 33.0896 12.8579 33.0896 12.819 33.1381L12.0309 34.0805C11.5153 33.7113 10.8731 33.517 10.2018 33.517C9.73485 33.517 9.30685 33.6142 8.93715 33.7793L8.39227 33.1381C8.35335 33.0896 8.2756 33.0798 8.22695 33.1187C8.17831 33.1576 8.16857 33.2353 8.21721 33.2839L8.72314 33.8862C8.47018 34.0319 8.2561 34.2068 8.07125 34.4108L7.44859 33.8959C7.39994 33.8571 7.32207 33.8571 7.28315 33.9056C7.24424 33.9542 7.24424 34.0319 7.29289 34.0708L7.91556 34.5954C7.71125 34.8577 7.5751 35.1686 7.48754 35.4892L6.60217 34.9743C6.5438 34.9451 6.47566 34.9646 6.44647 35.0131C6.40756 35.0714 6.42705 35.1394 6.47569 35.1783ZM14.5993 39.8027C14.4631 39.5307 14.2881 39.2878 14.1811 39.1809C14.0254 39.0255 13.821 39.1906 13.4805 39.1906C13.1205 39.1906 12.8677 38.9963 12.8482 38.9478L12.8287 38.8312C12.926 38.7437 13.2665 38.462 13.6265 38.462C14.0253 38.4523 14.5508 38.666 15.0177 39.5987C15.1053 39.7638 15.2609 39.8804 15.4652 39.9873C15.2998 40.0553 15.1344 40.133 14.9691 40.2301C14.8134 40.1136 14.6869 39.9776 14.5993 39.8027ZM14.8426 38.5592H15.1053C15.1053 38.6855 15.1345 39.0352 15.1345 39.0352C15.1345 39.0352 14.9301 38.6466 14.8426 38.5592ZM16.3506 43.6693C16.1949 43.747 16.0879 43.7956 15.9712 43.9025C15.8933 43.9705 15.8836 44.087 15.9517 44.1648C16.0198 44.2425 16.1366 44.2522 16.2144 44.1842C16.2825 44.1162 16.3506 44.0773 16.4674 44.0287C16.4868 44.0773 16.4966 44.1356 16.4966 44.1842C16.4966 44.4173 16.3214 44.6117 16.0879 44.6797L16.0782 44.9322C16.0782 45.0197 16.01 45.0877 15.9225 45.0877C15.8349 45.0877 15.7669 45.0197 15.7669 44.9322L15.7572 44.6797C15.5139 44.6117 15.3485 44.4173 15.3485 44.1842C15.3485 44.0773 15.3777 43.9802 15.436 43.883C15.6209 43.5916 15.835 43.4653 16.2436 43.1835C16.2533 43.1738 16.2727 43.1641 16.2824 43.1544L16.2922 43.1447C16.2922 43.1447 16.2922 43.1447 16.3019 43.135L16.3117 43.1252C16.3214 43.1155 16.3214 43.1155 16.3311 43.1058C16.3895 43.0475 16.4187 42.9795 16.4187 42.8921C16.4187 42.8144 16.37 42.7366 16.2824 42.6686C16.3214 42.6492 16.3506 42.6298 16.3896 42.6201C16.5063 42.5618 16.6133 42.5132 16.7106 42.4549C16.8079 42.5812 16.876 42.7172 16.876 42.9018C16.8857 43.3098 16.623 43.5236 16.3506 43.6693ZM16.4089 42.1926C16.4187 42.1926 16.4187 42.1926 16.4089 42.1926C16.3505 42.2217 16.2922 42.2606 16.2241 42.2897C16.0004 42.3966 15.8253 42.4743 15.6307 42.6103C15.6112 42.6201 15.6015 42.6298 15.5917 42.6395C15.5917 42.6395 15.582 42.6492 15.5722 42.6492C15.475 42.7269 15.4167 42.8046 15.4167 42.8921C15.4167 43.0281 15.4847 43.1058 15.6112 43.1835C15.4847 43.2807 15.368 43.3778 15.2707 43.4944C15.0956 43.3778 14.9593 43.2127 14.9593 42.8921C14.9593 42.6298 15.0956 42.4452 15.2902 42.2897C15.2999 42.2897 15.2998 42.28 15.3095 42.28C15.5041 42.1343 15.7571 42.008 15.9906 41.8817C16.0685 41.8429 16.1463 41.7943 16.2144 41.7554C16.4868 41.6194 16.7008 41.4834 16.7008 41.2988C16.7008 41.1142 16.5744 40.9879 16.3798 40.8811C16.5452 40.8131 16.7009 40.7353 16.8565 40.6576C17.0414 40.8131 17.1678 41.0171 17.1678 41.2988C17.1678 41.736 16.7884 41.9983 16.4089 42.1926ZM15.7182 41.2794C15.7182 41.1628 15.8057 41.0754 15.9225 41.0754C16.0392 41.0754 16.1269 41.1628 16.1269 41.2794C16.1269 41.396 16.0295 41.4834 15.9225 41.4834C15.8155 41.4834 15.7182 41.3862 15.7182 41.2794ZM19.0163 38.8312L18.9969 38.9478C18.9774 38.9963 18.7244 39.1906 18.3645 39.1906C18.0239 39.1906 17.8197 39.0255 17.664 39.1809C17.5472 39.2975 17.3818 39.5307 17.2456 39.8027C17.1386 40.0164 16.9635 40.1719 16.7689 40.2982C16.5646 40.4147 16.3214 40.5216 16.0879 40.6188C15.9322 40.6868 15.7766 40.745 15.6307 40.8228V40.8131C15.3485 40.9393 15.1442 41.0851 15.1442 41.3182C15.1442 41.4834 15.3096 41.6097 15.5237 41.7263C15.3777 41.8137 15.2317 41.9011 15.0955 41.9983C14.862 41.8234 14.6773 41.6097 14.6773 41.3182C14.6773 40.9588 14.8913 40.7159 15.1734 40.541C15.4069 40.4147 15.6599 40.3079 15.8836 40.2107C16.1366 40.1038 16.3505 40.0164 16.5159 39.9096C16.5159 39.9096 16.5159 39.9096 16.5257 39.9096C16.6619 39.8221 16.7689 39.725 16.8273 39.5987C17.2943 38.666 17.8293 38.4523 18.2185 38.462C18.5785 38.462 18.9288 38.7437 19.0163 38.8312ZM15.543 38.5592H16.3019L16.2533 39.6375C16.1269 39.7152 15.942 39.7833 15.7474 39.8707C15.6988 39.8901 15.6501 39.9096 15.5917 39.929L15.543 38.5592ZM16.7008 39.0449C16.7008 39.0449 16.7495 38.6855 16.7495 38.5592H17.0121C16.9148 38.6466 16.7008 39.0449 16.7008 39.0449ZM13.3249 36.2955H14.7161C14.8523 36.2955 14.9691 36.4024 14.9691 36.5384C14.9691 36.5384 14.9691 36.791 14.9691 36.8784C15.0469 36.8784 15.2123 36.8784 15.2804 36.8784C15.2804 36.791 15.2804 36.5384 15.2804 36.5384C15.2804 36.3053 15.1345 36.0915 14.9107 36.0138L14.8037 35.9749L14.8913 35.9069C15.2221 35.6835 15.6015 35.5572 15.9906 35.5572C16.3993 35.5572 16.7981 35.6932 17.1386 35.9361L17.2165 35.9944L17.1289 36.0332C16.944 36.1304 16.8273 36.3247 16.8273 36.5287C16.8273 36.5287 16.8273 36.7813 16.8273 36.8687C16.8954 36.8687 17.0705 36.8687 17.1386 36.8687C17.1386 36.7813 17.1386 36.5287 17.1386 36.5287C17.1386 36.3927 17.2456 36.2858 17.3818 36.2858H18.7731V36.3441C18.7731 36.451 18.7536 36.5676 18.7147 36.6939H17.7613V36.8493H18.6466C18.5202 37.1019 18.2867 37.3156 17.917 37.3156C17.917 37.3156 17.6348 37.3156 17.557 37.3156C17.557 37.3836 17.557 37.5585 17.557 37.6265C17.6446 37.6265 17.9267 37.6265 17.9267 37.6265C17.9267 37.6265 18.0727 37.6168 18.0824 37.6168H18.2282V38.1608H13.7627V37.6168H14.0351L14.1811 37.6265C14.1811 37.6265 14.4632 37.6265 14.541 37.6265C14.541 37.5488 14.541 37.3836 14.541 37.3156C14.4535 37.3156 14.1811 37.3156 14.1811 37.3156C13.8016 37.3156 13.5681 37.1019 13.4417 36.8493H14.3173V36.6939H13.3832C13.3443 36.5773 13.3249 36.451 13.3249 36.3441V36.2955ZM11.165 41.1045C11.165 41.3571 10.9121 41.5611 10.6008 41.5611C10.2894 41.5611 10.0365 41.3571 10.0365 41.1045L10.2408 39.0643H10.951L11.165 41.1045ZM11.4277 37.2962C11.0872 37.4905 10.6592 37.3739 10.6592 37.3739C10.6592 37.3739 10.7759 36.9464 11.1164 36.7521C11.4569 36.5578 11.8851 36.6744 11.8851 36.6744C11.8851 36.6744 11.7682 37.1019 11.4277 37.2962ZM11.0094 35.9361C11.311 35.6835 11.7488 35.7223 11.7488 35.7223C11.7488 35.7223 11.7098 36.1692 11.4082 36.4121C11.1066 36.6647 10.6689 36.6259 10.6689 36.6259C10.6689 36.6259 10.7078 36.179 11.0094 35.9361ZM10.9218 35.12C11.1553 34.848 11.5542 34.8091 11.5542 34.8091C11.5542 34.8091 11.5931 35.2172 11.3596 35.4892C11.1359 35.7612 10.7272 35.8001 10.7272 35.8001C10.7272 35.8001 10.6883 35.392 10.9218 35.12ZM10.1825 33.9542C10.9122 33.9542 11.5639 34.2165 12.0212 34.644L11.9336 34.7508C11.5931 34.5468 11.1748 34.4302 10.7272 34.4302C9.5695 34.4302 8.81066 35.2074 8.81066 36.179C8.81066 36.9853 9.29704 37.6556 10.1921 37.8694C10.7467 37.9957 10.844 38.3066 10.844 38.462C10.844 38.5203 10.844 38.5786 10.844 38.6272H10.3478C10.3186 38.4426 10.1533 38.3357 9.6863 38.2386C8.49936 37.9957 7.84751 37.2185 7.84751 36.1207C7.84751 34.916 8.80097 33.9542 10.1825 33.9542ZM10.1727 35.9361C10.4743 36.1887 10.5132 36.6259 10.5132 36.6259C10.5132 36.6259 10.0657 36.6647 9.76408 36.4121C9.47222 36.1595 9.42359 35.7223 9.42359 35.7223C9.42359 35.7223 9.87115 35.6835 10.1727 35.9361ZM9.62786 34.8091C9.62786 34.8091 10.0365 34.848 10.2603 35.12C10.4938 35.392 10.4548 35.8001 10.4548 35.8001C10.4548 35.8001 10.0463 35.7612 9.82252 35.4892C9.58902 35.2172 9.62786 34.8091 9.62786 34.8091ZM10.0657 36.7521C10.4063 36.9464 10.523 37.3739 10.523 37.3739C10.523 37.3739 10.0949 37.4905 9.75435 37.2962C9.41383 37.1019 9.29711 36.6744 9.29711 36.6744C9.29711 36.6744 9.72523 36.5578 10.0657 36.7521Z" fill="white"/>
<path d="M31.1783 37.85L30.3709 36.0624C30.799 36.0138 31.1199 35.6544 31.1199 35.2269C31.1199 34.7606 30.7405 34.3817 30.2735 34.3817C29.9427 34.3817 29.6607 34.576 29.5245 34.848C28.464 34.8869 27.6078 34.7412 26.9851 34.4109C27.0046 34.3234 27.0241 34.2457 27.0241 34.1583C27.0241 33.5948 26.5667 33.1382 26.0025 33.1382C25.4382 33.1382 24.981 33.5948 24.981 34.1583C24.981 34.2457 25.0005 34.3331 25.0199 34.4109C24.3973 34.7509 23.541 34.8966 22.4806 34.8578C22.3444 34.5857 22.0623 34.3914 21.7316 34.3914C21.2646 34.3914 20.8851 34.7703 20.8851 35.2366C20.8851 35.6641 21.2061 36.0236 21.6244 36.0721L20.817 37.8597H20.4473V38.2775C20.4473 39.0935 21.1088 39.7444 21.9163 39.7444C22.2082 39.7444 22.4904 39.657 22.7142 39.5016L21.858 40.8034H21.8483V40.8131L21.8386 40.8325L21.8483 40.8422L21.7413 41.4834L24.5043 42.0372C24.4654 42.1829 24.7377 42.3578 24.9128 42.3967C25.0393 42.4258 25.234 42.4258 25.3507 42.3675L25.4285 43.4459V43.4167C25.4285 43.7276 25.6814 43.9899 26.0025 43.9899C26.3138 43.9899 26.5766 43.7373 26.5766 43.4265V43.4167L26.6251 42.6687L28.2012 43.1739L29.5633 39.8416L29.5536 39.6473C29.719 39.7153 29.8941 39.7542 30.0887 39.7542C30.9059 39.7542 31.5675 39.0935 31.5675 38.2872V37.85H31.1783ZM30.8184 37.85H29.3396L30.079 36.2082L30.8184 37.85ZM28.8823 39.1227C28.7656 39.113 28.6391 39.0935 28.5029 39.0644C28.2207 38.9964 28.0456 38.8701 27.8413 38.7341C27.6467 38.5981 27.4424 38.462 27.1603 38.394C27.0824 38.3746 27.0046 38.3649 26.9268 38.3649L27.0922 36.0721H29.787L28.9796 37.85H28.6001V38.2677C28.6099 38.5883 28.7072 38.8798 28.8823 39.1227ZM21.9163 36.2179L22.6558 37.8597H21.1769L21.9163 36.2179ZM23.0157 37.85L22.218 36.0721H24.9032L25.049 38.1609C24.8934 38.1706 24.728 38.1609 24.5723 38.122C24.2221 38.0346 24.0178 37.8986 24.0178 37.8986L23.8524 37.782L23.7454 37.9472L23.366 38.5203C23.3757 38.4426 23.3952 38.3552 23.3952 38.2677V37.85H23.0157ZM21.9163 39.3267C21.3326 39.3267 20.8559 38.8507 20.8559 38.2677H22.967C22.967 38.8507 22.4904 39.3267 21.9163 39.3267ZM25.0588 41.7749C24.9323 41.4932 24.7864 41.3086 24.5238 41.2114C24.3 41.1337 24.0178 41.1726 23.7162 41.192C23.3854 41.2211 23.0449 41.2503 22.7335 41.1628C22.5292 41.1046 22.3736 41.0268 22.2666 40.9685C22.4417 40.7062 23.794 38.5592 23.9594 38.2969C24.0762 38.3552 24.2513 38.4329 24.4751 38.4815C24.6794 38.5301 24.8739 38.5398 25.0685 38.5301L25.2923 41.6292C25.2047 41.6486 25.0588 41.7749 25.0588 41.7749ZM26.1484 43.407C26.1484 43.4945 26.0804 43.5625 25.9928 43.5625C25.9053 43.5625 25.8371 43.4945 25.8371 43.407L25.2825 35.6544H21.7218H21.7121C21.4786 35.6544 21.2839 35.4601 21.2839 35.2269C21.2839 34.9938 21.4786 34.7995 21.7121 34.7995C21.9456 34.7995 22.1401 34.9938 22.1401 35.2269C22.1401 35.2366 22.1401 35.2464 22.1401 35.2561C22.9087 35.3144 24.475 35.3532 25.5452 34.5566C25.4479 34.4497 25.3897 34.304 25.3897 34.1486C25.3897 33.8182 25.6621 33.5462 25.9928 33.5462C26.3236 33.5462 26.596 33.8182 26.596 34.1486C26.596 34.304 26.5376 34.4497 26.4306 34.5566C27.5105 35.3435 29.0769 35.3046 29.8455 35.2464C29.8455 35.2366 29.8455 35.2269 29.8455 35.2172C29.8455 34.984 30.0303 34.7897 30.2735 34.7897C30.507 34.7897 30.7016 34.984 30.7016 35.2172C30.7016 35.4504 30.507 35.6447 30.2735 35.6447H30.2638H26.6933L26.1484 43.407ZM27.8315 42.4744C27.8315 42.4744 27.6273 42.4938 27.4425 42.4452C27.2576 42.3967 26.9851 42.1538 26.6641 41.9983L26.9073 38.7438C26.956 38.7438 27.0144 38.7535 27.0825 38.7632C27.2965 38.8118 27.4521 38.9187 27.637 39.045C27.8413 39.1907 28.0748 39.3461 28.4251 39.4336C28.6391 39.4821 28.9601 39.5501 29.1158 39.5599C28.9407 39.9776 27.8315 42.4744 27.8315 42.4744ZM30.079 39.3267C29.4952 39.3267 29.0185 38.8507 29.0185 38.2677H31.1296C31.1394 38.8507 30.6627 39.3267 30.079 39.3267Z" fill="white"/>
<path d="M8.29492 26.8137C8.29492 28.4264 9.53048 29.155 10.5812 29.5339C10.5812 29.6699 10.7174 29.8351 10.8439 29.9128C10.7855 29.9614 10.7271 30.0196 10.6882 30.0877C10.6104 30.2237 10.591 30.3791 10.6299 30.5248C10.6688 30.6511 10.7466 30.758 10.8536 30.8357C10.5812 31.0203 10.192 31.2923 10.192 31.7392V32.0695H13.5096V31.7392C13.5096 31.2243 12.9649 30.9523 12.7216 30.7483C12.673 30.7094 12.6146 30.6608 12.5757 30.622C12.5757 30.6123 12.5757 30.6026 12.5757 30.5831C12.5757 30.5831 13.1399 30.4471 13.1399 29.9808C13.1399 29.7476 12.994 29.5728 12.8675 29.495C12.9259 29.4465 12.9843 29.3882 13.0232 29.3202C13.101 29.1841 13.1205 29.0287 13.0816 28.883C13.0524 28.7955 13.0135 28.7178 12.9551 28.6498C13.0622 28.5915 13.1594 28.5332 13.2372 28.4749C13.7042 28.1349 14.3463 27.6783 14.3463 26.8137V25.8907H13.3054L13.3539 25.5993C13.461 25.541 13.6264 25.4827 13.7334 25.4827C13.8793 25.4827 14.0253 25.609 14.181 25.609C14.3172 25.609 14.3755 25.5313 14.3755 25.4924C14.3755 25.4341 14.288 25.4438 14.2005 25.4438C14.074 25.4438 13.9279 25.2593 13.7236 25.2593C13.6361 25.2593 13.4999 25.2884 13.3832 25.3175C13.3053 25.2495 13.0135 24.9678 12.8384 24.8609H14.8425V32.0792H16.9927C16.9927 32.0792 16.9927 25.5701 16.9927 24.8609C17.5861 24.8609 19.2303 24.8609 19.2303 24.8609V22.7139C19.2303 22.7139 17.5861 22.7139 16.9927 22.7139C16.9927 22.1116 16.9927 20.1394 16.9927 20.1394H14.8425V22.7139H12.6049V24.7541C12.4201 24.6763 12.1962 24.6181 12.0698 24.6181C11.739 24.6181 11.3888 24.6861 11.3888 24.6861C11.3888 24.6861 10.8439 24.5889 10.3867 24.5889C9.38459 24.5695 8.29492 25.4147 8.29492 26.8137ZM13.0524 23.1414H15.2901V20.5669H16.5645V23.1414H18.7925V24.414H16.5645V31.7392H15.2901V24.414H13.0524V23.1414ZM13.0524 31.6712V31.7295H10.6591V31.6712C10.6591 31.4283 11.2428 31.1369 11.4861 30.8843L12.1185 30.7094C12.1379 30.9912 13.0524 31.37 13.0524 31.6712ZM11.0969 29.1939L12.4687 28.815C12.5952 28.7761 12.7216 28.8538 12.7507 28.9801C12.7799 29.1064 12.7119 29.2327 12.5854 29.2619L11.2136 29.6408C11.0871 29.6699 10.9606 29.6019 10.9314 29.4756C10.9022 29.359 10.9704 29.2327 11.0969 29.1939ZM12.634 30.2139L11.2623 30.5928C11.1358 30.6317 11.0093 30.554 10.9801 30.4277C10.9412 30.3014 11.0191 30.1751 11.1358 30.1459L12.5075 29.7573C12.634 29.7185 12.7605 29.7962 12.7897 29.9225C12.8286 30.0488 12.7605 30.1751 12.634 30.2139ZM13.8891 26.3473V26.8137C13.8891 27.4452 13.4027 27.7949 12.9746 28.0961C12.7995 28.2224 12.4297 28.4652 12.4297 28.4652L11.525 28.7081C11.3791 28.4749 11.019 28.3001 10.7369 28.0961C10.3088 27.7852 9.82244 27.4354 9.82244 26.8137V26.3473H13.8891ZM10.3964 25.0358C10.7467 25.0358 11.019 25.0552 11.3304 25.1427C11.3401 25.1427 11.7195 25.0747 12.0892 25.0747C12.4979 25.0747 12.9259 25.4924 12.9259 25.4924L12.887 25.7159C12.887 25.7159 12.6925 25.9587 12.1087 25.9587C11.7682 25.9587 11.4861 25.7353 11.2526 25.6576C11.0093 25.5799 10.698 25.541 10.4061 25.541C9.90997 25.541 9.25808 25.9879 9.25808 26.8137C9.25808 27.5326 9.67642 27.892 10.1045 28.2126C10.5909 28.5818 10.9314 28.7275 11.0677 28.8441L10.9996 28.8635C10.8731 28.9024 10.7661 28.9704 10.6979 29.0773C9.80288 28.747 8.77163 28.1446 8.77163 26.8137C8.7619 25.6576 9.64728 25.0358 10.3964 25.0358Z" fill="white"/>
<path d="M31.6544 27.0565C31.6544 25.9685 30.8859 25.2301 29.7379 25.2301H28.2785L27.5683 23.4134C27.6462 23.2288 27.6948 23.0248 27.6948 22.811C27.6948 21.9367 26.9748 21.2178 26.0992 21.2178C25.2236 21.2178 24.5037 21.927 24.5037 22.811C24.5037 23.0248 24.5426 23.2385 24.6302 23.4231L23.92 25.2398H22.4509C21.3029 25.2398 20.5342 25.9782 20.5342 27.0663C20.5342 27.9309 21.2444 28.6401 22.12 28.6401C22.3049 28.6401 22.4703 28.611 22.6259 28.5429L21.9742 30.1945L21.4098 31.6226C21.2639 31.9918 21.5071 32.089 21.5071 32.089L21.8282 32.2638C22.0325 32.3707 22.1979 32.225 22.2952 32.0404L22.6649 31.3895V31.5546H23.1319H29.0568H29.5239V31.3798L29.9032 32.0404C30.0102 32.225 30.1757 32.361 30.3703 32.2638L30.6913 32.089C30.6913 32.089 30.9345 31.9918 30.7885 31.6226L30.2243 30.1945L29.5724 28.5429C29.7281 28.6012 29.8935 28.6401 30.0686 28.6401C30.9442 28.6304 31.6544 27.9212 31.6544 27.0565ZM26.0895 21.6841C26.7122 21.6841 27.218 22.1893 27.218 22.811C27.218 23.4328 26.7122 23.938 26.0895 23.938C25.4668 23.938 24.9609 23.4328 24.9609 22.811C24.9609 22.1893 25.4668 21.6841 26.0895 21.6841ZM22.1103 28.1641C21.4973 28.1641 20.9915 27.6686 20.9915 27.0565C20.9915 26.2113 21.5461 25.6964 22.4411 25.6964H23.7253L23.2778 26.8331C23.1124 26.4348 22.7622 26.1822 22.2952 26.1822C21.8087 26.1822 21.439 26.5319 21.439 26.9885C21.439 27.416 21.7406 27.7172 22.1687 27.7172C22.2952 27.7172 22.4022 27.6103 22.4022 27.484C22.4022 27.3577 22.2952 27.2508 22.1687 27.2508C22.0714 27.2508 21.906 27.212 21.906 26.9885C21.906 26.7554 22.1103 26.6485 22.2952 26.6485C22.6843 26.6485 22.9178 26.9108 22.9178 27.3577C22.9081 27.8337 22.5773 28.1641 22.1103 28.1641ZM21.9157 31.8169L21.799 31.7586C21.799 31.7586 23.9492 26.289 24.9026 23.8603C25.0485 24.0254 25.2236 24.1614 25.4279 24.2489L25.8365 24.9678L21.9157 31.8169ZM25.9241 25.6964H26.2646L27.0527 27.076H25.1361L25.9241 25.6964ZM23.9102 31.1369H23.1221V30.5734L23.9102 29.2036V31.1369ZM27.7629 31.1369H26.9747V28.2321C26.9747 28.0961 26.8581 27.9795 26.7219 27.9795C26.5857 27.9795 26.4689 28.0863 26.4689 28.2321V31.1369H25.6808V28.2321C25.6808 28.0961 25.5641 27.9795 25.4279 27.9795C25.2917 27.9795 25.1749 28.0863 25.1749 28.2321V31.1369H24.3869V28.3292L24.8442 27.5326H27.2959L27.7434 28.3195V31.1369H27.7629ZM29.047 31.1369H28.259V29.1939L29.047 30.5637V31.1369ZM30.3703 31.7586L30.2535 31.8169L25.9922 24.3849C26.0214 24.3849 26.0506 24.3946 26.0798 24.3946C26.5468 24.3946 26.9651 24.1906 27.2569 23.8603C28.2201 26.2988 30.3703 31.7586 30.3703 31.7586ZM29.2612 27.3674C29.2612 26.9205 29.4947 26.6582 29.8838 26.6582C30.0687 26.6582 30.2729 26.7651 30.2729 26.9982C30.2729 27.2314 30.1076 27.2606 30.0103 27.2606C29.8838 27.2606 29.7767 27.3674 29.7767 27.4937C29.7767 27.62 29.8838 27.7269 30.0103 27.7269C30.4384 27.7269 30.74 27.4257 30.74 26.9982C30.74 26.5416 30.3703 26.1919 29.8838 26.1919C29.4168 26.1919 29.0666 26.4348 28.9012 26.8331L28.4536 25.6964H29.7379C30.6329 25.6964 31.1875 26.221 31.1875 27.0565C31.1875 27.6686 30.6815 28.1641 30.0686 28.1641C29.6016 28.1641 29.2612 27.8337 29.2612 27.3674Z" fill="white"/>
<path d="M12.1578 25.5508C12.2259 25.5508 12.2745 25.5022 12.2745 25.4342C12.2745 25.3662 12.2259 25.3176 12.1578 25.3176C12.0897 25.3176 12.041 25.3662 12.041 25.4342C12.041 25.5022 12.0897 25.5508 12.1578 25.5508Z" fill="white"/>
<path d="M25.652 11.8525C25.652 12.0079 25.8077 12.2508 25.8758 12.3091C26.012 12.416 26.2844 12.4937 26.3428 12.5131C26.3331 12.4451 26.3233 12.3674 26.3233 12.2994C26.3233 11.4639 27.1308 10.949 27.1308 10.949C27.1308 10.949 27.1697 10.8616 27.1795 10.8033L27.0822 10.2495C27.0725 10.1718 27.0821 10.1426 26.9751 10.1621L26.4984 10.2592C26.0216 10.813 25.6131 11.1142 25.5547 11.1627C25.6812 11.4348 25.652 11.6679 25.652 11.8525ZM25.9341 11.2502C26.2746 10.9781 26.5081 10.7256 26.6638 10.5507L26.7222 10.5313L26.8292 10.5118L26.839 10.5507C26.8487 10.6187 26.8681 10.6964 26.8681 10.745V10.7644L26.8487 10.7741C26.5277 11.0267 26.1871 11.3473 26.0606 11.9108L26.0314 12.0371L25.9828 11.9205L25.9633 11.8816C25.9536 11.8525 25.9536 11.6873 25.9536 11.6873C25.9536 11.6582 25.9536 11.6388 25.9536 11.6193C25.9536 11.5125 25.9438 11.3959 25.9147 11.2793L25.9049 11.2502H25.9341Z" fill="white"/>
<path d="M27.3929 9.85117C27.4512 10.0066 27.4416 10.6867 27.4416 10.6867C27.5097 10.6187 27.7236 10.4146 27.7236 10.1912C27.7236 9.84146 27.6166 9.42371 27.6166 9.42371C27.5874 9.38485 27.3053 9.02539 27.1594 9.02539C27.0913 9.02539 27.0038 9.12254 26.9551 9.27798C26.9065 9.41399 26.7216 9.65687 26.7021 9.70545V9.75402C26.9162 9.74431 27.354 9.73459 27.3929 9.85117Z" fill="white"/>
<path d="M9.25879 13.6012L9.62849 14.0578C9.82307 13.9024 10.0371 13.7566 10.2609 13.6206C10.2512 13.5915 10.2512 13.5623 10.2512 13.5332C10.2512 13.4555 10.2609 13.3875 10.2901 13.3195C10.3485 13.164 10.4555 13.0377 10.6111 12.9697C10.689 12.9309 10.7765 12.9114 10.8738 12.9114C11.0587 12.9114 11.2241 12.9891 11.3505 13.1252C11.5743 13.0474 11.798 12.9891 12.0315 12.9406L11.9148 12.3577C11.4575 12.4451 10.9614 12.5908 10.5139 12.8046C10.0566 13.028 9.61876 13.3097 9.25879 13.6012Z" fill="white"/>
<path d="M8.36328 12.4645L8.72325 12.9406C9.00539 12.7074 9.31667 12.5034 9.64745 12.3091C9.64745 12.2897 9.63771 12.2605 9.63771 12.2314C9.63771 11.9885 9.78364 11.765 9.99768 11.6679C10.0852 11.629 10.1631 11.6096 10.2604 11.6096C10.4355 11.6096 10.6009 11.6873 10.7176 11.8136C11.0484 11.697 11.389 11.5999 11.7295 11.5319C11.71 11.4639 11.603 10.949 11.603 10.949C11.0387 11.0558 10.4355 11.2404 9.88094 11.5027C9.34584 11.7553 8.82054 12.0954 8.36328 12.4645Z" fill="white"/>
<path d="M9.04425 10.9878C9.04425 10.9684 9.03451 10.949 9.03451 10.9295C9.03451 10.6866 9.18044 10.4729 9.39448 10.366C9.48204 10.3272 9.56962 10.3078 9.65718 10.3078C9.8323 10.3078 9.98793 10.3758 10.1047 10.5021C10.5327 10.3369 10.9705 10.2106 11.4083 10.1232C11.3499 9.88029 11.3111 9.74428 11.282 9.66656C11.2528 9.66656 11.2235 9.65685 11.1651 9.65685C11.0192 9.65685 10.8149 9.68599 10.5716 9.74428L10.4744 9.76371C10.3382 9.80257 10.1047 9.86086 9.86145 9.86086C9.55012 9.86086 9.29716 9.754 9.12204 9.54998C9.03448 9.45283 9.00529 9.44312 8.99556 9.44312C8.98583 9.44312 8.9567 9.45283 8.92751 9.46254C8.85941 9.49169 8.85934 9.49169 8.85934 9.54026C8.85934 9.56941 8.85935 9.60827 8.86908 9.65685C8.87881 9.70542 8.87882 9.754 8.87882 9.80257C8.87882 10.3369 8.39238 10.6769 8.15888 10.8324L8.08109 10.8907C7.73085 11.153 7.60435 11.3084 7.56543 11.3764C7.60435 11.4444 7.69193 11.561 7.83787 11.765C8.22703 11.4833 8.62591 11.221 9.04425 10.9878Z" fill="white"/>
<path d="M22.1296 11.3471C22.3923 11.4151 22.8593 11.5414 22.8593 11.5414C23.015 10.9293 23.4236 10.5699 23.5987 10.4436C23.4625 10.2881 23.1414 9.90925 22.869 9.50122C22.5577 9.63723 22.227 9.75381 22.0811 9.80239C22.12 9.95783 22.1881 10.3173 22.1881 10.8225C22.1881 11.0653 22.1491 11.2499 22.1296 11.3471ZM22.7718 9.83153C22.9274 10.055 23.0831 10.2493 23.2193 10.4144C23.1998 10.4242 22.908 10.6476 22.6745 11.2208C22.5578 11.1916 22.5383 11.1819 22.4215 11.1528C22.4313 11.0459 22.441 10.9391 22.441 10.8322C22.441 10.5505 22.4118 10.2687 22.3631 9.98697C22.509 9.9384 22.6356 9.88982 22.7718 9.83153Z" fill="white"/>
<path d="M15.9521 10.4534C16.1273 10.5797 16.5456 10.9392 16.6916 11.5512C16.8375 11.5123 17.1585 11.4249 17.4212 11.3569C17.392 11.2598 17.3629 11.0752 17.3629 10.842C17.3629 10.3368 17.431 9.96765 17.4699 9.82192C17.324 9.77334 17.0029 9.65676 16.6818 9.52075C16.4094 9.91907 16.0884 10.298 15.9521 10.4534ZM17.1683 9.98708C17.1196 10.2688 17.0905 10.5506 17.0905 10.8323C17.0905 10.9392 17.1002 11.046 17.11 11.1529C16.9932 11.182 16.9737 11.1917 16.857 11.2209C16.6235 10.6477 16.3316 10.434 16.3121 10.4145C16.4483 10.2494 16.6039 10.0454 16.7596 9.83163C16.9055 9.88992 17.0418 9.9385 17.1683 9.98708Z" fill="white"/>
<path d="M16.3408 13.3874C17.3429 13.2028 18.0239 12.9017 18.2671 12.7851C18.1115 12.6394 17.8002 12.2896 17.5764 11.833C17.4499 11.8719 17.2067 11.9399 16.7495 12.0662C16.7689 12.7074 16.5159 13.164 16.3408 13.3874ZM17.0121 12.2702C17.1483 12.2313 17.304 12.1925 17.4499 12.1536C17.557 12.3382 17.6834 12.5228 17.8294 12.6976C17.5764 12.8045 17.2845 12.9017 16.8467 13.0085C16.944 12.7754 16.9926 12.5228 17.0121 12.2702Z" fill="white"/>
<path d="M19.1436 12.8336C19.27 12.921 19.523 13.0862 19.7662 13.2125C20.0192 13.0862 20.2722 12.921 20.3986 12.8336C20.2527 12.717 19.9705 12.4644 19.7662 12.105C19.5619 12.4742 19.2895 12.7267 19.1436 12.8336ZM19.776 12.581C19.8343 12.6587 19.9024 12.7267 19.9705 12.8045C19.8927 12.853 19.8246 12.8919 19.776 12.921C19.7176 12.8919 19.6494 12.853 19.5813 12.8045C19.6494 12.7267 19.7176 12.6587 19.776 12.581Z" fill="white"/>
<path d="M16.4873 8.84073C16.5943 8.66586 16.8667 8.16068 16.8667 7.75264C16.8667 7.56806 16.711 7.22803 16.458 7.22803C16.1954 7.22803 15.9424 7.5972 15.9424 7.99552C15.9521 8.46184 16.3316 8.7533 16.4873 8.84073ZM16.458 7.50977C16.5359 7.50977 16.604 7.70407 16.604 7.76236C16.604 7.88865 16.565 8.10238 16.3996 8.4327C16.244 8.26754 16.2148 8.12181 16.2148 8.00523C16.2148 7.75264 16.3608 7.50977 16.458 7.50977Z" fill="white"/>
<path d="M23.1998 13.3874C23.0247 13.1542 22.7814 12.7073 22.7814 12.0564C22.3242 11.9301 22.081 11.8718 21.9545 11.8232C21.7405 12.2896 21.4193 12.6296 21.2637 12.7753C21.5166 12.9113 22.2075 13.2125 23.1998 13.3874ZM22.1005 12.1438C22.2464 12.1827 22.4117 12.2313 22.5382 12.2604C22.5577 12.5227 22.6064 12.7656 22.6939 12.9988C22.2561 12.8919 21.9642 12.7948 21.721 12.6879C21.867 12.5227 21.9934 12.3381 22.1005 12.1438Z" fill="white"/>
<path d="M18.4325 11.0654C18.4715 11.0557 18.4909 11.046 18.5103 11.0363C18.5103 11.0266 18.5103 11.0169 18.5103 11.0071C18.5103 10.8906 18.5881 10.7934 18.7049 10.7643C18.7243 10.7546 18.7439 10.7546 18.773 10.7546C18.8898 10.7546 18.9871 10.8323 19.0163 10.9489C19.0844 11.1917 18.9092 11.4443 18.5979 11.5609L18.0921 11.7066C18.238 11.9884 18.4519 12.2604 18.7341 12.513C19.2303 12.1535 19.4832 11.7261 19.4832 11.25C19.4832 10.5797 18.7633 10.2591 17.9558 9.98706C17.9072 10.2688 17.8779 10.5505 17.8779 10.842C17.8779 10.9683 17.8877 11.0946 17.9169 11.2209L18.4325 11.0654ZM19.2497 11.2209C19.2497 11.2209 19.2984 11.6581 18.7536 12.1438C18.666 12.0467 18.5784 11.9495 18.5103 11.8524C19.1816 11.6775 19.2497 11.2209 19.2497 11.2209ZM18.1698 10.3368C18.4714 10.434 18.7828 10.5603 18.7828 10.5603C18.7828 10.5603 18.4617 10.5214 18.2769 10.8323C18.2477 10.842 18.199 10.8517 18.1504 10.8711C18.1504 10.8614 18.1504 10.842 18.1504 10.8323C18.1406 10.6671 18.1504 10.502 18.1698 10.3368Z" fill="white"/>
<path d="M23.599 8.00528C23.599 7.60697 23.346 7.23779 23.0833 7.23779C22.8304 7.23779 22.6748 7.57782 22.6748 7.76241C22.6748 8.16072 22.9472 8.66591 23.0542 8.8505C23.2196 8.75335 23.599 8.46189 23.599 8.00528ZM23.0833 7.50982C23.1806 7.50982 23.3266 7.75269 23.3266 8.015C23.3266 8.13158 23.2974 8.27731 23.1418 8.44246C22.9764 8.11215 22.9375 7.89842 22.9375 7.77212C22.9472 7.6944 23.0055 7.50982 23.0833 7.50982Z" fill="white"/>
<path d="M20.8168 12.5032C21.099 12.2506 21.313 11.9689 21.459 11.6969L20.953 11.5511C20.6515 11.4443 20.4763 11.1917 20.5444 10.9391C20.5736 10.8322 20.6806 10.7545 20.7876 10.7545C20.8071 10.7545 20.8363 10.7545 20.8558 10.7642C20.9725 10.7934 21.0503 10.9002 21.0503 11.0071C21.0503 11.0168 21.0503 11.0265 21.0503 11.0362C21.0698 11.046 21.0893 11.0557 21.1282 11.0654L21.6438 11.2111C21.673 11.0848 21.6827 10.9585 21.6827 10.8322C21.6827 10.5408 21.6536 10.2493 21.6049 9.97729C20.7974 10.259 20.0774 10.5699 20.0774 11.2403C20.0677 11.7163 20.3207 12.1438 20.8168 12.5032ZM21.3714 10.3368C21.3909 10.5019 21.4005 10.6671 21.4005 10.8322C21.4005 10.8419 21.4005 10.8614 21.4005 10.8711C21.3519 10.8517 21.313 10.8419 21.2741 10.8322C21.0892 10.5213 20.7683 10.5602 20.7683 10.5602C20.7683 10.5602 21.0698 10.4339 21.3714 10.3368ZM20.2914 11.2208C20.2914 11.2208 20.3693 11.6774 21.0406 11.8523C20.9725 11.9495 20.8849 12.0466 20.7974 12.1438C20.2428 11.658 20.2914 11.2208 20.2914 11.2208Z" fill="white"/>
<path d="M29.6505 13.1444L29.7577 12.3284L30.5651 12.1924L29.816 11.8329L29.923 11.0168L29.349 11.6192L28.6096 11.2792H28.6193L28.9988 11.9884L28.4248 12.581L29.2517 12.4255L29.6505 13.1444Z" fill="white"/>
<path d="M27.0818 11.8621C27.0234 11.9787 26.9941 12.1147 26.9941 12.2993C26.9941 12.6296 27.1499 12.9308 27.4223 13.1445L27.792 13.4166C28.0547 13.5914 28.2784 13.7566 28.4147 13.9412L28.473 14.0189L28.6384 14.0092C28.8719 14.0092 29.154 14.0869 29.3778 14.1549L29.8058 14.2618C29.8934 14.2812 29.9907 14.2909 30.0685 14.2909C30.3312 14.2909 30.5744 14.2035 30.769 14.0286C30.8857 13.9217 30.9733 13.8149 31.0317 13.6983C31.1095 13.5234 31.129 13.3485 31.129 13.1445V12.8434C31.129 12.6976 31.1387 12.5325 31.1776 12.3285C31.1874 12.2896 31.1971 12.2507 31.2069 12.2216L31.2457 12.1147C31.3624 11.8524 31.6154 11.7067 31.8391 11.5901L31.9463 11.5027L31.8781 11.0752L31.7516 11.0558C31.5473 11.0169 31.3528 10.9392 31.3041 10.9101C31.1776 10.8518 30.7009 10.5506 30.7009 10.1523C30.7009 10.1329 30.7009 10.1037 30.7107 10.0746C30.7204 10.0163 30.7204 9.97741 30.7204 9.93855C30.7204 9.74425 30.5939 9.68596 30.5258 9.65681C30.4868 9.63738 30.4383 9.61795 30.3702 9.61795C30.2437 9.61795 30.1658 9.70539 30.088 9.79282C29.981 9.91912 29.8253 9.97741 29.6308 9.97741C29.4556 9.97741 29.2902 9.92884 29.1346 9.88997C29.0762 9.87054 28.8621 9.78311 28.6772 9.61795L28.58 9.53052L28.473 9.59852C28.4632 9.60824 28.366 9.66653 28.2979 9.70539L28.1908 9.76368L28.2103 9.88026C28.2394 10.0066 28.259 10.1426 28.259 10.2883C28.259 10.434 28.2297 10.5603 28.1908 10.6672L28.1325 10.774C28.113 10.8032 28.0935 10.8323 28.074 10.8615C27.9184 11.0655 27.7434 11.2112 27.5682 11.3472C27.3542 11.5027 27.1791 11.6484 27.0818 11.8621ZM28.3757 10.9392C28.6481 10.5409 28.5119 9.91912 28.5119 9.91912L28.5314 9.90941C28.726 10.0648 28.9303 10.1426 29.0178 10.1717C29.2027 10.2203 29.3973 10.2786 29.6113 10.2786C29.9032 10.2786 30.1366 10.1814 30.302 9.98713C30.3507 9.93855 30.3702 9.91912 30.3702 9.91912C30.3896 9.9677 30.3798 9.99684 30.3798 10.0357C30.3701 10.0843 30.3702 10.1231 30.3702 10.162C30.3702 10.7158 30.9344 11.0946 31.1582 11.2015C31.2263 11.2307 31.3917 11.3084 31.5863 11.3472V11.3667C31.5863 11.3667 31.1971 11.5124 30.9442 12.0273C30.6523 12.6199 30.8858 13.3097 30.7399 13.5817C30.555 13.9217 30.2534 13.9897 30.0685 13.9897C30.0004 13.9897 29.9324 13.98 29.8643 13.9703L29.4556 13.8634C29.2221 13.7954 28.9108 13.708 28.6384 13.708H28.6287C28.4633 13.504 28.2395 13.3485 27.9768 13.164C27.9573 13.1445 27.6265 12.9114 27.6168 12.9017C27.4222 12.7462 27.1498 12.377 27.3736 11.9981C27.5779 11.6193 28.006 11.4832 28.3757 10.9392Z" fill="white"/>
<path d="M14.6974 12.7366C14.9211 12.7366 14.9017 12.484 14.9893 12.3966C15.0769 12.3091 15.3298 12.348 15.3298 12.1051C15.3298 11.872 15.0769 11.9011 14.9893 11.8137C14.9017 11.7262 14.9406 11.4736 14.6974 11.4736C14.5514 11.4736 14.4736 11.5902 14.4736 11.7554V12.4451C14.4736 12.6103 14.5514 12.7366 14.6974 12.7366Z" fill="white"/>
<path d="M7.14718 15.1652C7.0207 15.0583 6.87465 15.0389 6.78709 15.1555C6.64116 15.3303 6.85527 15.4663 6.865 15.5926C6.87473 15.7189 6.68989 15.8841 6.87474 16.0395C7.04986 16.1853 7.19575 15.9715 7.3125 15.9618C7.42924 15.9521 7.60433 16.1464 7.75999 15.9618C7.85728 15.8452 7.81841 15.7189 7.6822 15.6024L7.14718 15.1652Z" fill="white"/>
<path d="M35.5851 21.7715C36.1202 21.6646 36.5969 21.14 36.5969 20.4988C36.5969 20.1102 36.4413 19.5467 35.6824 19.0804C35.5754 19.0124 35.478 18.9638 35.3808 18.9153C35.9353 18.7113 36.2174 18.3324 36.2174 17.798C36.2174 17.4483 35.9354 17.1568 35.5754 17.1568C35.41 17.1568 35.2446 17.2248 35.1182 17.3414C35.0112 17.4483 34.9527 17.5746 34.9333 17.7203C34.8554 17.7495 34.6512 17.798 34.1355 17.798C33.941 17.798 33.7366 17.7689 33.5226 17.7009C33.6296 17.662 34.0091 17.3414 34.1453 17.2054C34.2815 17.0791 34.6511 16.9723 34.8068 16.7002C35.2349 15.9716 35.3905 15.5927 35.5559 14.9224C35.6338 14.5921 35.6727 14.2909 35.6727 14.0092C35.6727 13.7566 35.6434 13.5525 35.6142 13.3777L35.5754 13.0959C35.5559 12.8628 35.4976 12.2702 34.9819 12.0953C34.9819 12.0953 34.0673 10.7352 34.0479 10.6866C34.0187 10.638 33.9701 10.6283 33.9409 10.6672C33.9117 10.706 33.5517 11.1238 33.5517 11.1238C33.4641 11.1238 33.3086 11.1432 33.1626 11.2112C33.1334 11.1723 33.1042 11.1432 33.075 11.1141C33.0458 11.0946 33.0167 11.0655 32.9875 11.0461L32.822 10.0065L32.7053 10.026C32.7053 10.026 32.1508 10.1134 32.1508 10.1231C32.1216 10.1231 31.9951 10.094 31.8394 10.0163C31.8005 9.99682 31.713 9.92882 31.6643 9.88024C31.6741 9.83167 31.6741 9.77338 31.6741 9.7248C31.6741 9.22933 31.4212 8.83101 30.9736 8.627C30.6818 8.49098 30.1174 8.34526 29.5726 8.89902C29.5337 8.8893 29.4656 8.87959 29.3488 8.85044C29.1932 8.79215 29.1153 8.71443 29.1056 8.70472L28.7554 8.09267L27.909 8.59785C27.4031 8.18982 27.1792 8.04409 26.8679 8.17039C26.7414 8.21896 26.6539 8.29668 26.5372 8.43269C26.5663 8.36469 26.5956 8.29668 26.5956 8.21896C26.5956 7.89836 26.3426 7.60691 25.9924 7.60691C25.9535 7.57777 25.9048 7.55834 25.8659 7.53891C25.7978 7.36403 25.5935 6.87828 25.574 6.83942C25.5545 6.79084 25.4864 6.78113 25.4378 6.81027C25.3989 6.83942 24.4357 7.60691 24.4357 7.60691C24.3092 7.00458 23.8811 6.55768 23.346 6.4411V5.49874H22.8596V5.46959C22.8596 4.16777 21.9743 3.22541 20.7582 3.22541C20.7096 3.22541 20.6317 3.23512 20.5636 3.24484V2.38991H21.4879V0.942364H20.5636V0H19.0556V0.942364H18.1313V2.38991H19.0556V3.25455C18.9486 3.23512 18.8513 3.22541 18.7637 3.22541C17.5281 3.22541 16.6622 4.14834 16.6622 5.49874H16.0883V6.46053C15.5337 6.62569 15.1057 7.16002 15.0376 7.82064L14.5997 7.45147C14.5802 7.43204 13.763 6.74227 13.763 6.74227L13.6755 6.66455L11.9437 8.72415C11.7394 8.58814 11.4768 8.52013 11.146 8.52013C10.5914 8.52013 10.0174 8.73386 9.89091 8.73386C9.32663 8.15096 8.74291 8.29668 8.44131 8.44241C8.11052 8.59785 7.72137 8.91845 7.72137 9.55964C7.72137 9.61793 7.72138 9.67622 7.73111 9.73452C7.70193 9.76366 7.64346 9.81224 7.51699 9.89967L7.41972 9.96768C6.79707 10.4146 6.46637 10.8615 6.41773 11.2986H3.71305V13.7857H5.58093C5.46418 13.8829 4.74425 14.456 4.74425 15.6024C4.74425 16.9625 5.87285 17.6329 5.99933 17.7009C5.77556 17.7689 5.57123 17.798 5.36692 17.798C4.86102 17.798 4.65676 17.7495 4.5692 17.7203C4.54001 17.3997 4.26758 17.1471 3.93679 17.1471C3.56709 17.1471 3.30439 17.458 3.30439 17.7883C3.30439 18.5558 3.92702 18.8375 4.13132 18.9153C4.04376 18.9541 2.92494 19.4399 2.92494 20.4891C2.92494 21.1595 3.4017 21.6646 3.93679 21.7715C1.75751 24.9095 0.473253 28.7178 0.50244 32.8273C0.560814 43.4264 9.2488 51.9951 19.8631 51.9368C30.4774 51.8688 39.0584 43.203 39 32.6038C39 28.5818 37.7352 24.8512 35.5851 21.7715ZM34.3981 15.787C34.3495 16.3213 34.0869 16.7974 33.6491 17.1666C33.3086 17.4483 32.8999 17.6232 32.501 17.662C32.9194 17.9146 33.5225 18.1866 34.1646 18.1866C35.2056 18.1866 35.3322 17.9729 35.3322 17.7883C35.3322 17.7203 35.3613 17.6523 35.41 17.6037C35.4586 17.5552 35.5268 17.526 35.5949 17.526C35.7408 17.526 35.8478 17.6426 35.8478 17.7786C35.8478 18.6821 34.6705 18.6821 34.1646 18.6821L33.9701 18.6724C34.0868 18.7307 34.2619 18.8278 34.2814 18.8278C35.0208 19.1484 35.0208 19.1484 35.0208 19.1581C35.1959 19.2262 35.3126 19.2747 35.4878 19.3913C35.9742 19.6925 36.2174 20.0617 36.2174 20.4794C36.2174 20.9263 35.8867 21.4023 35.3905 21.4023C34.9332 21.4023 34.6122 21.0526 34.6122 20.5571C34.6122 20.4114 34.729 20.3045 34.8652 20.3045C35.0014 20.3045 35.1182 20.4211 35.1182 20.5571C35.1182 20.8194 35.2738 20.8971 35.3614 20.8971C35.4976 20.8971 35.6921 20.7417 35.6921 20.4794C35.6921 20.2365 35.5365 20.0325 35.2057 19.8285C35.0695 19.7411 34.9819 19.7119 34.8068 19.6342L34.0479 19.3039C34.0479 19.3039 33.2794 18.9056 33.1529 18.8473L33.1334 18.8375C32.6275 18.5267 32.1605 18.1672 31.6643 17.73L31.4698 17.5746L31.5184 17.5357C31.5184 17.5357 31.859 17.6523 31.9563 17.526C32.0535 17.3997 31.9854 17.0986 31.9854 17.0986L32.1118 17.118C32.1216 17.118 32.18 17.1277 32.18 17.1277C32.2092 17.1277 32.2481 17.1277 32.287 17.1277C32.7735 17.1277 33.2015 16.8557 33.3182 16.7585C33.6587 16.4768 33.8534 16.127 33.8826 15.7287C33.8826 15.6801 33.8923 15.6316 33.8923 15.5927C33.8923 15.175 33.7269 14.8447 33.5907 14.6892C33.5226 14.6115 33.4837 14.5241 33.4837 14.4463C33.4837 14.388 33.503 14.3298 33.542 14.2909C33.5906 14.2423 33.649 14.2132 33.7074 14.2132C33.795 14.2132 33.8923 14.2617 33.9798 14.3589C34.2425 14.6503 34.3981 15.107 34.3981 15.583C34.4078 15.6607 34.4078 15.719 34.3981 15.787ZM34.4176 20.2462C34.1549 19.9354 34.0577 19.8285 33.7756 19.537L34.5928 19.8868C34.7484 19.9451 34.797 20.0131 34.7873 20.0131C34.5246 20.0422 34.437 20.2268 34.4176 20.2462ZM24.7081 7.9178L24.9708 7.96637L24.9028 7.76235L25.1168 7.86922L25.1362 7.60691L25.3016 7.77207L25.3697 7.52919L25.535 7.9178C25.6421 7.93723 25.7297 7.9858 25.827 8.05381C25.8853 8.05381 26.0993 8.07324 26.1382 8.18982C26.1966 8.39383 25.7685 8.47155 25.7685 8.51041C25.7685 8.54927 25.8854 8.61728 25.9827 8.695C26.1578 8.8213 26.4593 9.12247 26.4982 9.2099C26.5468 9.15161 26.6832 8.98645 26.7221 8.94759C26.7999 8.87959 26.9847 8.64643 27.0528 8.61728C27.1988 8.55899 27.3738 8.78244 27.4906 8.86016C27.6852 8.97674 27.8214 9.17104 27.8505 9.2099L28.6094 8.75329C28.6094 8.75329 28.9013 9.38477 29.6018 9.38477C29.7088 9.38477 29.8159 9.35563 29.8645 9.30705C30.1466 8.97674 30.4579 8.89902 30.8082 9.06417C31.1584 9.22933 31.2947 9.51107 31.2266 9.93853C31.1974 10.1231 31.5281 10.3854 31.6741 10.4534C31.8589 10.5409 32.1118 10.6186 32.2383 10.5992L32.4718 10.5603L32.6567 11.7067C31.7519 12.1924 31.713 12.1924 31.713 13.1251C31.713 13.4262 31.7227 13.7566 31.5671 14.0772C31.4892 14.2423 31.3628 14.4075 31.1876 14.5726C31.1682 14.5921 31.1487 14.5921 31.1292 14.6115C31.1292 14.6503 31.1195 14.6892 31.1097 14.7184L31.3529 15.1458C31.4113 15.0875 31.8394 14.7766 31.8881 14.6698C31.9173 14.6115 31.8783 14.0674 31.8783 14.0674C31.8783 14.0674 31.9951 13.8537 31.9951 13.1445C31.9951 12.4936 32.034 12.3673 32.2675 12.2119C32.394 12.1341 32.6274 11.9496 32.8123 11.8718C32.7636 12.1244 32.4037 12.2507 32.4037 12.3673C32.4037 12.4936 32.4718 12.5616 32.5108 12.6005L32.5788 12.5422C32.6566 12.4742 32.7638 12.4742 32.8027 12.4742C32.9194 12.3964 33.0458 12.2702 33.1917 12.2604C33.3377 12.2507 33.5128 12.3284 33.5809 12.3576L33.6491 12.2702C33.6199 12.2216 33.5323 12.0953 33.5323 11.9981C33.5226 11.8913 33.435 11.7941 33.2502 11.8621L33.3085 11.7358C33.3669 11.6095 33.5323 11.6192 33.5712 11.6192C33.6587 11.5998 33.7171 11.5804 33.8144 11.6095L34.0382 11.3472L34.0771 11.5707L34.2231 11.561L34.1938 11.7455L34.3593 11.7747L34.3203 11.9204L34.4858 12.0078L34.1744 12.1147C34.1744 12.2896 34.1452 12.4742 33.9117 12.6685C33.9214 12.6976 33.9409 12.7365 33.9409 12.7851C33.9506 13.0571 33.6977 13.1542 33.6199 13.1834L33.5809 13.4651C33.6296 13.4943 33.7366 13.5525 33.8047 13.5525C34.4079 13.5234 34.3593 12.5422 34.7485 12.5519C35.1279 12.5616 35.157 12.9113 35.1765 13.1834C35.2154 13.6594 35.3711 13.9897 35.1667 14.8641C35.0403 15.4081 34.8944 15.7579 34.622 16.2436C34.6609 16.1173 34.69 15.9813 34.6998 15.8453L34.7095 15.6316C34.7095 15.0875 34.5344 14.5726 34.2133 14.2326C34.0382 14.0383 33.8631 13.9897 33.7464 13.9897C33.6101 13.9897 33.4739 14.048 33.3766 14.1549C33.2988 14.2423 33.2502 14.3686 33.2502 14.4949C33.2502 14.6406 33.3085 14.7961 33.4252 14.9224C33.542 15.0487 33.6588 15.3304 33.6588 15.651L33.6491 15.7676C33.6199 16.0785 33.4739 16.3505 33.221 16.5739C33.221 16.5545 33.2307 16.5254 33.2307 16.5156C33.2599 16.3602 33.3377 16.1853 33.3864 16.0493C33.3961 16.0202 33.4252 15.855 33.4252 15.7482C33.4252 15.6607 33.5031 15.4373 33.5517 15.311C33.4252 15.379 33.1723 15.6801 32.9875 15.6899C32.9388 15.6899 32.8902 15.6899 32.861 15.6899C32.861 15.7773 32.8512 16.0299 32.8512 16.0882C32.8512 16.1659 32.7053 16.8654 32.7053 16.8751C32.6956 16.8751 32.6957 16.8751 32.6859 16.8751L32.4427 16.9237C32.4427 16.9237 32.4427 16.9237 32.433 16.9237C32.433 16.9237 32.2578 16.778 32.2383 16.7682L32.3648 16.0882L32.1605 16.5448C32.1605 16.5448 32.1021 16.4379 32.034 16.3408C31.9951 16.2825 31.9368 16.2825 31.9173 16.2922L31.5573 16.9237C31.606 16.982 31.7422 17.1568 31.7811 17.3317L31.7033 17.3609C31.6838 17.3317 31.5671 17.1374 31.4309 17.1374C31.3433 17.1374 31.1876 17.3026 31.1682 17.3414L31.0904 17.3026C31.1001 17.2734 31.1293 17.1763 31.1974 17.0791C31.1682 17.0694 31.1098 17.0597 31.0417 17.0597C30.9444 17.0694 30.7791 17.1471 30.7401 17.1666L30.7109 17.0888C30.7109 17.0888 30.8665 16.9431 31.0222 16.914C31.0027 16.8848 30.9736 16.8557 30.9347 16.8557C30.8763 16.8557 30.7595 16.8654 30.7595 16.8654V16.7974C30.7595 16.7974 30.8666 16.7391 30.9347 16.7391C31.1001 16.7294 31.1876 16.8362 31.3627 16.8362L31.713 16.1562C31.7033 15.8842 31.8395 15.855 31.8298 15.6607C31.8298 15.583 31.8492 15.515 31.82 15.515C31.7714 15.515 31.4114 15.651 31.3238 15.651C31.2266 15.651 31.2557 15.4178 31.2459 15.3498L31.0125 14.9612C30.8373 15.0195 30.7206 15.039 30.565 15.0001L30.526 14.9418L30.5357 14.9321C30.2925 14.9904 30.0396 15.0001 29.7672 14.9418H29.7575L29.1639 14.7864C29.018 14.7475 28.8624 14.7086 28.7262 14.6795C28.59 14.7086 28.2981 14.9321 28.2495 14.9709C28.1911 15.0098 28.1133 15.0487 28.0452 15.0098C27.9771 14.9807 27.9381 14.9029 27.9478 14.8252C27.9575 14.7475 27.9868 14.5241 27.8798 14.2909C27.7727 14.1937 27.6463 14.0966 27.5101 14.0092L27.0139 13.6594L26.9847 13.64C26.722 13.436 26.5469 13.1737 26.4399 12.8919H26.4009L26.3037 12.7851L25.9827 12.7365C25.9827 12.7365 25.6713 12.3964 25.4378 12.3284L25.3503 12.2313C25.3503 12.2119 25.3794 12.0661 25.3308 11.9496C25.2919 11.8524 25.2237 11.8038 25.1848 11.7844C25.1362 11.8524 24.9903 12.037 24.8833 12.2119C24.7665 12.3964 24.5525 12.5713 24.4941 12.6199C24.5427 12.8628 24.5816 13.1056 24.6011 13.3485C24.6206 13.368 24.6692 13.4262 24.7276 13.504C24.7762 13.572 24.9513 13.7663 24.9708 13.8246C24.9805 13.8634 24.9902 13.9217 24.9221 13.9411C24.8346 13.9703 24.7276 13.912 24.6595 13.8634L24.5816 13.8149L24.5427 13.6788L24.3774 13.5234C24.3482 13.3097 24.3287 13.0862 24.2509 12.8822C24.2022 12.7462 24.1244 12.6102 24.1244 12.6102L24.1439 12.5227C24.2509 12.3867 24.4843 12.0467 24.4259 11.8815C24.4065 11.8233 24.3287 11.7553 24.2801 11.7067C24.2217 11.6484 24.1536 11.5804 24.1049 11.5027C23.9784 11.5415 23.8228 11.5318 23.7449 11.3666C23.7255 11.3181 23.7352 11.2598 23.7449 11.2112C23.7741 11.1141 23.8811 11.0946 23.8617 11.2209C23.8617 11.2404 23.852 11.2695 23.8617 11.2889C23.8811 11.3472 23.9882 11.3278 24.0466 11.2986C24.0369 11.1432 24.0758 10.9878 24.1439 10.8615C24.2509 10.6574 24.4941 10.4923 24.5331 10.4729C24.5525 10.4437 24.6594 10.3271 24.8151 10.1814C24.8929 10.1037 24.9903 10.026 25.0973 9.94825C25.4281 9.71508 25.5935 9.42363 25.6227 9.37506L25.5643 9.11275C25.3989 8.96702 25.214 8.77272 25.1556 8.57842C25.1459 8.53956 25.1362 8.5007 25.1265 8.48127C25 8.47155 24.6205 8.38412 24.5719 8.20925L24.9221 8.16067L24.7081 7.9178ZM29.6213 15.447C29.3975 15.1555 29.9423 15.0195 30.0298 15.1361C30.3022 15.4858 30.6234 15.9036 30.9834 16.3019L31.1001 16.4379H30.9152C30.7887 16.4379 30.6526 16.5156 30.6137 16.5351L30.5552 16.5642L30.4872 16.5254C30.1661 16.1368 29.8548 15.7482 29.6213 15.447ZM30.166 16.5448C29.4558 16.0882 28.7165 15.6704 27.9382 15.311C28.1328 15.379 28.3759 15.2721 28.5024 15.175C28.6192 15.0778 28.6775 15.0292 28.7359 15.0098C28.8137 15.0292 28.8916 15.0487 28.9694 15.0681C29.0959 15.2041 29.2904 15.4567 29.4364 15.651C29.6309 15.8939 29.8839 16.2145 30.166 16.5448ZM30.5065 15.311C30.6233 15.3304 30.7304 15.3304 30.8277 15.3207C30.8568 15.3693 30.8665 15.3887 30.886 15.4178C30.886 15.5441 30.8957 15.7287 31.0319 15.8647L31.3238 15.9716C31.3336 15.9716 31.2655 16.059 31.1974 16.1465C30.9347 15.8453 30.7011 15.5636 30.5065 15.311ZM25.2043 13.98C25.2238 13.9314 25.2335 13.8731 25.2335 13.8246C25.2335 13.776 25.2238 13.7371 25.2043 13.6886V13.6788V13.6594V13.572C25.2043 13.572 26.2745 13.5623 26.5664 13.5623C26.8582 13.5623 26.9458 14.048 26.6734 14.0577L25.1556 14.0869L25.2043 13.98ZM25.0291 13.3097C25.0291 13.3097 24.961 13.2319 24.9221 13.1834C24.9027 13.0182 24.8833 12.8628 24.8638 12.717C24.8735 12.7073 24.8735 12.649 24.8735 12.5616C24.9708 12.445 25.0876 12.2993 25.0876 12.2993L25.0973 12.4547C25.1265 12.4839 25.2238 12.6102 25.2238 12.6102C25.2238 12.6102 25.2821 12.6199 25.321 12.6296C25.3405 12.6393 25.3891 12.6588 25.428 12.6879L25.8075 13.0279C25.8075 13.0279 26.0216 13.0668 26.1189 13.0765C26.1189 13.0765 26.1285 13.0862 26.1382 13.0959C26.1674 13.1737 26.2258 13.2417 26.2647 13.3097C25.9047 13.3194 25.4864 13.3194 25.0291 13.3097ZM26.6247 14.3395C26.8679 14.3298 27.1987 14.32 27.3738 14.3297C27.4419 14.3783 27.5101 14.4269 27.5685 14.4755C27.5879 14.5435 27.5878 14.6698 27.5878 14.8349C27.5878 14.9904 27.6852 15.1847 27.8505 15.2818C27.0917 14.9321 26.3037 14.6212 25.4865 14.3686C25.9243 14.3589 26.3134 14.3492 26.6247 14.3395ZM23.9201 12.9988C23.6088 12.7073 23.5698 12.2799 23.5698 12.1147V12.105C23.5698 11.9787 23.5893 11.8524 23.6185 11.7358C23.706 11.7941 23.8131 11.833 23.9201 11.833C23.9493 11.8718 24.0466 11.9593 24.0466 11.9593C23.9688 12.1244 23.8034 12.3382 23.8034 12.3382L23.7352 12.6296C23.7449 12.6296 23.8812 12.8433 23.9201 12.9988ZM24.8735 8.74358C24.9611 8.94759 25.1071 9.12247 25.253 9.25848C25.253 9.26819 25.253 9.26819 25.253 9.27791C25.1946 9.35563 24.8929 9.63736 24.6886 9.80252C24.4843 9.81224 24.2801 9.86081 24.1536 9.89967C24.0369 9.76366 23.8811 9.56936 23.706 9.3362C24.2703 8.8893 24.3676 8.47155 24.3676 8.47155C24.3676 8.47155 24.5719 8.68529 24.8735 8.74358ZM18.7832 3.70145C19.0751 3.70145 19.3086 3.76945 19.5129 3.85689V1.96245H18.5789V1.37954H19.5129V0.43718H20.1453V1.37954H21.0695V1.96245H20.1453V3.81803C20.3204 3.75002 20.5246 3.70145 20.7776 3.70145C21.7407 3.70145 22.4121 4.43008 22.4121 5.47931C22.4121 5.48902 22.4121 5.49874 22.4121 5.50845H21.7992C21.7797 4.92555 21.4294 4.3135 20.6803 4.3135C20.2425 4.3135 19.9507 4.60495 19.7853 4.83811C19.6296 4.59524 19.3475 4.3135 18.8902 4.3135C18.0924 4.3135 17.7908 4.91583 17.7714 5.50845H17.1682C17.1682 5.49874 17.1682 5.48902 17.1682 5.47931C17.1584 4.41065 17.8103 3.70145 18.7832 3.70145ZM16.458 5.84848H23.0153V6.35367H16.458V5.84848ZM19.7853 8.8213C19.0265 8.8213 18.034 7.82064 17.4989 6.70341H18.1703C18.5983 7.50976 19.2697 8.20925 19.7853 8.20925C20.3009 8.20925 20.9819 7.50976 21.4002 6.70341H22.0716C21.5365 7.82064 20.5344 8.8213 19.7853 8.8213ZM22.2273 8.92816C22.1884 8.94759 22.1495 8.95731 22.1008 8.97674C21.9938 8.695 21.8478 8.43269 21.6824 8.17039C21.7602 8.08295 21.8283 7.99552 21.9062 7.89836C21.9353 8.20925 22.0424 8.54927 22.2273 8.92816ZM20.9138 8.89902C20.9916 9.03503 21.0695 9.18075 21.1279 9.31677C20.6317 9.50135 20.1355 9.73452 19.7756 10.0843C19.4253 9.73452 18.9194 9.50135 18.4232 9.31677C18.4816 9.17104 18.5594 9.02532 18.6372 8.8893C19.0069 9.15161 19.3961 9.30705 19.7756 9.30705C20.155 9.30705 20.5441 9.15161 20.9138 8.89902ZM17.8589 8.16067C17.6935 8.42298 17.5476 8.68529 17.4406 8.97674C17.4017 8.95731 17.3628 8.94759 17.3141 8.92816C17.5087 8.53956 17.6157 8.18982 17.6351 7.87893C17.713 7.9858 17.781 8.07324 17.8589 8.16067ZM16.458 6.73255C16.9833 6.73255 17.3822 7.2766 17.3822 7.76235C17.3822 8.27725 17.0709 8.86016 16.9542 9.07389C17.1682 9.16132 17.3823 9.23905 17.606 9.31677C17.6839 9.09332 17.8492 8.67557 18.1411 8.23839L18.1995 8.15096L18.2675 8.21896C18.3454 8.3064 18.4329 8.38412 18.5205 8.46184L18.5692 8.51041L18.5302 8.5687C18.2578 8.99617 18.1314 9.3362 18.0827 9.47221C18.7346 9.69565 19.4351 9.98711 19.7756 10.4826C20.1355 9.94825 20.8166 9.70537 21.4684 9.47221C21.3808 9.2099 21.2154 8.86016 21.0305 8.57842L20.9917 8.52013L21.0403 8.47155C21.1278 8.39383 21.2057 8.31611 21.2932 8.22868L21.3614 8.16067L21.4197 8.24811C21.7213 8.695 21.8867 9.14189 21.9451 9.31677C22.1883 9.23905 22.4607 9.13218 22.5969 9.07389C22.4704 8.86016 22.1591 8.26754 22.1591 7.76235C22.1591 7.2766 22.558 6.73255 23.0833 6.73255C23.6379 6.73255 24.1049 7.31546 24.1049 8.01495C24.1049 8.53956 23.852 8.94759 23.3169 9.27791C23.6283 9.73452 23.9396 10.0843 24.0466 10.2008C24.0758 10.1911 24.5621 10.0551 24.5621 10.0551L24.2704 10.298C23.8909 10.5797 23.8325 10.842 23.8325 10.842H23.7839C23.5991 10.842 23.4434 11.0363 23.4434 11.2598C23.4434 11.2695 23.453 11.3084 23.4628 11.3375L23.4725 11.3666L23.453 11.3958C23.346 11.6192 23.2877 11.8524 23.2975 12.105C23.2975 12.2021 23.3169 13.0376 24.0369 13.3874L24.0757 13.4068L24.1049 13.6011C24.1438 13.64 24.2801 13.7468 24.2801 13.7468L24.3774 13.9411L24.4844 14.0383L24.2606 14.0189C22.13 13.844 21.089 13.2708 20.8555 13.1251C20.6414 13.2805 19.9896 13.7177 19.7756 13.7177C19.5518 13.7177 18.9097 13.2708 18.6957 13.1154C18.4038 13.2708 16.8179 14.0674 14.3565 14.0674C13.9576 14.0674 13.4711 14.0577 13.1111 14.048C12.9847 14.048 12.9555 13.5525 13.1209 13.5525C13.2863 13.5525 14.123 13.5525 14.5316 13.5525H14.6484C15.8256 13.5525 16.244 12.7948 16.244 12.0759C16.244 11.6387 16.098 11.2598 15.8158 10.978C15.485 10.6477 15.0764 10.5312 14.8234 10.5312C13.8311 10.5312 13.3058 11.1626 13.2961 11.1723C13.2474 11.2306 13.1794 11.2598 13.1015 11.2598C13.0431 11.2598 12.9847 11.2404 12.9361 11.2015C12.8874 11.1626 12.8486 11.0946 12.8486 11.0266C12.8388 10.9586 12.8582 10.8906 12.9069 10.842C12.9361 10.8129 13.5976 10.0163 14.8234 10.0163C15.1153 10.0163 15.378 10.1037 15.4851 10.1523C15.8061 9.80252 16.098 9.39449 16.205 9.22933C15.991 9.10303 15.4266 8.695 15.4266 7.96637C15.4364 7.31546 15.9034 6.73255 16.458 6.73255ZM11.613 14.7961C11.6227 14.8738 11.5838 14.9515 11.5157 14.9807C11.4476 15.0098 11.36 15.0001 11.3113 14.9418C11.3016 14.9321 11.0779 14.6795 10.7958 14.6406C11.0293 14.4658 11.4378 14.2715 11.72 14.2035C11.5643 14.4463 11.613 14.7961 11.613 14.7961ZM11.6324 15.311C10.8541 15.6801 10.1049 16.0882 9.38499 16.5545C9.67686 16.2145 9.92008 15.8939 10.1147 15.651C10.2995 15.4178 10.5623 15.0778 10.6595 15.0001C10.7957 14.9515 11.0097 15.1361 11.0486 15.1847C11.1945 15.3401 11.4281 15.3887 11.6324 15.311ZM11.9632 14.8252C11.9632 14.7961 11.9535 14.6989 11.9535 14.6698C11.9535 14.5629 11.9729 14.388 12.0702 14.3297C12.1869 14.3103 12.6247 14.32 12.9166 14.3395C13.2377 14.3492 13.6269 14.3686 14.0647 14.3686C13.2474 14.6212 12.4496 14.9321 11.6907 15.2915C11.8561 15.1847 11.9632 15.0098 11.9632 14.8252ZM12.6734 11.7553L12.6831 11.7261H13.9187C13.9187 11.697 13.909 11.6775 13.909 11.6484C13.909 11.2209 14.2495 10.8809 14.6776 10.8809C15.1738 10.8809 15.3586 11.2889 15.3878 11.3861C15.4851 11.4249 15.8937 11.5998 15.8937 12.0953C15.8937 12.5907 15.4948 12.7753 15.3878 12.8045C15.3489 12.9016 15.1738 13.3097 14.6776 13.3097C14.2009 13.3097 13.909 12.9113 13.909 12.5422C13.909 12.513 13.909 12.4936 13.9187 12.4645H12.9069L12.8971 12.445C12.8874 12.4256 12.8778 12.4159 12.8583 12.3964C12.6345 12.2119 12.5858 12.0078 12.6734 11.7553ZM12.6247 10.8615L12.5079 10.3757C12.8193 10.0065 13.0528 9.7248 13.1696 9.58879C13.189 9.5985 13.4907 9.8511 13.6852 10.0163C13.0918 10.2786 12.6831 10.6769 12.6247 10.8615ZM13.9187 13.3194C13.6171 13.3194 13.3446 13.3097 13.1111 13.3C13.0917 13.1639 13.082 13.0765 13.0431 12.8725C13.3447 12.8725 13.5587 12.8725 13.6463 12.8725C13.6852 12.9988 13.7728 13.1737 13.9187 13.3194ZM15.2029 8.53956C15.2029 8.53956 15.3878 9.05446 15.845 9.3362C15.6699 9.56936 15.5143 9.76366 15.3975 9.89967C15.203 9.84138 15.0083 9.80252 14.8234 9.80252C14.5413 9.80252 14.2982 9.84138 14.0744 9.89967L15.2029 8.53956ZM13.7435 7.32517L14.2592 7.75264L14.1327 7.90808L14.4635 8.1801L14.59 8.02466L14.9402 8.32583L14.4344 8.92816L14.084 8.63671L14.2105 8.48127L13.8798 8.20925L13.5003 8.66586L13.8312 8.93788L13.9577 8.78244L14.3079 9.0836L13.802 9.68594L13.4517 9.39449L13.5782 9.23905L13.2474 8.96702L12.3815 10.0065C12.3717 9.99682 12.3718 9.98711 12.3621 9.97739C12.1578 9.80252 12.0605 9.66651 12.0799 9.31677L13.7435 7.32517ZM7.7019 10.3563L7.78942 10.2883C7.97428 10.162 8.24675 9.96768 8.21756 9.77338C8.16892 9.49164 8.16887 9.0836 8.65532 8.86016C9.14176 8.63671 9.44336 8.89902 9.62821 9.11275C9.67686 9.17104 9.76441 9.20019 9.8617 9.20019C10.1633 9.20019 10.6205 8.98645 11.1848 8.98645C11.5351 8.98645 11.7784 9.09332 11.8562 9.30705C12.3134 10.6186 12.7999 13.6108 12.7999 13.6205C12.7999 13.6205 11.9534 13.6594 11.0876 14.0674C10.3287 14.4172 9.63795 15.0972 9.63795 15.0972C9.62822 15.0875 7.65321 12.7851 6.93327 11.5998C6.73869 11.2889 7.0306 10.842 7.7019 10.3563ZM8.5191 15.2527C8.57747 15.1847 8.7137 15.0195 8.90828 14.7961C9.04449 14.9612 9.1029 15.0292 9.19046 15.1264C9.04452 15.3207 8.86938 15.5344 8.68453 15.7579C8.68453 15.7579 8.68453 15.7579 8.68453 15.7482C8.66507 15.5441 8.5872 15.3498 8.5191 15.2527ZM8.11056 15.2527C8.28568 15.3984 8.38288 15.5927 8.38288 15.7773C8.38288 16.2922 8.02293 16.6031 7.68242 16.6031C7.58513 16.6031 7.41005 16.5642 7.36141 16.5448C7.31276 16.5739 7.14737 16.6517 6.9917 16.6517C6.57336 16.6517 6.22308 16.3116 6.22308 15.9036C6.22308 15.8064 6.26204 15.6704 6.27177 15.6316C6.24258 15.583 6.17449 15.4178 6.16476 15.3207C6.14531 15.1167 6.21334 14.9127 6.33982 14.7572C6.47602 14.6018 6.66091 14.5046 6.86522 14.4852C6.88468 14.4852 6.91381 14.4852 6.93327 14.4852C7.11812 14.4852 7.29325 14.5532 7.42946 14.6698C7.44892 14.6892 7.46842 14.7086 7.47815 14.7281L8.2273 13.8246C8.2273 13.8246 8.4316 13.8537 8.58727 14.0189C8.71374 14.1549 8.72349 14.4075 8.72349 14.4075L8.05213 15.2138C8.07158 15.2235 8.0911 15.243 8.11056 15.2527ZM7.66294 13.2319C7.59484 13.1931 7.51702 13.1737 7.42946 13.1737C7.40027 13.1737 6.89434 13.1834 6.3106 13.4748C6.3106 13.2222 6.3106 12.8142 6.3106 12.7948C6.48572 12.7948 6.85547 12.7948 7.33219 12.7948C7.38084 12.8433 7.52674 13.0376 7.66294 13.2319ZM5.17239 13.3291V12.8725H5.37666V12.445H4.78321V12.8725H4.98748V13.3291H4.19949V12.8725H4.40376V12.445H4.19949V11.7747H6.76795C7.10847 12.0078 7.15703 12.1633 7.16676 12.445H5.76584V12.8725H5.97011V13.3291H5.17239ZM3.3336 20.4794C3.3336 20.0617 3.57683 19.7022 4.06327 19.401C4.2384 19.2942 4.36486 19.2456 4.53998 19.1679L5.26966 18.8473L5.58093 18.6918L5.40588 18.7015C4.25786 18.7015 3.71305 18.4101 3.71305 17.798C3.71305 17.6717 3.81034 17.5454 3.96601 17.5454C4.11194 17.5454 4.21897 17.662 4.21897 17.798C4.21897 17.8758 4.23838 17.934 4.28702 17.9826C4.50106 18.1964 5.17237 18.1964 5.39614 18.1964C6.03825 18.1964 6.65114 17.9146 7.05975 17.6717C6.66086 17.6329 6.25232 17.458 5.9118 17.1763C5.474 16.8071 5.2113 16.3311 5.16265 15.7967C5.11401 15.2818 5.27933 14.7378 5.58093 14.3783C6.35925 13.4457 7.40029 13.436 7.44893 13.436C7.58514 13.436 7.7019 13.5525 7.7019 13.6886C7.7019 13.8246 7.58514 13.9411 7.44893 13.9411C7.43921 13.9411 6.61223 13.9509 5.97985 14.6989C5.81446 14.8932 5.63941 15.2818 5.68805 15.7384C5.72697 16.1368 5.92151 16.4962 6.25229 16.7682C6.35931 16.8557 6.74848 17.1471 7.23493 17.1471C7.64354 17.1471 8.01326 16.9431 8.34404 16.5448L8.41209 16.4865C8.79152 16.0688 9.30721 15.4373 9.43368 15.2721C9.56016 15.0972 9.97851 15.3887 9.80339 15.6121C9.4045 16.1173 8.90824 16.7682 8.13965 17.4969C8.04236 17.5843 8.04238 17.5843 8.03265 17.594C7.53647 18.0603 6.99164 18.4781 6.43708 18.8278C5.7366 19.1873 5.55179 19.2844 5.50314 19.3039L4.75399 19.6342C4.56914 19.7119 4.49128 19.7411 4.35507 19.8285C4.00483 20.0422 3.84917 20.2657 3.86862 20.5183C3.87835 20.7223 4.0438 20.8971 4.17028 20.8971C4.4135 20.8971 4.45246 20.6834 4.45246 20.5668C4.45246 20.4988 4.4816 20.4308 4.53025 20.3822C4.57889 20.3337 4.63732 20.3045 4.70542 20.3045C4.85135 20.3045 4.95838 20.4211 4.95838 20.5571C4.95838 21.14 4.54968 21.4023 4.14106 21.4023C3.7519 21.412 3.3336 21.0137 3.3336 20.4794ZM5.68805 19.6439C5.40591 19.9354 5.42533 19.9451 5.16265 20.2462C5.14319 20.2171 5.13341 20.1879 5.10422 20.1588C5.00693 20.0616 4.91942 20.0131 4.79295 20.0131C4.71512 20.0131 4.8319 19.9548 4.94864 19.9159C5.05566 19.8673 5.68805 19.6439 5.68805 19.6439ZM19.8826 51.4705C9.53096 51.5288 1.04726 43.1641 0.988888 32.8273C0.959701 28.6886 2.29261 24.8512 4.55946 21.7326C4.69567 21.6841 4.83189 21.6063 4.9389 21.5092C5.08484 21.3732 5.2405 21.14 5.29887 20.7903C8.72347 16.6517 13.8896 13.9994 19.6686 13.9703C25.5254 13.9314 30.779 16.6031 34.2523 20.7903C34.3496 21.4898 34.8457 21.6938 34.9819 21.7424C37.2099 24.8026 38.5329 28.5526 38.5524 32.6233C38.6205 42.9407 30.2439 51.4122 19.8826 51.4705Z" fill="white"/>
<path d="M34.0382 32.73C34.0382 24.8899 27.656 18.5168 19.8048 18.5168C11.9535 18.5168 5.57129 24.8899 5.57129 32.73C5.57129 40.5604 11.9535 46.9432 19.8048 46.9432C27.656 46.9335 34.0382 40.5604 34.0382 32.73ZM19.581 46.4671C12.1578 46.3506 6.14541 40.3272 6.04812 32.9146H19.581V46.4671ZM19.581 32.4483H6.04812C6.19405 25.0648 12.187 19.0998 19.581 18.9832V32.4483ZM20.048 18.9832C27.4323 19.1095 33.4253 25.0745 33.5713 32.4483H20.048V18.9832ZM20.048 46.4671V32.9146H33.5713C33.474 40.3272 27.4615 46.3408 20.048 46.4671Z" fill="white"/>
<path d="M8.44168 43.0281C8.39304 42.9698 8.26651 42.8144 8.14003 42.6589C8.11084 42.6298 8.07196 42.6201 8.0525 42.6395C8.03304 42.6589 8.04278 42.6881 8.06224 42.7172C8.22763 42.9018 8.22769 42.9407 7.87745 43.2516L6.72938 44.2522C6.70019 44.2814 6.68073 44.2911 6.6029 44.1939C6.39859 43.9608 6.44722 43.6984 6.7099 43.4653C6.93367 43.271 7.2061 43.3001 7.34231 43.4459C7.39095 43.5041 7.42011 43.5041 7.43957 43.4847C7.47849 43.4556 7.42008 43.3876 7.40062 43.3681C7.09902 43.0281 6.66124 42.9892 6.33046 43.271C6.04832 43.5236 6.14567 43.8928 6.39863 44.1939C6.49592 44.3008 6.62233 44.4368 6.70016 44.5242C6.75854 44.5922 6.87532 44.738 6.98234 44.8643C7.02126 44.9128 7.05041 44.9128 7.06987 44.9031C7.08933 44.8837 7.08932 44.8545 7.06013 44.8254C6.93365 44.6797 6.92394 44.6214 7.07961 44.4757L8.19846 43.5041C8.49033 43.2516 8.54867 43.2516 8.65569 43.3779C8.68488 43.407 8.7044 43.4264 8.72386 43.407C8.74332 43.3876 8.7433 43.3584 8.70439 43.3196C8.62655 43.2224 8.49033 43.0864 8.44168 43.0281Z" fill="white"/>
<path d="M6.73866 40.6577C6.33004 39.9873 5.59059 39.8416 4.9874 40.2108C4.3842 40.5799 4.25776 41.2211 4.65665 41.8818C5.1431 42.6784 5.90195 42.6298 6.35922 42.3578C6.82621 42.0761 7.19592 41.4252 6.73866 40.6577ZM4.85118 41.872C4.59823 41.4543 4.74415 40.9005 5.32789 40.5508C6.07702 40.0942 6.4079 40.4634 6.52465 40.6479C6.82625 41.1434 6.58303 41.6972 6.04794 42.0178C5.40583 42.4064 5.0263 42.1635 4.85118 41.872Z" fill="white"/>
<path d="M5.69767 39.0935C5.71713 39.1323 5.72691 39.1518 5.7561 39.142C5.78529 39.1323 5.79503 39.0935 5.76584 39.0546C5.7172 38.9089 5.65883 38.7729 5.6491 38.7437C5.62964 38.6854 5.59073 38.5689 5.53235 38.3746C5.5129 38.326 5.48363 38.2968 5.45445 38.3065C5.43499 38.3163 5.4351 38.3357 5.44483 38.3746C5.51293 38.5494 5.49336 38.6369 5.21122 38.7534L4.04379 39.1906L5.03617 37.1019C5.05563 37.0533 5.07511 37.0047 5.06538 36.9756C5.05565 36.9464 5.01674 36.9367 4.94864 36.9562L3.11959 37.5779C2.93474 37.6362 2.86658 37.6362 2.81794 37.4905C2.79848 37.4419 2.77908 37.4225 2.75962 37.4322C2.73044 37.4419 2.73043 37.4808 2.74989 37.5293C2.79853 37.6751 2.8569 37.7819 2.86663 37.8111C2.88609 37.8694 2.925 38.0151 2.98337 38.1705C3.01256 38.2288 3.03197 38.258 3.06116 38.2483C3.09035 38.2385 3.09037 38.2094 3.08064 38.1705C3.01253 37.9762 3.04177 37.9179 3.25581 37.8402L4.51077 37.3545L3.47956 39.4141C3.4601 39.4626 3.42115 39.5404 3.4406 39.5889C3.45033 39.6181 3.49898 39.6181 3.56708 39.5987L5.3377 38.9866C5.61011 38.8992 5.6393 38.9477 5.69767 39.0935Z" fill="white"/>
<path d="M2.95417 36.7231C2.98336 36.7134 3.02233 36.7036 3.0126 36.6648C3.0126 36.6356 2.98336 36.6259 2.95417 36.6259C2.84715 36.6259 2.76932 36.5676 2.71095 36.3248L2.62342 35.8973L4.1216 35.635C4.59832 35.5573 4.6373 35.5767 4.67622 35.7418C4.68595 35.7807 4.69561 35.8001 4.72479 35.7904C4.75398 35.7904 4.76374 35.7613 4.75401 35.7127C4.73455 35.5961 4.68595 35.4018 4.67622 35.3338C4.65676 35.2464 4.63723 35.0521 4.59831 34.8578C4.58858 34.8092 4.56919 34.7801 4.54 34.7898C4.51081 34.7898 4.50105 34.8286 4.51078 34.8578C4.5497 35.1007 4.53024 35.1395 4.02434 35.227L2.54551 35.4795L2.4872 35.1104C2.44829 34.8383 2.49694 34.7606 2.61368 34.7315C2.67206 34.7218 2.68173 34.7023 2.68173 34.6732C2.672 34.6538 2.6526 34.644 2.61368 34.644C2.53585 34.6538 2.32183 34.6829 2.26345 34.6926C2.20508 34.7023 2.18555 34.7218 2.18555 34.7509C2.18555 34.7801 2.23427 34.8383 2.26345 35.0326L2.49694 36.3928C2.52613 36.5385 2.4872 36.6454 2.4872 36.6745C2.49693 36.7036 2.50662 36.7036 2.56499 36.7134C2.62336 36.7231 2.88607 36.7425 2.95417 36.7231Z" fill="white"/>
<path d="M2.2729 34.032C2.26317 33.8572 2.31173 33.8377 2.42848 33.828C2.5355 33.8183 2.61337 33.8183 3.07063 33.7892L3.60577 33.76C3.89764 33.7503 4.14079 33.7309 4.26727 33.7406C4.40348 33.7503 4.42298 33.7892 4.4327 33.9155C4.4327 33.9543 4.44247 33.9835 4.47166 33.9835C4.50085 33.9835 4.52023 33.9543 4.52023 33.9057C4.5105 33.7794 4.49102 33.5851 4.49102 33.5171C4.49102 33.4394 4.49101 33.2354 4.48128 33.0411C4.48128 32.9925 4.45216 32.9634 4.4327 32.9634C4.40352 32.9634 4.39375 33.0022 4.39375 33.0314C4.40348 33.2063 4.38402 33.2937 4.26727 33.3034C4.14079 33.3131 3.89764 33.3326 3.60577 33.352L3.07063 33.3811C2.61337 33.4006 2.52577 33.4103 2.42848 33.4103C2.29228 33.4006 2.25343 33.3617 2.25343 33.2257C2.25343 33.1965 2.24365 33.1577 2.20473 33.1674C2.17555 33.1771 2.16579 33.1965 2.17552 33.2548C2.18525 33.3714 2.19501 33.556 2.20473 33.6337C2.20473 33.7212 2.21447 33.9155 2.21447 34.032C2.21447 34.0903 2.23398 34.1195 2.26317 34.1195C2.26317 34.1 2.2729 34.0612 2.2729 34.032Z" fill="white"/>
<path d="M2.17555 32.2346C2.20474 32.2346 2.21451 32.2152 2.21451 32.1666C2.23397 31.9529 2.27288 31.9237 2.57447 31.9431L3.93655 32.0403C4.36463 32.0694 4.3743 32.118 4.36457 32.2734C4.36457 32.3123 4.36461 32.3317 4.40352 32.3415C4.43271 32.3415 4.45222 32.322 4.45222 32.2637C4.46195 32.1472 4.46196 31.9529 4.47169 31.8751C4.48142 31.7974 4.5008 31.6031 4.51053 31.4088C4.51053 31.3505 4.49115 31.3214 4.47169 31.3214C4.44251 31.3214 4.43273 31.3505 4.423 31.3797C4.40354 31.6128 4.40356 31.6614 3.95603 31.6225L3.46958 31.5934C3.45985 31.5934 3.45011 31.5837 3.45011 31.5642C3.45011 31.5157 3.47933 31.2048 3.48906 31.1271C3.50852 31.0105 3.59604 30.9716 3.69333 30.9813C3.72252 30.9813 3.75164 30.9716 3.75164 30.9425C3.75164 30.9036 3.72251 30.8939 3.68359 30.8939C3.4501 30.8745 3.33331 30.8356 3.27493 30.8259C3.25547 30.8259 3.2361 30.8356 3.2361 30.855C3.2361 30.9036 3.32361 30.9036 3.31389 31.0493L3.28467 31.5545C3.28467 31.5642 3.28466 31.574 3.27493 31.574L2.38968 31.5157C2.37022 31.5157 2.36048 31.506 2.3702 31.4962L2.40904 31.0299C2.41877 30.9133 2.46751 30.8648 2.50642 30.8453C2.53561 30.8259 2.58424 30.8259 2.61343 30.8356C2.66207 30.8356 2.68148 30.8259 2.68148 30.7968C2.68148 30.7676 2.66209 30.7579 2.63291 30.7482C2.59399 30.7385 2.41887 30.719 2.38968 30.719C2.35077 30.7093 2.31185 30.6996 2.27294 30.6899L2.25346 30.6802C2.22427 30.6802 2.20477 30.6899 2.20477 30.719C2.20477 30.7287 2.21451 30.7482 2.21451 30.7482V30.7579C2.22424 30.787 2.22425 30.855 2.22425 30.8939C2.21452 30.9619 2.17555 31.5837 2.17555 31.71C2.16582 31.7974 2.14645 31.9917 2.13672 32.1472C2.13672 32.2054 2.14637 32.2346 2.17555 32.2346Z" fill="white"/>
<path d="M2.45752 29.8738C2.48671 29.7086 2.54504 29.6892 2.65206 29.7086C2.75907 29.7183 2.83694 29.7378 3.2942 29.8252L3.8196 29.9223C4.11147 29.9806 4.345 30.0195 4.46175 30.0584C4.58822 30.0972 4.60768 30.1458 4.57849 30.2721C4.56876 30.3109 4.57839 30.3401 4.59785 30.3401C4.62704 30.3498 4.64655 30.3207 4.65628 30.2721C4.67574 30.1458 4.70498 29.9515 4.71471 29.8835C4.73417 29.8058 4.7828 29.6115 4.82171 29.4172C4.83144 29.3686 4.81195 29.3394 4.78276 29.3297C4.75357 29.32 4.73407 29.3589 4.73407 29.388C4.70488 29.5532 4.66601 29.6406 4.53954 29.6212C4.41306 29.6017 4.16978 29.5629 3.87792 29.5046L3.35263 29.4074C2.89537 29.32 2.81752 29.3103 2.72023 29.2811C2.59375 29.2423 2.56456 29.1937 2.59374 29.0577C2.60347 29.0286 2.59371 28.9897 2.55479 28.98C2.5256 28.98 2.51595 28.9994 2.50622 29.0577C2.48676 29.1743 2.45752 29.3492 2.44779 29.4269C2.42833 29.5143 2.38945 29.6989 2.36026 29.8155C2.35053 29.8738 2.36028 29.9029 2.37974 29.9126C2.42838 29.9321 2.4478 29.9029 2.45752 29.8738Z" fill="white"/>
<path d="M3.79066 28.3875C4.60789 28.6789 5.20143 28.1543 5.44465 27.4257C5.51276 27.2411 5.57113 27.0079 5.5614 26.8719C5.55167 26.8136 5.54187 26.7845 5.49323 26.7553C5.40567 26.6873 5.16244 26.5707 5.12352 26.561C5.09434 26.5513 5.0652 26.5513 5.05547 26.5805C5.04574 26.6096 5.0554 26.6193 5.10405 26.6582C5.31808 26.8136 5.36673 26.9788 5.23053 27.3965C5.05541 27.9114 4.5787 28.1834 3.9074 27.9503C3.37231 27.7463 3.09015 27.3868 3.275 26.833C3.39174 26.493 3.64476 26.1919 3.94636 26.2987C3.995 26.3181 4.03389 26.3084 4.04362 26.2793C4.05335 26.2501 4.03395 26.2307 3.98531 26.2113C3.92694 26.1821 3.77121 26.1336 3.67392 26.0947C3.57663 26.0558 3.54741 26.0364 3.51822 26.0267C3.48903 26.017 3.46963 26.0267 3.45017 26.0656C3.38207 26.221 3.23617 26.4056 3.11942 26.7456C2.89565 27.416 3.09017 28.1543 3.79066 28.3875Z" fill="white"/>
<path d="M3.93677 25.1621C4.0146 25.0067 4.06323 25.0164 4.17025 25.0552C4.26754 25.0941 4.33562 25.133 4.75397 25.337L5.23068 25.5799C5.49336 25.7159 5.70737 25.8227 5.81439 25.8907C5.93114 25.9587 5.93119 26.017 5.87282 26.1239C5.85336 26.153 5.85336 26.1822 5.87282 26.2016C5.90201 26.2113 5.93115 26.2016 5.95061 26.153C5.99925 26.0462 6.08686 25.8616 6.11604 25.8033C6.15496 25.7256 6.25223 25.5604 6.33979 25.3855C6.36898 25.337 6.35924 25.3078 6.33005 25.2981C6.30087 25.2884 6.28146 25.3078 6.262 25.337C6.18417 25.4924 6.1258 25.5604 6.01878 25.5118C5.90203 25.4633 5.67827 25.3564 5.41559 25.2204L4.93888 24.9775C4.53026 24.7735 4.45234 24.7346 4.36478 24.6861C4.24804 24.6181 4.23837 24.5598 4.30647 24.4432C4.3162 24.414 4.32592 24.3849 4.29673 24.3655C4.27728 24.3558 4.24814 24.3752 4.22868 24.4238C4.17031 24.5306 4.10216 24.6958 4.06325 24.7638C4.02433 24.8415 3.92698 25.0067 3.87834 25.1135C3.84915 25.1718 3.84915 25.201 3.87834 25.2107C3.89779 25.2107 3.92704 25.1815 3.93677 25.1621Z" fill="white"/>
<path d="M6.40837 24.5305C6.53484 24.7248 6.54448 24.8123 6.43746 24.9677C6.42773 24.9871 6.41801 25.0163 6.4472 25.026C6.47639 25.0454 6.49592 25.0357 6.52511 24.9871C6.61267 24.8608 6.70992 24.7151 6.72938 24.686C6.78775 24.6082 6.86554 24.5014 6.92391 24.4237C6.94337 24.3945 6.9531 24.3654 6.92391 24.3459C6.89472 24.3265 6.8753 24.3362 6.83638 24.4042C6.77801 24.4819 6.73908 24.4819 6.70016 24.4625C6.67098 24.4431 6.62233 24.3848 6.57368 24.3168L6.38889 24.0351C6.37916 24.0253 6.37916 24.0156 6.38889 24.0059L6.81691 23.3939C6.82664 23.3841 6.83639 23.3744 6.84612 23.3744L7.391 23.5007C7.42019 23.5104 7.34231 23.6464 7.34231 23.6659C7.33258 23.6853 7.32285 23.7145 7.34231 23.7339C7.3715 23.7533 7.4104 23.7242 7.44931 23.6659C7.4785 23.6173 7.58558 23.4521 7.63423 23.3841C7.68287 23.3161 7.77036 23.2093 7.80928 23.151C7.88711 23.0441 7.88717 23.0053 7.86771 22.9955C7.83852 22.9761 7.819 22.9858 7.79954 23.015C7.71198 23.1316 7.52717 23.1121 7.35205 23.0733C6.85587 22.9761 5.56189 22.6749 5.37704 22.6361C5.28948 22.6166 5.26027 22.6264 5.23108 22.6458C5.21162 22.6749 5.23113 22.7138 5.27977 22.811L6.40837 24.5305ZM6.64185 23.3259L6.26241 23.8602L5.73701 23.1024C5.73701 23.1024 5.72727 23.1024 5.72727 23.0927H5.73701L6.64185 23.3259Z" fill="white"/>
<path d="M7.60476 20.0131C7.76042 19.8771 7.80899 19.8868 8.0133 20.1297L8.59713 20.8194C9.05439 21.3635 9.51161 21.412 10.0078 20.9943C10.5429 20.5474 10.4456 20.0325 9.99804 19.5079L9.50186 18.9055C9.30728 18.6724 9.27813 18.6335 9.42407 18.5072C9.46298 18.4781 9.47274 18.4489 9.45328 18.4295C9.43383 18.4101 9.40455 18.4101 9.36564 18.4489C9.27808 18.5267 9.1905 18.6141 9.10294 18.6821C9.03483 18.7404 8.93763 18.7987 8.82088 18.9055C8.77223 18.9444 8.77219 18.9736 8.78192 18.993C8.80138 19.0124 8.83054 19.0124 8.86945 18.9833C9.04457 18.8375 9.08353 18.8764 9.27811 19.1096L9.81325 19.7508C10.2024 20.2268 10.29 20.528 9.93973 20.8194C9.55057 21.1497 9.22947 20.9263 8.91814 20.5571L8.34417 19.8771C8.14959 19.6439 8.14952 19.5856 8.276 19.4885C8.31491 19.4593 8.31493 19.4302 8.29548 19.4107C8.27602 19.3913 8.24686 19.3913 8.20795 19.4302C8.12039 19.4982 8.01333 19.605 7.92577 19.6828C7.79929 19.7896 7.70202 19.8576 7.57554 19.9645C7.5269 20.0034 7.52687 20.0325 7.54633 20.0519C7.54633 20.0422 7.57557 20.0422 7.60476 20.0131Z" fill="white"/>
<path d="M11.3407 19.4204C11.4866 19.6925 11.438 19.7216 11.3018 19.7993C11.2628 19.8188 11.2532 19.8382 11.2629 19.8673C11.2824 19.8965 11.3115 19.8965 11.3602 19.8673C11.4964 19.7896 11.6229 19.7119 11.6424 19.7022C11.7007 19.673 11.8077 19.6245 11.9829 19.5273C12.0315 19.4982 12.0509 19.469 12.0314 19.4399C12.0217 19.4204 11.9926 19.4204 11.9536 19.4399C11.7882 19.5273 11.7006 19.5273 11.545 19.265L10.9223 18.1769L13.1503 18.8278C13.1989 18.8375 13.2476 18.8473 13.2865 18.8375C13.3157 18.8181 13.3157 18.7792 13.2865 18.721L12.3817 17.0208C12.2941 16.8459 12.2844 16.7779 12.4206 16.7099C12.4693 16.6905 12.479 16.6614 12.4693 16.6419C12.4498 16.6128 12.4207 16.6225 12.372 16.6419C12.2358 16.7197 12.1385 16.7877 12.1093 16.7974C12.051 16.8265 11.9147 16.8848 11.7785 16.9625C11.7298 16.9917 11.7007 17.0208 11.7104 17.05C11.7299 17.0791 11.759 17.0694 11.7882 17.05C11.9731 16.9528 12.0314 16.9722 12.1482 17.1763L12.8293 18.3421L10.6305 17.6523C10.5819 17.6426 10.4943 17.6232 10.4456 17.6426C10.4164 17.662 10.4164 17.7106 10.4553 17.7689L11.3407 19.4204Z" fill="white"/>
<path d="M13.3644 16.3795C13.5298 16.3212 13.559 16.3601 13.6076 16.467C13.6465 16.5641 13.6758 16.6418 13.8315 17.0693L14.0163 17.5745C14.1136 17.8465 14.2011 18.0797 14.2303 18.1962C14.2595 18.3225 14.2303 18.3614 14.1135 18.4003C14.0844 18.41 14.0552 18.4294 14.065 18.4585C14.0747 18.4877 14.1038 18.4974 14.1525 18.478C14.2692 18.4294 14.4444 18.3614 14.5125 18.3323C14.5903 18.3031 14.7751 18.2448 14.9697 18.1768C15.0183 18.1574 15.0379 18.1282 15.0281 18.0991C15.0184 18.0699 14.9794 18.0699 14.9502 18.0797C14.7848 18.138 14.6973 18.1477 14.6487 18.0408C14.6 17.9242 14.5125 17.6911 14.4055 17.419L14.2205 16.9138C14.0649 16.4767 14.026 16.399 14.0065 16.3115C13.9773 16.1755 13.9968 16.1366 14.133 16.0881C14.1622 16.0784 14.1914 16.0589 14.1817 16.0201C14.172 16.0006 14.1427 15.9909 14.0941 16.0103C13.987 16.0492 13.8119 16.1172 13.7438 16.1464C13.6563 16.1755 13.4811 16.2338 13.3644 16.2727C13.306 16.2921 13.2866 16.3212 13.2963 16.3407C13.3061 16.3989 13.3449 16.3892 13.3644 16.3795Z" fill="white"/>
<path d="M14.8141 15.8259C15.0087 15.787 15.106 15.855 15.1936 15.9911L16.3806 17.7009C16.439 17.7786 16.4779 17.8175 16.5071 17.8078C16.546 17.7981 16.5654 17.7495 16.5946 17.6329L17.0129 15.6607C17.0615 15.4081 17.1004 15.3401 17.2464 15.3013C17.295 15.2916 17.3048 15.2721 17.3048 15.243C17.2951 15.2138 17.2659 15.2041 17.2173 15.2138C17.1297 15.2333 17.0518 15.2624 16.9351 15.2819C16.8475 15.3013 16.7697 15.311 16.6141 15.3401C16.546 15.3596 16.5167 15.379 16.5264 15.4082C16.5264 15.4373 16.5654 15.4373 16.5946 15.4276C16.6919 15.4082 16.7406 15.4179 16.7503 15.4567C16.76 15.4859 16.76 15.5247 16.7503 15.5636L16.4779 17.1569L15.68 15.9425C15.6119 15.8356 15.573 15.7676 15.5633 15.7288C15.5535 15.6607 15.6314 15.651 15.68 15.6316C15.7189 15.6219 15.7384 15.6025 15.7287 15.583C15.719 15.5539 15.6801 15.5442 15.6314 15.5539C15.4758 15.583 15.3396 15.6316 15.2617 15.6413C15.1547 15.6607 14.9795 15.6899 14.8239 15.719C14.7655 15.7287 14.7363 15.7579 14.7363 15.787C14.7558 15.8259 14.7849 15.8356 14.8141 15.8259Z" fill="white"/>
<path d="M17.9568 15.243C18.1319 15.2333 18.2 15.2722 18.2 15.3985C18.2097 15.4956 18.2194 15.5733 18.2486 16.0397L18.2778 16.574C18.2875 16.7294 18.2972 16.8849 18.2972 17.0112C18.3167 17.3512 18.2972 17.3901 18.1221 17.3998C18.0832 17.3998 18.0638 17.4192 18.0638 17.4483C18.0638 17.4775 18.0832 17.4872 18.1416 17.4872C18.268 17.4775 18.4626 17.4581 18.5307 17.4581C18.8615 17.4386 19.1631 17.4386 19.4647 17.4192C19.5328 17.4095 19.5522 17.3901 19.5717 17.3221C19.5814 17.254 19.5912 17.05 19.5912 16.982C19.5912 16.9432 19.5815 16.9043 19.5426 16.914C19.5134 16.914 19.5036 16.9334 19.4939 16.9723C19.4842 17.0986 19.455 17.1472 19.3772 17.1958C19.2993 17.2346 19.0658 17.254 18.988 17.254C18.7642 17.2638 18.735 17.2638 18.7253 17.05C18.7253 16.9626 18.7059 16.6906 18.6767 16.3505C18.6767 16.3408 18.6767 16.3311 18.6962 16.3311C18.7156 16.3311 19.0561 16.3117 19.1144 16.3117C19.2604 16.302 19.2994 16.4185 19.2994 16.5157C19.2994 16.5351 19.309 16.5643 19.3479 16.5546C19.3869 16.5546 19.3869 16.5157 19.3869 16.4768C19.3772 16.3117 19.3966 16.0882 19.3966 16.0494C19.3966 16.0202 19.3771 16.0105 19.3577 16.0105C19.3382 16.0105 19.3188 16.0397 19.2799 16.0688C19.2604 16.0882 19.1826 16.1368 19.0172 16.1465C18.8907 16.1562 18.7351 16.1562 18.6864 16.166C18.667 16.166 18.6572 16.166 18.6572 16.1465L18.6085 15.3305C18.6085 15.3207 18.6085 15.311 18.6183 15.311C19.2117 15.2722 19.241 15.2916 19.2701 15.4859C19.2799 15.5053 19.2798 15.5442 19.3187 15.5442C19.3479 15.5442 19.3674 15.5248 19.3674 15.4956C19.348 15.243 19.3869 15.1556 19.3772 15.0973C19.3772 15.0682 19.3674 15.0487 19.3382 15.0584C19.3187 15.0584 19.2604 15.0973 19.1534 15.107C19.095 15.107 18.4821 15.1459 18.3848 15.1556C18.2972 15.1653 18.1027 15.1653 17.9373 15.175C17.8789 15.175 17.8594 15.1944 17.8594 15.2236C17.8886 15.2333 17.9081 15.243 17.9568 15.243Z" fill="white"/>
<path d="M20.281 17.3996C20.4075 17.4191 20.5923 17.4191 20.6604 17.4288C20.709 17.4288 20.9328 17.4579 21.108 17.4774C21.1566 17.4774 21.1858 17.4676 21.1858 17.4385C21.1858 17.4093 21.1663 17.3996 21.1371 17.3899C20.8938 17.3705 20.8744 17.3025 20.9036 16.9819L20.9425 16.5058C20.9425 16.4961 20.9425 16.4961 20.9523 16.4961L21.2247 16.5253C21.2539 16.5253 21.2636 16.5447 21.2733 16.5544C21.3706 16.7001 21.4484 16.8459 21.536 16.9916C21.75 17.3511 21.9154 17.5356 22.2462 17.5648L22.5381 17.5939C22.5867 17.6037 22.6159 17.5842 22.6159 17.5551C22.6159 17.5259 22.5965 17.5162 22.5673 17.5065C22.3241 17.4871 22.1198 17.3219 21.5847 16.4184C21.896 16.2338 22.0225 16.0104 22.0419 15.7772C22.0808 15.3498 21.7014 15.1846 21.3025 15.1457C21.2149 15.136 20.9718 15.1263 20.8745 15.1166C20.8064 15.1069 20.6215 15.0874 20.4561 15.068C20.3977 15.0583 20.3686 15.0777 20.3686 15.0972C20.3588 15.1263 20.388 15.1457 20.4269 15.1457C20.6604 15.1652 20.6702 15.2137 20.641 15.4858L20.5048 16.9333C20.4756 17.2345 20.4464 17.3025 20.2713 17.2831C20.2324 17.2831 20.2031 17.2928 20.2031 17.3219C20.2129 17.3705 20.2324 17.3899 20.281 17.3996ZM21.0495 15.3498C21.0495 15.3303 21.0593 15.3109 21.2247 15.3206C21.4874 15.3498 21.6624 15.5635 21.6333 15.9035C21.6041 16.1755 21.4776 16.3893 21.2052 16.3601C21.0301 16.3407 20.962 16.3213 20.9718 16.263L21.0495 15.3498Z" fill="white"/>
<path d="M23.3262 17.8562C23.725 17.9534 24.1532 17.7979 24.2505 17.3899C24.4256 16.6904 23.55 16.3698 23.657 15.9326C23.6959 15.7675 23.8515 15.6703 24.0656 15.7189C24.2991 15.7772 24.4159 15.9812 24.377 16.1367C24.3672 16.1658 24.377 16.2047 24.4062 16.2144C24.4354 16.2241 24.4645 16.195 24.4742 16.127C24.5326 15.8938 24.5618 15.8064 24.5715 15.7772C24.5715 15.7578 24.5715 15.7383 24.5423 15.7189C24.4742 15.6703 24.3381 15.612 24.1435 15.5635C23.7251 15.4566 23.3749 15.6315 23.2971 15.9715C23.1317 16.6419 23.9975 16.943 23.871 17.4579C23.8321 17.6134 23.6667 17.7494 23.4041 17.6911C23.1025 17.6134 23.0149 17.3608 23.0636 17.147C23.0733 17.1179 23.0733 17.079 23.0344 17.0693C23.0052 17.0596 22.9759 17.0887 22.9662 17.147L22.8495 17.5648C22.8203 17.6619 23.0246 17.7785 23.3262 17.8562Z" fill="white"/>
<path d="M24.7669 18.2254C24.8837 18.2642 25.0685 18.3225 25.1366 18.3517C25.2145 18.3808 25.3895 18.4585 25.5841 18.5265C25.6328 18.546 25.6619 18.5362 25.6716 18.5071C25.6814 18.478 25.6523 18.4585 25.6231 18.4488C25.4577 18.3905 25.3895 18.3419 25.4187 18.2254C25.4576 18.0991 25.5354 17.8756 25.6424 17.5939L25.8273 17.0887C25.9927 16.6515 26.0122 16.5738 26.0608 16.4864C26.1192 16.3601 26.1678 16.3504 26.304 16.3989C26.3332 16.4086 26.3721 16.4184 26.3818 16.3795C26.3916 16.3504 26.3722 16.3309 26.3138 16.3212C26.2068 16.2823 26.0317 16.2241 25.9538 16.1949C25.8663 16.1658 25.6911 16.088 25.5841 16.0492C25.5257 16.0298 25.4966 16.0298 25.4868 16.0589C25.4771 16.0978 25.5062 16.1172 25.5354 16.1269C25.7008 16.1852 25.7008 16.2435 25.6619 16.3504C25.6327 16.4475 25.6035 16.5252 25.4382 16.9624L25.2534 17.4676C25.1463 17.7396 25.0685 17.9728 25.0101 18.0796C24.9518 18.2059 24.903 18.2059 24.7863 18.1574C24.7571 18.1476 24.7182 18.1379 24.7085 18.1671C24.6988 18.1768 24.7183 18.2059 24.7669 18.2254Z" fill="white"/>
<path d="M26.2553 18.7113C26.2456 18.7405 26.2554 18.7599 26.304 18.789C26.411 18.8473 26.5861 18.9348 26.6445 18.9736C26.7807 19.0513 27.0046 19.2165 27.1991 19.3234C27.8704 19.7022 28.6098 19.6537 29.0087 18.9348C29.4076 18.2158 29.0184 17.6329 28.2109 17.186C28.0455 17.0986 27.8704 17.0112 27.7926 16.9626C27.7148 16.9237 27.5494 16.8169 27.4131 16.7391C27.3548 16.71 27.3256 16.71 27.3159 16.7391C27.3062 16.7683 27.3158 16.7877 27.3547 16.8071C27.5006 16.8849 27.5396 16.9626 27.4812 17.0695C27.4326 17.1569 27.3937 17.2346 27.1699 17.6329L26.9072 18.0993C26.5375 18.7696 26.4888 18.789 26.3721 18.7307C26.304 18.6919 26.2748 18.6822 26.2553 18.7113ZM27.131 18.5462L27.8218 17.3123C27.8704 17.2249 27.8898 17.2055 28.0746 17.3123C28.6584 17.6426 28.8919 18.2061 28.5708 18.7987C28.2401 19.4011 27.8315 19.4885 27.2672 19.1679C26.9267 18.9736 26.9364 18.8959 27.131 18.5462Z" fill="white"/>
<path d="M28.7165 20.0908C28.697 20.0714 28.6679 20.0617 28.6484 20.0908C28.629 20.12 28.6386 20.1394 28.6775 20.1686C28.804 20.2754 28.9305 20.3726 28.9597 20.392C29.0278 20.4503 29.1251 20.5475 29.2029 20.6057C29.2321 20.6349 29.2614 20.6446 29.2808 20.6155C29.3003 20.5863 29.2905 20.5669 29.2321 20.528C29.1543 20.4697 29.1543 20.4212 29.1834 20.392C29.2029 20.3629 29.2613 20.324 29.3391 20.2754L29.6408 20.12C29.6505 20.1103 29.6602 20.12 29.6699 20.1297L30.244 20.6057C30.2537 20.6155 30.2635 20.6252 30.2537 20.6349L30.0786 21.1595C30.0688 21.1886 29.9326 21.1012 29.9229 21.0915C29.9034 21.0818 29.8743 21.0624 29.8548 21.0915C29.8353 21.1109 29.8547 21.1595 29.9131 21.2081C29.9618 21.2469 30.1175 21.3635 30.1856 21.4121C30.2537 21.4607 30.3412 21.5578 30.3996 21.6064C30.4969 21.6938 30.5358 21.6938 30.5553 21.6744C30.5747 21.6453 30.565 21.6258 30.5358 21.6064C30.419 21.5092 30.4677 21.3247 30.5163 21.1595C30.6622 20.6737 31.0709 19.4108 31.1292 19.2359C31.1584 19.1485 31.1584 19.1193 31.1292 19.0902C31.1001 19.0708 31.0612 19.0805 30.9639 19.1291L29.1446 20.1006C28.95 20.2171 28.8624 20.2171 28.7165 20.0908ZM30.6428 19.5662C30.6428 19.5565 30.6525 19.5565 30.6428 19.5662L30.3315 20.4406L29.8353 20.0228L30.6428 19.5662Z" fill="white"/>
<path d="M30.9929 22.0434C30.9442 21.9852 30.915 21.9657 30.8956 21.9852C30.8761 22.0046 30.8761 22.0337 30.9151 22.0726C30.9929 22.1697 31.1194 22.3057 31.168 22.364C31.2653 22.4806 31.4113 22.7138 31.5572 22.8887C32.0437 23.491 32.7539 23.7047 33.3863 23.1801C34.0284 22.6555 33.863 21.9754 33.2793 21.2662C33.1625 21.1205 33.0262 20.9748 32.9679 20.9068C32.9095 20.8388 32.7927 20.6833 32.6954 20.557C32.6565 20.5085 32.6274 20.4987 32.6079 20.5182C32.5884 20.5376 32.5884 20.557 32.6176 20.5959C32.7247 20.7222 32.7344 20.7999 32.6371 20.8873C32.5593 20.9456 32.5009 21.0039 32.1409 21.3051L31.7225 21.6451C31.1291 22.1406 31.0804 22.1503 30.9929 22.0434ZM31.7712 22.1503L32.8706 21.2565C32.9484 21.1982 32.9679 21.1885 33.1041 21.344C33.5322 21.8589 33.5419 22.4709 33.036 22.9081C32.5009 23.3453 32.0923 23.2773 31.6837 22.7818C31.421 22.4806 31.4599 22.4126 31.7712 22.1503Z" fill="white"/>
<path d="M34.2423 27.3867C34.2909 27.4256 34.3104 27.4353 34.3688 27.4256C34.4758 27.4159 34.7384 27.3381 34.7773 27.3187C34.8065 27.309 34.826 27.2798 34.8163 27.2604C34.8065 27.2313 34.7871 27.2313 34.7287 27.241C34.4661 27.2798 34.3104 27.1827 34.1353 26.7844C33.9213 26.2889 34.0769 25.7643 34.7385 25.4826C35.2736 25.2688 35.7211 25.3465 35.9643 25.8809C36.1103 26.2112 36.1297 26.5998 35.8379 26.7358C35.7892 26.7552 35.7697 26.7844 35.7794 26.8135C35.7892 26.8427 35.8281 26.8427 35.8767 26.8232C35.9351 26.8038 36.0908 26.7358 36.1881 26.6969C36.2854 26.6581 36.3242 26.6581 36.3437 26.6484C36.3729 26.6387 36.3826 26.6192 36.3631 26.5706C36.3048 26.4152 36.2853 26.1723 36.1394 25.842C35.8475 25.1717 35.2054 24.7636 34.5244 25.0648C33.7169 25.4048 33.6488 26.1918 33.9601 26.8912C34.038 27.0758 34.145 27.2896 34.2423 27.3867Z" fill="white"/>
<path d="M34.4858 27.8142C34.4761 27.7948 34.4663 27.7657 34.4372 27.7754C34.408 27.7851 34.3982 27.8045 34.4079 27.8531C34.4469 28.0085 34.4956 28.1737 34.5053 28.2028C34.5248 28.2903 34.5539 28.4263 34.5734 28.5234C34.5831 28.5623 34.5929 28.5817 34.6318 28.572C34.661 28.5623 34.6706 28.5429 34.6512 28.4749C34.6317 28.3777 34.6512 28.3486 34.6999 28.3388C34.729 28.3291 34.8068 28.3291 34.8847 28.3388L35.2155 28.3874C35.2252 28.3874 35.235 28.3971 35.235 28.4068L35.4101 29.1258C35.4101 29.1452 35.41 29.1549 35.4003 29.1549L34.9431 29.4755C34.9139 29.4949 34.8653 29.3395 34.8556 29.3298C34.8458 29.3104 34.8263 29.2812 34.8069 29.2909C34.7777 29.3006 34.7679 29.3395 34.7874 29.4172C34.7971 29.4755 34.8555 29.6601 34.8847 29.7475C34.9041 29.8252 34.9236 29.9613 34.9431 30.039C34.9723 30.1653 35.0014 30.1847 35.0209 30.1847C35.0501 30.175 35.0598 30.1556 35.0501 30.1167C35.0112 29.971 35.1571 29.8544 35.303 29.7475C35.7019 29.4464 36.7916 28.6692 36.9376 28.5526C37.0057 28.4943 37.0251 28.4749 37.0251 28.436C37.0154 28.4068 36.9764 28.3874 36.8694 28.368L34.8263 28.0765C34.6026 28.0474 34.5248 27.9891 34.4858 27.8142ZM36.344 28.5234C36.3537 28.5234 36.3537 28.5234 36.3635 28.5234H36.344L35.5755 29.048L35.4198 28.4166L36.344 28.5234Z" fill="white"/>
<path d="M36.9469 30.1944C36.9177 30.1944 36.8789 30.2041 36.8886 30.243C36.8886 30.2721 36.9179 30.2819 36.9373 30.2916C37.0443 30.3013 37.1221 30.3693 37.1513 30.6122L37.1999 31.0493L35.6822 31.1756C35.1958 31.2145 35.1568 31.1951 35.1471 31.0202C35.1471 30.9813 35.1374 30.9522 35.0985 30.9619C35.0693 30.9619 35.0596 30.9911 35.0596 31.0396C35.0693 31.1659 35.0985 31.3602 35.0985 31.4282C35.1083 31.5157 35.1179 31.71 35.1276 31.914C35.1276 31.9626 35.1471 31.9917 35.1763 31.982C35.2055 31.982 35.2153 31.9528 35.2153 31.914C35.1958 31.6711 35.2152 31.6322 35.7308 31.5934L37.2291 31.4671L37.2486 31.8363C37.268 32.1083 37.2096 32.186 37.0832 32.2054C37.0248 32.2152 37.0151 32.2346 37.0151 32.2637C37.0248 32.2832 37.0442 32.3026 37.0832 32.3026C37.161 32.3026 37.375 32.2929 37.4334 32.2832C37.4918 32.2734 37.5113 32.2637 37.5113 32.2346C37.5113 32.2054 37.4723 32.1374 37.4529 31.9431L37.3361 30.5636C37.3264 30.4081 37.3653 30.311 37.3653 30.2819C37.3653 30.2527 37.3459 30.243 37.2875 30.2333C37.2778 30.2236 37.0248 30.1847 36.9469 30.1944Z" fill="white"/>
<path d="M37.8325 34.7119C37.8228 34.6925 37.5698 34.2553 37.4628 34.0804C37.4433 33.2838 36.8596 32.9243 36.3731 32.8855C35.8283 32.8369 35.1376 33.1478 35.0598 34.0319C34.9916 34.8188 35.5073 35.3628 36.2078 35.4308C36.8986 35.4891 37.3849 35.0617 37.4628 34.3136C37.5309 34.5565 37.6087 34.8674 37.6087 34.8771C37.6185 34.9159 37.6573 34.9354 37.6963 34.9159C37.7644 34.8771 37.7838 34.8673 37.8227 34.8479C37.8422 34.8188 37.8617 34.7702 37.8325 34.7119ZM37.2975 34.1679C37.2488 34.6633 36.8109 35.0131 36.1299 34.9548C35.264 34.8771 35.2057 34.3816 35.2252 34.1776C35.2738 33.5947 35.7992 33.2935 36.4218 33.3518C37.171 33.4101 37.3266 33.8181 37.2975 34.1679Z" fill="white"/>
<path d="M37.0054 36.4898C36.9471 36.7035 36.8985 36.6938 36.558 36.6064L35.4001 36.3052C34.9234 36.1789 34.8651 36.1498 34.9137 35.9652C34.9234 35.9263 34.9234 35.8972 34.8845 35.8972C34.8553 35.8874 34.8359 35.9069 34.8164 35.9652C34.7872 36.0817 34.7484 36.276 34.7289 36.3441C34.6705 36.5869 34.5927 36.7812 34.4857 37.2087C34.4468 37.3641 34.4564 37.3933 34.5245 37.4321C34.6023 37.4807 34.865 37.5682 34.8942 37.5779C34.9429 37.5876 34.9624 37.5876 34.9721 37.5584C34.9819 37.5196 34.9429 37.5099 34.9234 37.5002C34.7289 37.4127 34.6608 37.335 34.7484 37.0144C34.8457 36.6355 34.8845 36.6161 35.2931 36.7229L36.4509 37.0241C36.8304 37.1213 36.8303 37.1504 36.7817 37.3447C36.772 37.3933 36.7817 37.4127 36.8109 37.4224C36.8304 37.4321 36.8595 37.4127 36.8692 37.3544C36.8984 37.2378 36.947 37.0144 36.9665 36.9464C36.986 36.859 37.0443 36.6841 37.0832 36.5384C37.1027 36.4801 37.0931 36.4606 37.0639 36.4509C37.0347 36.4218 37.0152 36.4412 37.0054 36.4898Z" fill="white"/>
<path d="M36.2656 38.9186C36.1975 39.074 36.1489 39.074 36.0419 39.0449C35.9446 39.0158 35.8668 38.9769 35.4387 38.8117L34.9425 38.6077C34.6701 38.5009 34.4463 38.4037 34.3393 38.3454C34.2226 38.2871 34.2129 38.2385 34.2615 38.1123C34.2713 38.0831 34.281 38.054 34.2518 38.0345C34.2226 38.0248 34.1933 38.0345 34.1739 38.0928C34.135 38.2094 34.0668 38.394 34.0377 38.4523C34.0085 38.53 33.921 38.7049 33.8431 38.8895C33.8237 38.938 33.8334 38.9672 33.8626 38.9769C33.8918 38.9866 33.9112 38.9672 33.9209 38.9283C33.989 38.7729 34.0377 38.6952 34.1544 38.734C34.2809 38.7729 34.5047 38.8603 34.7771 38.9769L35.2733 39.1809C35.7013 39.3558 35.7791 39.3849 35.8667 39.4238C35.9835 39.4821 36.003 39.5404 35.9544 39.6667C35.9446 39.6958 35.9348 39.7347 35.9737 39.7444C36.0029 39.7541 36.0224 39.7347 36.0419 39.6861C36.0905 39.5792 36.1489 39.4044 36.1781 39.3364C36.2073 39.2489 36.2949 39.074 36.3338 38.9672C36.3533 38.9089 36.3533 38.8797 36.3338 38.87C36.3046 38.8603 36.2754 38.8895 36.2656 38.9186Z" fill="white"/>
<path d="M34.6706 40.1039C33.9215 39.657 33.2404 40.0553 32.8513 40.7256C32.754 40.8908 32.647 41.1045 32.6275 41.2405C32.6178 41.2988 32.6276 41.328 32.6665 41.3668C32.7443 41.4445 32.9583 41.6194 32.9875 41.6388C33.0167 41.6583 33.0458 41.6583 33.0555 41.6291C33.075 41.6 33.0654 41.5903 33.0264 41.5417C32.8416 41.3474 32.8319 41.1725 33.0459 40.7936C33.3183 40.3273 33.8339 40.1524 34.4566 40.5119C34.943 40.8228 35.1474 41.2308 34.8555 41.736C34.6706 42.0469 34.369 42.2995 34.0869 42.1343C34.0382 42.1052 34.0091 42.1052 33.9896 42.1343C33.9701 42.1635 33.9895 42.1829 34.0382 42.2218C34.0868 42.2606 34.2328 42.348 34.3204 42.3966C34.4079 42.4549 34.4371 42.4841 34.4566 42.4938C34.4858 42.5035 34.5052 42.5035 34.5344 42.4646C34.6317 42.3286 34.8069 42.1732 34.9917 41.8623C35.3517 41.2405 35.3127 40.4828 34.6706 40.1039Z" fill="white"/>
<path d="M32.4039 42.115C32.2969 41.911 32.2969 41.8235 32.4234 41.6778C32.4429 41.6584 32.4526 41.6292 32.4234 41.6098C32.3942 41.5904 32.3747 41.6001 32.3455 41.639C32.2385 41.7653 32.1412 41.8916 32.1217 41.9207C32.0634 41.9887 31.9661 42.0859 31.9077 42.1636C31.8786 42.1927 31.8688 42.2219 31.898 42.2413C31.9272 42.2607 31.9466 42.251 31.9855 42.1927C32.0536 42.115 32.0926 42.1247 32.1217 42.1441C32.1509 42.1636 32.1898 42.2219 32.2385 42.2996L32.3942 42.6008C32.4039 42.6105 32.3942 42.6202 32.3844 42.6299L31.898 43.1934C31.8883 43.2031 31.8785 43.2128 31.8688 43.2031L31.3435 43.0282C31.3143 43.0185 31.4018 42.8825 31.4116 42.8728C31.4213 42.8533 31.4407 42.8242 31.4116 42.8048C31.3921 42.7853 31.3435 42.8048 31.2948 42.8631C31.2559 42.9116 31.1392 43.0671 31.0808 43.1351C31.0322 43.1934 30.9348 43.2905 30.8862 43.3488C30.7986 43.446 30.7986 43.4848 30.8181 43.4945C30.8473 43.514 30.8667 43.5043 30.8862 43.4751C30.9834 43.3585 31.1684 43.4071 31.3435 43.4557C31.83 43.6014 33.0947 44.0192 33.2698 44.0774C33.3574 44.1066 33.3866 44.1066 33.4158 44.0774C33.4352 44.0483 33.4255 44.0094 33.3768 43.9123L32.4039 42.115ZM32.9487 43.6111H32.9389L32.0634 43.3002L32.4817 42.8048L32.9487 43.6111Z" fill="white"/>
<path d="M11.7108 45.8067C11.5551 45.7096 11.3799 45.6221 11.3021 45.5736C11.2243 45.525 11.0686 45.4181 10.9324 45.3404C10.8838 45.3113 10.8449 45.3112 10.8351 45.3307C10.8157 45.3598 10.8352 45.3793 10.8741 45.3987C11.02 45.4861 11.0589 45.5541 10.9908 45.661C10.9422 45.7484 10.9033 45.8164 10.6601 46.2148L10.3876 46.6714C9.99848 47.332 9.94977 47.3514 9.83302 47.2834C9.76491 47.2445 9.73573 47.2348 9.71627 47.264C9.70655 47.2931 9.71632 47.3126 9.76497 47.3417C9.87199 47.4 10.0374 47.4971 10.1055 47.536C10.2319 47.6137 10.4558 47.7886 10.6503 47.9052C11.3119 48.3035 12.0513 48.2646 12.4599 47.5651C12.8783 46.8657 12.4988 46.2828 11.7108 45.8067ZM12.0318 47.4194C11.6815 48.012 11.2729 48.0898 10.7184 47.7595C10.3779 47.5554 10.3876 47.4777 10.5919 47.1377L11.3216 45.9233C11.3702 45.8359 11.3897 45.8261 11.5745 45.933C12.1583 46.273 12.3723 46.8462 12.0318 47.4194Z" fill="white"/>
<path d="M14.9696 47.3514C14.921 47.332 14.3373 47.1182 14.2497 47.0891C14.1719 47.0599 13.9871 46.9822 13.8314 46.9239C13.773 46.9045 13.7438 46.9142 13.734 46.9336C13.7243 46.9628 13.7438 46.9822 13.7827 46.9919C13.9481 47.0502 13.9968 47.1085 13.9482 47.2348C13.919 47.3222 13.8897 47.4 13.7243 47.8371L13.5395 48.3423C13.4811 48.4881 13.4324 48.6338 13.3838 48.7504C13.2671 49.071 13.2282 49.0904 13.0725 49.0321C13.0336 49.0224 13.0141 49.0224 13.0044 49.0515C12.9946 49.0807 13.0044 49.1001 13.0531 49.1195C13.1698 49.1584 13.3547 49.2264 13.4228 49.2458C13.7341 49.3624 14.0065 49.479 14.2887 49.5859C14.347 49.6053 14.3762 49.5956 14.4249 49.5373C14.4541 49.479 14.5513 49.2944 14.5804 49.2361C14.5902 49.1973 14.5999 49.1681 14.5707 49.1584C14.5415 49.1487 14.5221 49.1681 14.5027 49.1972C14.4443 49.3041 14.3957 49.343 14.3081 49.3527C14.2206 49.3527 14.0065 49.2847 13.9287 49.2555C13.7244 49.1778 13.6952 49.1584 13.773 48.9641C13.8022 48.8767 13.8995 48.6241 14.0162 48.3035C14.0162 48.2937 14.026 48.2937 14.0357 48.2937C14.0551 48.3035 14.3762 48.4298 14.4249 48.4492C14.5611 48.4978 14.5416 48.6241 14.5124 48.7115C14.5027 48.7309 14.5124 48.7601 14.5319 48.7698C14.5708 48.7795 14.5902 48.7504 14.5999 48.7212C14.6583 48.5658 14.7654 48.3715 14.7848 48.3326C14.7946 48.3035 14.7848 48.284 14.7654 48.284C14.7459 48.2743 14.7167 48.2938 14.6778 48.3132C14.6486 48.3229 14.5611 48.3326 14.4054 48.2743C14.2789 48.2257 14.1427 48.1772 14.1037 48.1577C14.0843 48.148 14.0843 48.148 14.0843 48.1286L14.3664 47.3611C14.3664 47.3514 14.3762 47.3514 14.3859 47.3514C14.9502 47.5554 14.96 47.5845 14.9113 47.7788C14.9016 47.808 14.8919 47.8371 14.9308 47.8469C14.96 47.8566 14.9794 47.8469 14.9988 47.8177C15.0864 47.5845 15.1546 47.5165 15.174 47.4582C15.1837 47.4388 15.1837 47.4097 15.1545 47.4097C15.1351 47.3708 15.0766 47.3805 14.9696 47.3514Z" fill="white"/>
<path d="M19.2992 48.1771C19.1338 48.148 18.9198 48.0508 18.5598 48.012C17.8301 47.944 17.1685 48.2937 17.0907 49.0321C16.9934 49.8967 17.6452 50.3436 18.4138 50.4213C18.6084 50.4408 18.8419 50.4505 18.9781 50.4116C19.0364 50.3922 19.0559 50.3728 19.0753 50.3242C19.1143 50.2173 19.1825 49.9647 19.1825 49.9161C19.1825 49.887 19.1727 49.8578 19.1532 49.8578C19.1241 49.8578 19.1143 49.8676 19.0851 49.9259C18.9878 50.1687 18.8322 50.2562 18.4041 50.2173C17.869 50.1687 17.4896 49.7704 17.5577 49.0515C17.6355 48.488 17.9176 48.1286 18.5014 48.1869C18.8613 48.2257 19.2116 48.4006 19.1825 48.7212C19.1825 48.7698 19.1921 48.8086 19.2213 48.8086C19.2505 48.8086 19.27 48.7795 19.2797 48.7309C19.2895 48.6726 19.3088 48.5075 19.3283 48.4006C19.3478 48.2937 19.3575 48.2549 19.3575 48.2354C19.3575 48.2063 19.3381 48.1869 19.2992 48.1771Z" fill="white"/>
<path d="M23.0352 50.1105C22.8601 50.1299 22.7919 50.1202 22.753 49.9842C22.7238 49.8482 22.6947 49.615 22.6655 49.3333L22.6071 48.799C22.5584 48.3424 22.5488 48.2549 22.539 48.1578C22.5293 48.0315 22.5683 47.9829 22.7045 47.9732C22.7531 47.9635 22.7725 47.9537 22.7725 47.9246C22.7725 47.8955 22.7434 47.8857 22.685 47.8857C22.5585 47.8955 22.3736 47.9246 22.2958 47.9343C22.2082 47.944 22.0137 47.9537 21.8483 47.9732C21.7997 47.9829 21.7704 47.9926 21.7704 48.0218C21.7704 48.0509 21.7997 48.0606 21.8483 48.0606C21.9942 48.0412 22.0818 48.0509 22.1013 48.1966C22.1207 48.2938 22.1304 48.3715 22.1791 48.8378L22.1985 48.9738C22.1985 48.9835 22.1985 48.9835 22.1888 48.9835L21.031 49.1098C21.0213 49.1098 21.0212 49.1098 21.0212 49.1001L21.0019 48.9738C20.9532 48.5172 20.9435 48.4298 20.9435 48.3326C20.9337 48.1966 20.9727 48.1578 21.1089 48.148C21.1575 48.1383 21.1769 48.1286 21.1769 48.0995C21.1769 48.0703 21.1478 48.0606 21.0894 48.0606C20.9727 48.0703 20.7781 48.1092 20.71 48.1189C20.6224 48.1286 20.4279 48.1383 20.2625 48.1578C20.2041 48.1675 20.1846 48.1869 20.1846 48.2063C20.1846 48.2355 20.2138 48.2452 20.2625 48.2452C20.4279 48.2258 20.496 48.2549 20.5154 48.3812C20.5349 48.4784 20.5349 48.5561 20.5932 49.0224L20.6515 49.5567C20.6807 49.8385 20.71 50.0716 20.71 50.1979C20.71 50.3339 20.6905 50.3728 20.5445 50.3825C20.5056 50.3922 20.4765 50.402 20.4862 50.4311C20.4862 50.4602 20.5154 50.47 20.564 50.47C20.6905 50.4602 20.8754 50.4311 20.9532 50.4214C21.0408 50.4117 21.2353 50.4019 21.4299 50.3728C21.4786 50.3631 21.5078 50.3437 21.4981 50.3145C21.4981 50.2854 21.4688 50.2757 21.4299 50.2854C21.2548 50.3048 21.1866 50.3048 21.1477 50.1591C21.1185 50.0328 21.0991 49.7899 21.0602 49.5179L21.0407 49.3333C21.0407 49.3236 21.0407 49.3236 21.0505 49.3236L22.2083 49.1973C22.2083 49.1973 22.218 49.1973 22.218 49.207L22.2374 49.3916C22.2666 49.6636 22.2958 49.9065 22.2861 50.0328C22.2861 50.1688 22.2763 50.1979 22.1206 50.2174C22.0817 50.2174 22.0526 50.2271 22.0623 50.2659C22.0623 50.2854 22.0915 50.3048 22.1498 50.3048C22.2666 50.2951 22.4612 50.2659 22.5293 50.2465C22.6168 50.2368 22.8114 50.2271 23.006 50.2076C23.0546 50.1979 23.0839 50.1785 23.0742 50.1591C23.1033 50.1105 23.0644 50.1008 23.0352 50.1105Z" fill="white"/>
<path d="M25.2431 49.5082C25.0777 49.5567 24.9901 49.5567 24.9512 49.4499C24.9026 49.3236 24.8345 49.1001 24.7469 48.8184L24.5913 48.3035C24.4648 47.8566 24.4357 47.7789 24.4162 47.6915C24.387 47.5554 24.4161 47.5166 24.5523 47.4777C24.5815 47.468 24.6107 47.4486 24.601 47.4097C24.5913 47.3903 24.5621 47.3806 24.5135 47.4C24.3967 47.4291 24.2313 47.4874 24.1535 47.5166C24.0659 47.5457 23.8811 47.5846 23.7643 47.6234C23.7059 47.6429 23.6865 47.6623 23.6865 47.6915C23.6963 47.7303 23.7351 47.7206 23.7643 47.7206C23.9297 47.672 23.9589 47.7109 24.0075 47.8177C24.0465 47.9149 24.0659 47.9926 24.2021 48.4298L24.3578 48.9447C24.4453 49.2264 24.5135 49.4596 24.5329 49.5762C24.5621 49.7122 24.5232 49.7413 24.3967 49.7802C24.3578 49.7899 24.3383 49.8093 24.348 49.8385C24.3578 49.8676 24.3869 49.8773 24.4356 49.8676C24.5523 49.8288 24.7372 49.7608 24.8053 49.7413C24.8831 49.7219 25.0777 49.6733 25.2722 49.615C25.3209 49.6053 25.3404 49.5762 25.3307 49.547C25.3112 49.4985 25.2723 49.4985 25.2431 49.5082Z" fill="white"/>
<path d="M27.7821 48.041C27.7626 47.9924 27.7431 47.9827 27.7139 47.9924C27.675 48.0118 27.6848 48.041 27.6946 48.0701C27.7529 48.2741 27.7237 48.381 27.4319 48.517C27.0816 48.6822 27.0329 48.6627 26.8578 48.2741L26.3617 47.1861C26.1963 46.8363 26.2157 46.8072 26.4005 46.7294C26.4492 46.71 26.459 46.6809 26.4492 46.6614C26.4395 46.6323 26.4104 46.6323 26.3617 46.6517C26.2547 46.7003 26.0504 46.8072 25.9823 46.8363C25.9044 46.8752 25.7196 46.9432 25.5931 47.0015C25.5444 47.0209 25.5249 47.05 25.5347 47.0695C25.5444 47.0986 25.5736 47.0986 25.6126 47.0792C25.8169 46.9918 25.8363 47.0306 25.9823 47.3609L26.4785 48.449C26.6828 48.8959 26.7021 48.9639 26.527 49.0416C26.4978 49.0611 26.4686 49.0805 26.4881 49.0999C26.4978 49.1291 26.5271 49.1291 26.5757 49.1096C26.6827 49.0611 26.8578 48.9736 26.9259 48.9445C27.1497 48.8376 27.3443 48.7793 27.7529 48.585C27.8988 48.517 27.9183 48.4879 27.9086 48.4199C27.8891 48.3324 27.7918 48.0701 27.7821 48.041Z" fill="white"/>
<path d="M30.0005 46.7199C29.981 46.6908 29.9615 46.6616 29.9323 46.681C29.9031 46.7005 29.9128 46.7199 29.9225 46.7588C29.9712 46.8753 29.9712 46.9336 29.9323 47.0016C29.8836 47.0696 29.6891 47.2056 29.6308 47.2445C29.4459 47.3708 29.4166 47.3708 29.2999 47.2057C29.2512 47.1279 29.1054 46.9045 28.9108 46.6227C28.9108 46.613 28.9011 46.6033 28.9108 46.6033C28.9303 46.5936 29.2221 46.409 29.2708 46.3799C29.3875 46.3021 29.475 46.3799 29.5334 46.4673C29.5431 46.4867 29.5723 46.4964 29.5918 46.477C29.6307 46.4576 29.6113 46.4187 29.5918 46.3896C29.5042 46.2536 29.407 46.0496 29.3875 46.0107C29.3681 45.9816 29.3486 45.9816 29.3388 46.001C29.3194 46.0107 29.3193 46.0496 29.3096 46.0884C29.2999 46.1176 29.261 46.1953 29.1248 46.2827C29.0178 46.3507 28.8816 46.4382 28.8524 46.4576C28.8427 46.4673 28.8329 46.4673 28.8232 46.4576L28.3659 45.7775C28.3562 45.7678 28.3562 45.7581 28.3659 45.7581C28.8621 45.4278 28.8913 45.4278 29.0178 45.5832C29.0373 45.6027 29.0567 45.6318 29.0859 45.6124C29.1151 45.5929 29.1151 45.5735 29.0956 45.5444C28.9594 45.3404 28.94 45.2432 28.9108 45.1946C28.9011 45.1752 28.8816 45.1655 28.8621 45.1752C28.8427 45.1849 28.8135 45.2432 28.7259 45.3015C28.6773 45.3306 28.1616 45.6707 28.0838 45.729C28.0157 45.7775 27.8503 45.8747 27.7043 45.9718C27.6557 46.001 27.646 46.0301 27.6557 46.0496C27.6752 46.0787 27.6946 46.069 27.7335 46.0496C27.8795 45.9524 27.9573 45.9524 28.0254 46.0593C28.0838 46.137 28.1325 46.205 28.3854 46.5936L28.687 47.0405C28.7745 47.1765 28.8523 47.3028 28.9204 47.4C29.1053 47.6817 29.1053 47.7303 28.9691 47.8177C28.9399 47.8371 28.9205 47.8566 28.9399 47.8857C28.9594 47.9051 28.9789 47.9149 29.0276 47.8857C29.1346 47.8177 29.2902 47.7011 29.3486 47.6623C29.621 47.4777 29.8836 47.3319 30.1366 47.1668C30.1852 47.1279 30.195 47.0988 30.1755 47.0308C30.1366 46.9628 30.0394 46.7782 30.0005 46.7199Z" fill="white"/>
</svg>
