<svg width="1920" height="84" viewBox="0 0 1920 84" fill="none" xmlns="http://www.w3.org/2000/svg">
<mask id="mask0_2518_2141" style="mask-type:luminance" maskUnits="userSpaceOnUse" x="0" y="0" width="1920" height="85">
<path d="M1920 0H0V84.43H1920V0Z" fill="white"/>
</mask>
<g mask="url(#mask0_2518_2141)">
<path d="M1920 -1271.65H-1.57031V84.12H1920V-1271.65Z" fill="url(#paint0_linear_2518_2141)"/>
<mask id="mask1_2518_2141" style="mask-type:luminance" maskUnits="userSpaceOnUse" x="-2" y="-1272" width="1922" height="1357">
<path d="M1920 -1271.65H-1.57031V84.12H1920V-1271.65Z" fill="white"/>
</mask>
<g mask="url(#mask1_2518_2141)">
<g opacity="0.5">
<path d="M-395.471 59.2V-94.9399C303.219 -94.9399 619.239 -467.18 924.829 -827.17C1192.83 -1142.85 1445.96 -1441.01 1920 -1441.01V-1286.87C1517.46 -1286.87 1297.41 -1027.66 1042.6 -727.51C729.549 -358.76 374.729 59.2 -395.471 59.2Z" fill="white"/>
</g>
<g opacity="0.5">
<path d="M-395.471 310.91V156.78C155.049 156.78 425.739 -72.63 712.309 -315.53C1007.51 -565.75 1312.8 -824.5 1920 -824.5V-670.36C1369.46 -670.36 1098.77 -440.93 812.199 -198.03C516.999 52.16 211.739 310.91 -395.471 310.91Z" fill="white"/>
</g>
<g opacity="0.5">
<path d="M-395.471 562.63V408.49C189.119 408.49 525.679 162.17 851.149 -76.05C1146.81 -292.47 1452.55 -516.25 1919.99 -516.25V-362.11C1503.08 -362.11 1230.73 -162.78 942.409 48.25C612.999 289.34 239.629 562.63 -395.471 562.63Z" fill="white"/>
</g>
<path d="M1920 562.63C1318.15 562.63 1014.1 364.3 720.049 172.5C432.239 -15.2099 160.399 -192.51 -395.471 -192.51V-346.65C206.359 -346.65 510.429 -148.32 804.459 43.4801C1092.26 231.18 1364.11 408.49 1920 408.49V562.63Z" fill="white"/>
<path d="M1920 254.39C1319.6 254.39 1015.96 71.1499 722.329 -106.05C434.109 -279.98 161.879 -444.25 -395.471 -444.25V-598.39C204.909 -598.39 508.539 -415.15 802.179 -237.95C1090.4 -64.0201 1362.63 100.26 1920 100.26V254.39Z" fill="white"/>
</g>
<path opacity="0.5" d="M1919.88 -1271.33H-1.69043V84.4401H1919.88V-1271.33Z" fill="url(#paint1_linear_2518_2141)"/>
</g>
<defs>
<linearGradient id="paint0_linear_2518_2141" x1="161.413" y1="-189.526" x2="1705.78" y2="-972.034" gradientUnits="userSpaceOnUse">
<stop stop-color="#942C83"/>
<stop offset="1" stop-color="#455493"/>
</linearGradient>
<linearGradient id="paint1_linear_2518_2141" x1="161.287" y1="-189.212" x2="1705.65" y2="-971.719" gradientUnits="userSpaceOnUse">
<stop stop-color="#942C83"/>
<stop offset="1" stop-color="#455493"/>
</linearGradient>
</defs>
</svg>
